<svg width="30" height="30" viewBox="0 0 30 30" fill="none" xmlns="http://www.w3.org/2000/svg">
<g id="fi_10538572">
<path id="Vector" d="M19.4555 11.0498H10.5698C10.4425 11.0498 10.3204 10.9993 10.2304 10.9093C10.1404 10.8192 10.0898 10.6971 10.0898 10.5698C10.0898 10.4425 10.1404 10.3204 10.2304 10.2304C10.3204 10.1404 10.4425 10.0898 10.5698 10.0898H19.4555C19.5828 10.0898 19.7049 10.1404 19.795 10.2304C19.885 10.3204 19.9355 10.4425 19.9355 10.5698C19.9355 10.6971 19.885 10.8192 19.795 10.9093C19.7049 10.9993 19.5828 11.0498 19.4555 11.0498Z" fill="#1A73E9"/>
<path id="Vector_2" d="M21.9204 27.4802H8.08025C7.59662 27.4802 7.11846 27.3779 6.6771 27.1802C6.23573 26.9825 5.84112 26.6938 5.51911 26.3329C5.1971 25.9721 4.95496 25.5473 4.80855 25.0864C4.66215 24.6254 4.61478 24.1388 4.66955 23.6582L4.69115 23.468L6.16835 10.5155C6.18168 10.3984 6.23764 10.2903 6.32555 10.2118C6.41346 10.1333 6.52718 10.0899 6.64505 10.0898H8.91755C9.04485 10.0898 9.16694 10.1404 9.25696 10.2304C9.34698 10.3204 9.39755 10.4425 9.39755 10.5698C9.39755 10.6971 9.34698 10.8192 9.25696 10.9093C9.16694 10.9993 9.04485 11.0498 8.91755 11.0498H7.07345L5.62325 23.7671C5.58377 24.1133 5.61788 24.4639 5.72335 24.7959C5.82881 25.128 6.00324 25.434 6.23522 25.6939C6.46719 25.9538 6.75147 26.1618 7.06943 26.3042C7.38739 26.4466 7.73185 26.5202 8.08025 26.5202H21.9204C22.2688 26.5202 22.6133 26.4466 22.9313 26.3042C23.2492 26.1618 23.5335 25.9538 23.7655 25.6939C23.9974 25.434 24.1719 25.128 24.2773 24.7959C24.3828 24.4639 24.4169 24.1133 24.3774 23.7671L24.3555 23.5766L22.9272 11.0498H21.1083C20.981 11.0498 20.859 10.9993 20.7689 10.9093C20.6789 10.8192 20.6283 10.6971 20.6283 10.5698C20.6283 10.4425 20.6789 10.3204 20.7689 10.2304C20.859 10.1404 20.981 10.0898 21.1083 10.0898H23.3556C23.4735 10.0899 23.5872 10.1333 23.6751 10.2118C23.7631 10.2903 23.819 10.3984 23.8323 10.5155L25.3323 23.6585C25.3871 24.1391 25.3396 24.6259 25.1931 25.0869C25.0466 25.5478 24.8044 25.9727 24.4823 26.3335C24.1601 26.6943 23.7654 26.983 23.3239 27.1806C22.8824 27.3782 22.4041 27.4804 21.9204 27.4802Z" fill="#1A73E9"/>
<path id="Vector_3" d="M24.8319 24.002H5.1675C5.0402 24.002 4.91811 23.9514 4.82809 23.8614C4.73807 23.7714 4.6875 23.6493 4.6875 23.522C4.6875 23.3947 4.73807 23.2726 4.82809 23.1826C4.91811 23.0926 5.0402 23.042 5.1675 23.042H24.8319C24.9592 23.042 25.0813 23.0926 25.1713 23.1826C25.2613 23.2726 25.3119 23.3947 25.3119 23.522C25.3119 23.6493 25.2613 23.7714 25.1713 23.8614C25.0813 23.9514 24.9592 24.002 24.8319 24.002Z" fill="#1A73E9"/>
<path id="Vector_4" d="M19.4555 13.4459C19.3282 13.4459 19.2062 13.3953 19.1161 13.3053C19.0261 13.2152 18.9755 13.0932 18.9755 12.9659V9.09585C18.9756 8.57543 18.8732 8.06008 18.6741 7.57925C18.475 7.09842 18.1831 6.66153 17.8151 6.29352C17.4471 5.92551 17.0102 5.63359 16.5294 5.43444C16.0486 5.23529 15.5333 5.13281 15.0128 5.13285C12.8276 5.13285 11.0498 6.91065 11.0498 9.09585V12.9659C11.0498 13.0932 10.9993 13.2152 10.9093 13.3053C10.8192 13.3953 10.6971 13.4459 10.5698 13.4459C10.4425 13.4459 10.3204 13.3953 10.2304 13.3053C10.1404 13.2152 10.0898 13.0932 10.0898 12.9659V9.09585C10.0898 6.38115 12.2984 4.17285 15.0128 4.17285C15.6593 4.17285 16.2995 4.30019 16.8967 4.5476C17.494 4.79501 18.0367 5.15764 18.4938 5.61478C18.9509 6.07193 19.3135 6.61464 19.5609 7.21192C19.8083 7.80921 19.9356 8.44937 19.9355 9.09585V12.9659C19.9355 13.0932 19.885 13.2152 19.795 13.3053C19.7049 13.3953 19.5828 13.4459 19.4555 13.4459Z" fill="#1A73E9"/>
<path id="Vector_5" d="M21.1083 13.4627C20.981 13.4627 20.8589 13.4121 20.7689 13.3221C20.6789 13.2321 20.6283 13.11 20.6283 12.9827V9.09591C20.6283 8.35848 20.4831 7.62828 20.2009 6.94699C19.9187 6.2657 19.505 5.64666 18.9836 5.12522C18.4621 4.60378 17.8431 4.19015 17.1618 3.90795C16.4805 3.62575 15.7503 3.48051 15.0129 3.48051C14.2755 3.48051 13.5453 3.62575 12.864 3.90795C12.1827 4.19015 11.5637 4.60378 11.0422 5.12522C10.5208 5.64666 10.1071 6.2657 9.82495 6.94699C9.54275 7.62828 9.3975 8.35848 9.3975 9.09591V12.9827C9.3975 13.11 9.34693 13.2321 9.25691 13.3221C9.16689 13.4121 9.0448 13.4627 8.9175 13.4627C8.7902 13.4627 8.66811 13.4121 8.57809 13.3221C8.48807 13.2321 8.4375 13.11 8.4375 12.9827V9.09591C8.4375 8.23241 8.60758 7.37738 8.93802 6.57961C9.26847 5.78185 9.75281 5.05698 10.3634 4.4464C10.974 3.83582 11.6988 3.35148 12.4966 3.02103C13.2944 2.69059 14.1494 2.52051 15.0129 2.52051C15.8764 2.52051 16.7314 2.69059 17.5292 3.02103C18.327 3.35148 19.0518 3.83582 19.6624 4.4464C20.273 5.05698 20.7573 5.78185 21.0878 6.57961C21.4182 7.37738 21.5883 8.23241 21.5883 9.09591V12.9827C21.5883 13.11 21.5377 13.2321 21.4477 13.3221C21.3577 13.4121 21.2356 13.4627 21.1083 13.4627Z" fill="#1A73E9"/>
<path id="Vector_6" d="M20.2694 16.2155C19.8769 16.2155 19.4933 16.0991 19.167 15.8811C18.8407 15.663 18.5863 15.3531 18.4362 14.9905C18.286 14.6279 18.2467 14.229 18.3233 13.8441C18.3999 13.4592 18.5889 13.1056 18.8664 12.8281C19.1439 12.5506 19.4975 12.3617 19.8824 12.2852C20.2674 12.2086 20.6663 12.248 21.0289 12.3982C21.3914 12.5484 21.7013 12.8028 21.9193 13.1291C22.1373 13.4555 22.2536 13.8391 22.2536 14.2316C22.2529 14.7576 22.0437 15.2619 21.6717 15.6338C21.2997 16.0057 20.7954 16.2149 20.2694 16.2155ZM20.2694 13.2074C20.0668 13.2074 19.8688 13.2674 19.7003 13.38C19.5319 13.4925 19.4006 13.6525 19.3231 13.8396C19.2456 14.0268 19.2253 14.2327 19.2648 14.4314C19.3044 14.6301 19.4019 14.8126 19.5451 14.9558C19.6884 15.099 19.8709 15.1966 20.0695 15.2361C20.2682 15.2756 20.4742 15.2553 20.6613 15.1778C20.8485 15.1003 21.0084 14.969 21.1209 14.8006C21.2335 14.6322 21.2936 14.4341 21.2936 14.2316C21.2932 13.96 21.1852 13.6997 20.9932 13.5077C20.8012 13.3157 20.5409 13.2077 20.2694 13.2074Z" fill="#1A73E9"/>
<path id="Vector_7" d="M9.75569 16.2155C9.36323 16.2155 8.9796 16.0991 8.65329 15.8811C8.32699 15.663 8.07267 15.3531 7.92249 14.9905C7.77232 14.6279 7.73305 14.229 7.80963 13.8441C7.88622 13.4592 8.07522 13.1056 8.35275 12.8281C8.63027 12.5506 8.98385 12.3617 9.36877 12.2852C9.75369 12.2086 10.1527 12.248 10.5152 12.3982C10.8778 12.5484 11.1876 12.8028 11.4056 13.1291C11.6236 13.4555 11.7399 13.8391 11.7399 14.2316C11.7393 14.7576 11.5301 15.262 11.1581 15.6339C10.7861 16.0058 10.2817 16.215 9.75569 16.2155ZM9.75569 13.2074C9.55312 13.2074 9.3551 13.2674 9.18667 13.38C9.01824 13.4925 8.88697 13.6525 8.80945 13.8396C8.73193 14.0268 8.71165 14.2327 8.75117 14.4314C8.79068 14.6301 8.88823 14.8126 9.03147 14.9558C9.1747 15.099 9.3572 15.1966 9.55587 15.2361C9.75455 15.2756 9.96048 15.2553 10.1476 15.1778C10.3348 15.1003 10.4947 14.969 10.6073 14.8006C10.7198 14.6322 10.7799 14.4341 10.7799 14.2316C10.7796 13.96 10.6717 13.6996 10.4796 13.5076C10.2876 13.3156 10.0272 13.2076 9.75569 13.2074Z" fill="#1A73E9"/>
</g>
</svg>
