<svg width="16" height="17" viewBox="0 0 16 17" fill="none" xmlns="http://www.w3.org/2000/svg">
<g id="ep:arrow-up-bold">
<path id="Vector" d="M5.29344 2.13654C5.10597 2.32406 5.00065 2.57837 5.00065 2.84354C5.00065 3.1087 5.10597 3.36301 5.29344 3.55054L10.2434 8.50054L5.29344 13.4505C5.11128 13.6391 5.01049 13.8917 5.01277 14.1539C5.01504 14.4161 5.12021 14.6669 5.30562 14.8524C5.49103 15.0378 5.74184 15.1429 6.00404 15.1452C6.26624 15.1475 6.51884 15.0467 6.70744 14.8645L12.3644 9.20754C12.5519 9.02001 12.6572 8.7657 12.6572 8.50054C12.6572 8.23537 12.5519 7.98106 12.3644 7.79354L6.70744 2.13654C6.51991 1.94907 6.2656 1.84375 6.00044 1.84375C5.73528 1.84375 5.48097 1.94907 5.29344 2.13654Z" fill="#1A73E9"/>
</g>
</svg>
