<svg width="30" height="30" viewBox="0 0 30 30" fill="none" xmlns="http://www.w3.org/2000/svg">
<g id="fi_11217765">
<path id="Vector" d="M20.1679 24.8996H16.06C15.9699 24.8997 15.8816 24.8744 15.8052 24.8266C15.7288 24.7789 15.6674 24.7106 15.628 24.6296L15.5602 24.4895C15.2771 23.907 15.0609 23.2944 14.9155 22.6634C14.7702 22.0367 14.6968 21.3954 14.6968 20.7521C14.7014 19.3656 15.0845 18.0068 15.8047 16.8221C15.8373 16.7681 15.8802 16.7211 15.9309 16.6837C15.9817 16.6463 16.0393 16.6193 16.1005 16.6041C16.1617 16.589 16.2253 16.5861 16.2876 16.5955C16.35 16.605 16.4098 16.6266 16.4638 16.6592C16.5178 16.6918 16.5648 16.7347 16.6022 16.7854C16.6396 16.8362 16.6666 16.8938 16.6818 16.955C16.6969 17.0162 16.6998 17.0798 16.6904 17.1421C16.6809 17.2044 16.6593 17.2643 16.6267 17.3183C15.9967 18.3534 15.6613 19.5409 15.6568 20.7527C15.657 21.3233 15.7221 21.8921 15.8509 22.448C15.9688 22.9619 16.1397 23.4622 16.3609 23.9408H19.6705C19.633 23.6315 19.5331 23.2238 19.2733 22.9319C19.0603 22.6919 18.7675 22.5671 18.3787 22.5482C18.3048 22.5446 18.2328 22.5239 18.1682 22.4879C18.1036 22.4518 18.0482 22.4013 18.0064 22.3403C17.9645 22.2794 17.9374 22.2095 17.927 22.1363C17.9165 22.0631 17.9232 21.9884 17.9464 21.9182L19.5769 17.0225C19.6093 16.9244 19.6724 16.8394 19.7569 16.7801C19.7599 16.778 20.1835 16.4768 20.6359 15.9215C21.1834 15.2507 21.5332 14.5145 21.6757 13.7333C21.7518 13.3153 21.7685 12.8887 21.7252 12.4661C21.7185 12.3993 21.7259 12.3319 21.7468 12.2682C21.7677 12.2045 21.8018 12.1458 21.8468 12.0961C21.8918 12.0463 21.9468 12.0066 22.0081 11.9794C22.0694 11.9521 22.1357 11.9381 22.2028 11.9381H23.8204C24.772 11.9381 25.6576 11.5463 26.1886 10.8899C26.7154 10.2407 26.4808 9.92628 26.3806 9.79188C26.1595 9.49398 25.7473 9.30948 25.3036 9.30948H24.5818C24.4958 9.30923 24.4114 9.28587 24.3376 9.24186C24.2637 9.19784 24.203 9.13479 24.1618 9.05928C23.9417 8.69369 23.6674 8.36363 23.3482 8.08038C22.6765 7.48428 21.9319 7.22028 21.1351 7.29588C21.0685 7.3022 21.0013 7.29451 20.9378 7.27331C20.8743 7.25211 20.8159 7.21786 20.7665 7.17277C20.717 7.12768 20.6775 7.07275 20.6505 7.01149C20.6235 6.95024 20.6097 6.88402 20.6098 6.81708V6.10308C20.1097 6.23778 19.279 6.75228 18.8509 8.63598C18.7165 9.22208 18.4951 9.78473 18.1939 10.3052C17.9972 10.644 17.7684 10.9631 17.5105 11.258C16.9306 11.9228 16.4005 12.2462 15.8905 12.2462H8.4238C7.2757 12.2462 6.24851 12.6842 5.60381 13.448C5.05901 14.0951 4.84031 14.9234 4.98761 15.7805C4.99091 15.7979 4.99391 15.8156 4.99751 15.8333C5.56151 16.6049 5.85671 17.7728 4.95161 18.6641V20.7152C4.95127 21.8155 5.1442 22.9072 5.52161 23.9408H9.04241C9.01871 23.6834 8.94161 23.348 8.722 23.0708C8.45741 22.7363 8.02451 22.5392 7.43531 22.4855C7.36906 22.4795 7.3048 22.4597 7.24659 22.4275C7.18837 22.3954 7.13748 22.3514 7.09715 22.2985C7.05681 22.2457 7.02791 22.185 7.01227 22.1203C6.99663 22.0557 6.9946 21.9885 7.00631 21.923L7.26311 20.4896C7.40741 19.6895 7.93601 18.9998 8.71391 18.5969C9.64001 18.1169 10.6837 17.1698 10.3918 15.4031C10.3815 15.3408 10.3836 15.2772 10.3979 15.2157C10.4122 15.1543 10.4384 15.0962 10.4752 15.0449C10.5119 14.9936 10.5584 14.9501 10.6119 14.9167C10.6655 14.8834 10.7251 14.8609 10.7874 14.8506C10.8496 14.8403 10.9133 14.8424 10.9747 14.8567C11.0362 14.871 11.0942 14.8973 11.1455 14.934C11.1968 14.9707 11.2404 15.0172 11.2737 15.0708C11.307 15.1243 11.3295 15.1839 11.3398 15.2462C11.7457 17.7041 10.1464 18.9341 9.157 19.4486C8.64521 19.7138 8.29991 20.1548 8.20901 20.6591L8.0386 21.6098C8.6557 21.752 9.14051 22.0451 9.48371 22.4846C10.1584 23.3483 9.99731 24.4478 9.99011 24.4946C9.97222 24.6077 9.91449 24.7106 9.82735 24.7849C9.74021 24.8592 9.6294 24.8998 9.51491 24.8996H5.19491C5.09925 24.8996 5.00577 24.8711 4.92644 24.8176C4.84712 24.7642 4.78558 24.6883 4.74971 24.5996C4.25042 23.3653 3.99364 22.0463 3.99341 20.7149V18.4496C3.99333 18.3783 4.00912 18.3079 4.03963 18.2435C4.07014 18.1791 4.11461 18.1224 4.16981 18.0773C4.50131 17.8073 4.62281 17.5055 4.55231 17.1257C4.48691 16.7732 4.27301 16.4657 4.20911 16.3808C4.13704 16.2848 4.08742 16.1739 4.06391 16.0562C4.05611 16.0199 4.04981 15.9851 4.04321 15.95C4.04335 15.9486 4.04335 15.9472 4.04321 15.9458C3.84611 14.804 4.13981 13.6973 4.87061 12.8297C5.69681 11.8487 6.99161 11.2862 8.42351 11.2862H15.8896C15.9649 11.2862 16.2526 11.2388 16.786 10.6262C17.0032 10.3778 17.196 10.1091 17.3617 9.82368C17.6148 9.38672 17.8008 8.91426 17.9137 8.42208C18.253 6.92868 18.8809 5.91588 19.7794 5.41308C20.4898 5.01528 21.0994 5.10228 21.1675 5.11308C21.28 5.13153 21.3822 5.18942 21.456 5.27638C21.5297 5.36334 21.57 5.47369 21.5698 5.58768V6.32658C22.4479 6.36858 23.2834 6.72888 24.0121 7.38468C24.3285 7.67131 24.6094 7.99482 24.8488 8.34828H25.3048C26.0578 8.34828 26.7484 8.67348 27.1519 9.21828C27.4429 9.60828 27.8029 10.4246 26.9359 11.4935C26.2246 12.3725 25.06 12.8975 23.8216 12.8975H22.7098C22.7116 13.2357 22.6815 13.5733 22.6198 13.9058C22.4506 14.8358 22.0216 15.7412 21.3799 16.5275C21.1003 16.8724 20.7852 17.187 20.4397 17.4659L19.0342 21.6896C19.4058 21.7972 19.7389 22.0088 19.9942 22.2995C20.7352 23.1377 20.6497 24.4037 20.6458 24.4571C20.6364 24.5774 20.582 24.6898 20.4934 24.7718C20.4048 24.8538 20.2886 24.8994 20.1679 24.8996Z" fill="#1A73E9"/>
<path id="Vector_2" d="M15.346 19.7064C15.2844 19.7065 15.2233 19.6948 15.166 19.6719L10.462 17.7843C10.4031 17.7612 10.3492 17.7266 10.3037 17.6826C10.2581 17.6386 10.2217 17.586 10.1966 17.5278C10.1715 17.4697 10.1581 17.4071 10.1573 17.3438C10.1564 17.2804 10.1681 17.2176 10.1917 17.1588C10.2153 17.1 10.2503 17.0464 10.2946 17.0012C10.339 16.956 10.3919 16.92 10.4502 16.8953C10.5086 16.8707 10.5712 16.8578 10.6346 16.8574C10.6979 16.8571 10.7607 16.8693 10.8193 16.8933L15.5248 18.7797C15.6284 18.8213 15.7143 18.8976 15.7677 18.9957C15.8211 19.0937 15.8386 19.2073 15.8173 19.3169C15.796 19.4264 15.7372 19.5251 15.6509 19.596C15.5647 19.6669 15.4565 19.7055 15.3448 19.7052L15.346 19.7064Z" fill="#1A73E9"/>
<path id="Vector_3" d="M4.72287 14.4555C4.61374 14.4556 4.50786 14.4184 4.42287 14.3499C3.30207 13.4517 2.66967 12.4053 2.54277 11.2401C2.34537 9.4236 3.46917 8.0064 3.51717 7.947C3.56985 7.88176 3.6387 7.83146 3.71687 7.8011C3.79504 7.77075 3.8798 7.76141 3.9627 7.774C4.04561 7.78659 4.12377 7.82068 4.1894 7.87288C4.25503 7.92508 4.30584 7.99356 4.33677 8.0715C4.89207 9.4704 6.09807 10.8519 7.01187 11.7642C7.10198 11.8541 7.15266 11.9762 7.15277 12.1035C7.15289 12.2308 7.10242 12.353 7.01247 12.4431C6.92252 12.5332 6.80046 12.5839 6.67314 12.584C6.54582 12.5841 6.42368 12.5336 6.33357 12.4437C5.53377 11.6451 4.52217 10.5033 3.84357 9.2652C3.69828 9.57478 3.59342 9.90176 3.53157 10.2381C3.30837 11.4981 3.81057 12.6285 5.02407 13.6008C5.1017 13.663 5.15811 13.7477 5.1855 13.8433C5.21289 13.9389 5.20992 14.0406 5.17698 14.1345C5.14404 14.2283 5.08278 14.3096 5.00164 14.3671C4.92051 14.4246 4.82352 14.4555 4.72407 14.4555H4.72287Z" fill="#1A73E9"/>
<path id="Vector_4" d="M21.0088 16.7034C20.8942 16.7035 20.7833 16.6625 20.6962 16.5879L15.5032 12.1305C15.4545 12.0898 15.4143 12.0397 15.385 11.9833C15.3557 11.9269 15.3379 11.8652 15.3327 11.8018C15.3274 11.7385 15.3348 11.6747 15.3544 11.6143C15.374 11.5538 15.4054 11.4978 15.4468 11.4496C15.4882 11.4014 15.5388 11.3618 15.5956 11.3333C15.6524 11.3048 15.7143 11.2878 15.7777 11.2834C15.8411 11.279 15.9048 11.2872 15.965 11.3076C16.0252 11.328 16.0807 11.3601 16.1284 11.4021L20.9317 15.5247C21.2502 15.0604 21.4833 14.543 21.6199 13.9968L17.464 10.4292C17.4162 10.3881 17.3769 10.3381 17.3485 10.2818C17.32 10.2256 17.3029 10.1643 17.2981 10.1014C17.2933 10.0385 17.301 9.97535 17.3206 9.91545C17.3403 9.85554 17.3715 9.80009 17.4126 9.75227C17.4537 9.70444 17.5037 9.66517 17.56 9.6367C17.6162 9.60823 17.6775 9.59112 17.7404 9.58634C17.8033 9.58156 17.8664 9.58921 17.9264 9.60886C17.9863 9.6285 18.0417 9.65975 18.0895 9.70082L22.4614 13.4541C22.525 13.5087 22.5732 13.5789 22.6012 13.6579C22.6292 13.7368 22.636 13.8217 22.621 13.9041C22.4515 14.8341 22.0225 15.7404 21.3808 16.5267C21.3403 16.5764 21.2902 16.6174 21.2335 16.6474C21.1768 16.6774 21.1147 16.6957 21.0508 16.7013C21.037 16.7028 21.0229 16.7034 21.0088 16.7034Z" fill="#1A73E9"/>
</g>
</svg>
