<svg width="25" height="25" viewBox="0 0 25 25" fill="none" xmlns="http://www.w3.org/2000/svg">
<g id="ic:sharp-apple">
<path id="Vector" d="M17.55 20.78C16.57 21.73 15.5 21.58 14.47 21.13C13.38 20.67 12.38 20.65 11.23 21.13C9.79 21.75 9.03 21.57 8.17 20.78C3.29 15.75 4.01 8.09 9.55 7.81C10.9 7.88 11.84 8.55 12.63 8.61C13.81 8.37 14.94 7.68 16.2 7.77C17.71 7.89 18.85 8.49 19.6 9.57C16.48 11.44 17.22 15.55 20.08 16.7C19.51 18.2 18.77 19.69 17.54 20.79L17.55 20.78ZM12.53 7.75C12.38 5.52 14.19 3.68 16.27 3.5C16.56 6.08 13.93 8 12.53 7.75Z" fill="white"/>
</g>
</svg>
