<svg width="30" height="30" viewBox="0 0 30 30" fill="none" xmlns="http://www.w3.org/2000/svg">
<g id="fi_9660407">
<path id="Vector" d="M18.7282 27.48H6.78817C6.15646 27.4793 5.55082 27.2281 5.1041 26.7814C4.65739 26.3348 4.40607 25.7292 4.40527 25.0974V12.1089C4.41013 11.1773 4.77772 10.2841 5.43007 9.61895L8.81527 6.12725C8.86 6.08113 8.91353 6.04447 8.97269 6.01942C9.03185 5.99438 9.09543 5.98146 9.15967 5.98145H16.3558C16.4201 5.98142 16.4837 5.99432 16.5429 6.01937C16.6021 6.04441 16.6557 6.0811 16.7005 6.12725L20.0866 9.61954C20.7385 10.284 21.1059 11.1763 21.1111 12.1071V19.2861C21.1111 19.4134 21.0605 19.5355 20.9705 19.6256C20.8805 19.7156 20.7584 19.7661 20.6311 19.7661C20.5038 19.7661 20.3817 19.7156 20.2917 19.6256C20.2016 19.5355 20.1511 19.4134 20.1511 19.2861V12.1089C20.1459 11.4271 19.8755 10.7739 19.3972 10.2879L16.1527 6.94145H9.36307L6.11947 10.2876C5.64095 10.7744 5.37058 11.4282 5.36557 12.1107V25.0971C5.36597 25.4742 5.51585 25.8357 5.78235 26.1024C6.04885 26.3692 6.41023 26.5193 6.78727 26.52H18.7273C18.8546 26.52 18.9767 26.5706 19.0667 26.6606C19.1567 26.7507 19.2073 26.8727 19.2073 27C19.2073 27.1273 19.1567 27.2494 19.0667 27.3395C18.9767 27.4295 18.8546 27.48 18.7273 27.48H18.7282Z" fill="#1A73E9"/>
<path id="Vector_2" d="M20.6314 24.1165C20.5041 24.1165 20.382 24.0659 20.292 23.9759C20.2019 23.8859 20.1514 23.7638 20.1514 23.6365V23.6128C20.1514 23.4855 20.2019 23.3634 20.292 23.2734C20.382 23.1834 20.5041 23.1328 20.6314 23.1328C20.7587 23.1328 20.8808 23.1834 20.9708 23.2734C21.0608 23.3634 21.1114 23.4855 21.1114 23.6128V23.6365C21.1114 23.7638 21.0608 23.8859 20.9708 23.9759C20.8808 24.0659 20.7587 24.1165 20.6314 24.1165Z" fill="#1A73E9"/>
<path id="Vector_3" d="M20.6319 24.1163H18.354C18.2267 24.1163 18.1046 24.0657 18.0146 23.9757C17.9246 23.8856 17.874 23.7636 17.874 23.6363C17.874 23.5089 17.9246 23.3869 18.0146 23.2968C18.1046 23.2068 18.2267 23.1562 18.354 23.1562H20.6319C20.7592 23.1562 20.8813 23.2068 20.9713 23.2968C21.0614 23.3869 21.1119 23.5089 21.1119 23.6363C21.1119 23.7636 21.0614 23.8856 20.9713 23.9757C20.8813 24.0657 20.7592 24.1163 20.6319 24.1163Z" fill="#1A73E9"/>
<path id="Vector_4" d="M16.5151 24.1163H4.88527C4.75797 24.1163 4.63588 24.0657 4.54586 23.9757C4.45584 23.8856 4.40527 23.7636 4.40527 23.6363C4.40527 23.5089 4.45584 23.3869 4.54586 23.2968C4.63588 23.2068 4.75797 23.1562 4.88527 23.1562H16.5151C16.6424 23.1562 16.7645 23.2068 16.8545 23.2968C16.9445 23.3869 16.9951 23.5089 16.9951 23.6363C16.9951 23.7636 16.9445 23.8856 16.8545 23.9757C16.7645 24.0657 16.6424 24.1163 16.5151 24.1163Z" fill="#1A73E9"/>
<path id="Vector_5" d="M20.632 12.9473H4.88527C4.75797 12.9473 4.63588 12.8967 4.54586 12.8067C4.45584 12.7167 4.40527 12.5946 4.40527 12.4673C4.40527 12.34 4.45584 12.2179 4.54586 12.1279C4.63588 12.0379 4.75797 11.9873 4.88527 11.9873H20.632C20.7593 11.9873 20.8814 12.0379 20.9714 12.1279C21.0614 12.2179 21.112 12.34 21.112 12.4673C21.112 12.5946 21.0614 12.7167 20.9714 12.8067C20.8814 12.8967 20.7593 12.9473 20.632 12.9473Z" fill="#1A73E9"/>
<path id="Vector_6" d="M16.9004 6.94093H8.61743C8.25903 6.94053 7.91542 6.79799 7.662 6.54456C7.40857 6.29113 7.26602 5.94753 7.26562 5.58913V3.87133C7.26602 3.51293 7.40857 3.16933 7.662 2.9159C7.91542 2.66248 8.25903 2.51993 8.61743 2.51953H16.9004C17.2588 2.51993 17.6024 2.66248 17.8559 2.9159C18.1093 3.16933 18.2518 3.51293 18.2522 3.87133V5.58913C18.2518 5.94753 18.1093 6.29113 17.8559 6.54456C17.6024 6.79799 17.2588 6.94053 16.9004 6.94093ZM8.61743 3.47953C8.51354 3.47961 8.41393 3.52092 8.34047 3.59437C8.26701 3.66783 8.22571 3.76744 8.22563 3.87133V5.58913C8.22571 5.69302 8.26701 5.79263 8.34047 5.86609C8.41393 5.93955 8.51354 5.98085 8.61743 5.98093H16.9004C17.0043 5.98077 17.1039 5.93944 17.1773 5.866C17.2507 5.79256 17.2921 5.69299 17.2922 5.58913V3.87133C17.2921 3.76747 17.2507 3.6679 17.1773 3.59446C17.1039 3.52102 17.0043 3.47969 16.9004 3.47953H8.61743Z" fill="#1A73E9"/>
<path id="Vector_7" d="M16.944 25.7855C16.881 25.7856 16.8185 25.7732 16.7603 25.7492C16.7021 25.7251 16.6492 25.6897 16.6047 25.6451C16.4028 25.4432 16.2426 25.2036 16.1333 24.9398C16.024 24.6761 15.9678 24.3934 15.9678 24.1079C15.9678 23.8224 16.024 23.5397 16.1333 23.2759C16.2426 23.0122 16.4028 22.7725 16.6047 22.5707L18.2958 20.8796L19.9866 19.1885C20.3943 18.7808 20.9472 18.5518 21.5238 18.5518C22.1003 18.5518 22.6533 18.7808 23.061 19.1885C23.4687 19.5962 23.6977 20.1491 23.6977 20.7257C23.6977 21.3022 23.4687 21.8552 23.061 22.2629L21.381 23.9429C21.3615 23.9636 21.3402 23.9824 21.3174 23.9993C21.2197 24.0728 21.0977 24.1064 20.9762 24.093C20.8546 24.0796 20.7428 24.0204 20.6634 23.9274C20.5841 23.8344 20.5432 23.7146 20.5492 23.5925C20.5551 23.4704 20.6075 23.3551 20.6955 23.2703L22.3821 21.584C22.6098 21.3564 22.7377 21.0476 22.7377 20.7256C22.7377 20.4037 22.6099 20.0949 22.3822 19.8672C22.1546 19.6396 21.8458 19.5116 21.5239 19.5116C21.2019 19.5116 20.8932 19.6395 20.6655 19.8671L18.9747 21.5585L17.2833 23.2496C17.0556 23.4773 16.9277 23.7861 16.9277 24.108C16.9277 24.43 17.0556 24.7388 17.2833 24.9665C17.3504 25.0336 17.396 25.1191 17.4145 25.2122C17.433 25.3053 17.4235 25.4018 17.3872 25.4894C17.3509 25.5771 17.2894 25.6521 17.2105 25.7048C17.1316 25.7576 17.0389 25.7857 16.944 25.7858V25.7855Z" fill="#1A73E9"/>
<path id="Vector_8" d="M21.0299 24.0953C20.9668 24.0954 20.9044 24.083 20.8461 24.0589C20.7879 24.0347 20.735 23.9993 20.6906 23.9546L18.2948 21.5591C18.2502 21.5144 18.2148 21.4615 18.1907 21.4032C18.1666 21.3449 18.1543 21.2824 18.1543 21.2193C18.1544 21.0919 18.2051 20.9698 18.2952 20.8797C18.3854 20.7897 18.5076 20.7392 18.635 20.7393C18.7624 20.7393 18.8845 20.79 18.9746 20.8802L21.3701 23.2757C21.4373 23.3428 21.4831 23.4285 21.5016 23.5217C21.5202 23.6149 21.5106 23.7115 21.4742 23.7993C21.4377 23.8871 21.3761 23.9621 21.297 24.0148C21.2179 24.0675 21.1249 24.0955 21.0299 24.0953Z" fill="#1A73E9"/>
<path id="Vector_9" d="M23.421 27.4797H18.6378C18.0657 27.473 17.5192 27.241 17.117 26.8341C16.7148 26.4271 16.4893 25.878 16.4893 25.3058C16.4893 24.7336 16.7148 24.1845 17.117 23.7775C17.5192 23.3706 18.0657 23.1386 18.6378 23.1318H23.421C23.9932 23.1386 24.5396 23.3706 24.9418 23.7775C25.344 24.1845 25.5696 24.7336 25.5696 25.3058C25.5696 25.878 25.344 26.4271 24.9418 26.8341C24.5396 27.241 23.9932 27.473 23.421 27.4797ZM18.6378 24.0918C18.3192 24.0968 18.0153 24.2269 17.7917 24.4541C17.5681 24.6812 17.4428 24.9871 17.4428 25.3058C17.4428 25.6245 17.5681 25.9304 17.7917 26.1575C18.0153 26.3846 18.3192 26.5147 18.6378 26.5197H23.421C23.7397 26.5147 24.0436 26.3846 24.2672 26.1575C24.4907 25.9304 24.616 25.6245 24.616 25.3058C24.616 24.9871 24.4907 24.6812 24.2672 24.4541C24.0436 24.2269 23.7397 24.0968 23.421 24.0918H18.6378Z" fill="#1A73E9"/>
<path id="Vector_10" d="M21.0298 27.4797C20.9025 27.4797 20.7804 27.4292 20.6904 27.3391C20.6004 27.2491 20.5498 27.127 20.5498 26.9997V23.6118C20.5498 23.4845 20.6004 23.3624 20.6904 23.2724C20.7804 23.1824 20.9025 23.1318 21.0298 23.1318C21.1571 23.1318 21.2792 23.1824 21.3692 23.2724C21.4592 23.3624 21.5098 23.4845 21.5098 23.6118V26.9997C21.5098 27.127 21.4592 27.2491 21.3692 27.3391C21.2792 27.4292 21.1571 27.4797 21.0298 27.4797Z" fill="#1A73E9"/>
<path id="Vector_11" d="M13.8272 21.9425H11.6903C11.563 21.9425 11.4409 21.8919 11.3509 21.8019C11.2608 21.7119 11.2103 21.5898 11.2103 21.4625V19.6004H9.34816C9.22086 19.6004 9.09877 19.5498 9.00875 19.4598C8.91874 19.3698 8.86816 19.2477 8.86816 19.1204V16.9832C8.86816 16.8559 8.91874 16.7338 9.00875 16.6437C9.09877 16.5537 9.22086 16.5032 9.34816 16.5032H11.2103V14.6402C11.2103 14.5129 11.2608 14.3908 11.3509 14.3007C11.4409 14.2107 11.563 14.1602 11.6903 14.1602H13.8272C13.9545 14.1602 14.0766 14.2107 14.1666 14.3007C14.2566 14.3908 14.3072 14.5129 14.3072 14.6402V16.5032H16.1705C16.2978 16.5032 16.4199 16.5537 16.5099 16.6437C16.5999 16.7338 16.6505 16.8559 16.6505 16.9832V19.1204C16.6505 19.2477 16.5999 19.3698 16.5099 19.4598C16.4199 19.5498 16.2978 19.6004 16.1705 19.6004H14.3072V21.4625C14.3072 21.5898 14.2566 21.7119 14.1666 21.8019C14.0766 21.8919 13.9545 21.9425 13.8272 21.9425ZM12.1703 20.9825H13.3472V19.1204C13.3472 18.9931 13.3977 18.871 13.4878 18.7809C13.5778 18.6909 13.6999 18.6404 13.8272 18.6404H15.6905V17.4632H13.8272C13.6999 17.4632 13.5778 17.4126 13.4878 17.3226C13.3977 17.2325 13.3472 17.1105 13.3472 16.9832V15.1202H12.1703V16.9832C12.1703 17.1105 12.1197 17.2325 12.0297 17.3226C11.9397 17.4126 11.8176 17.4632 11.6903 17.4632H9.82816V18.6404H11.6903C11.8176 18.6404 11.9397 18.6909 12.0297 18.7809C12.1197 18.871 12.1703 18.9931 12.1703 19.1204V20.9825Z" fill="#1A73E9"/>
</g>
</svg>
