<svg width="16" height="17" viewBox="0 0 16 17" fill="none" xmlns="http://www.w3.org/2000/svg">
<g id="ep:arrow-up-bold">
<path id="Vector" d="M10.7066 14.8635C10.894 14.6759 10.9993 14.4216 10.9993 14.1565C10.9993 13.8913 10.894 13.637 10.7066 13.4495L5.75656 8.49946L10.7066 3.54946C10.8887 3.36086 10.9895 3.10826 10.9872 2.84606C10.985 2.58387 10.8798 2.33305 10.6944 2.14764C10.509 1.96224 10.2582 1.85707 9.99596 1.85479C9.73376 1.85251 9.48116 1.95331 9.29256 2.13546L3.63556 7.79246C3.44809 7.97999 3.34277 8.2343 3.34277 8.49946C3.34277 8.76463 3.44809 9.01894 3.63556 9.20646L9.29256 14.8635C9.48009 15.0509 9.7344 15.1562 9.99956 15.1562C10.2647 15.1562 10.519 15.0509 10.7066 14.8635Z" fill="#101114"/>
</g>
</svg>
