<svg width="30" height="30" viewBox="0 0 30 30" fill="none" xmlns="http://www.w3.org/2000/svg">
<g id="fi_9844480">
<path id="Vector" d="M17.266 6.64405C17.145 6.64413 17.0284 6.59848 16.9396 6.51625C15.7365 5.39806 14.4267 4.4004 13.0291 3.53755C12.9382 3.48424 12.8674 3.4025 12.8276 3.30496C12.7878 3.20741 12.7812 3.09948 12.8088 2.9978C12.8364 2.89612 12.8967 2.80635 12.9803 2.74233C13.064 2.67831 13.1664 2.6436 13.2718 2.64355C13.3604 2.64361 13.4474 2.66822 13.5229 2.71465C14.784 3.49133 15.9762 4.37456 17.0866 5.35465C17.2966 4.63465 17.2573 3.83035 17.2033 3.35395C17.1962 3.29131 17.2015 3.22789 17.2189 3.1673C17.2364 3.10672 17.2655 3.05016 17.3048 3.00085C17.3841 2.90127 17.4998 2.83728 17.6263 2.82295C17.7528 2.80863 17.8798 2.84515 17.9794 2.92448C18.079 3.00381 18.143 3.11945 18.1573 3.24595C18.2395 3.97135 18.2869 5.34595 17.6824 6.40165C17.6468 6.46436 17.5974 6.51823 17.5381 6.55926C17.4788 6.60029 17.411 6.62743 17.3398 6.63865C17.3154 6.64229 17.2907 6.6441 17.266 6.64405Z" fill="#CCD1D6"/>
<path id="Vector_2" d="M26.9818 14.818C26.8902 14.8181 26.8005 14.7919 26.7235 14.7424C26.3848 14.5258 26.047 14.329 25.7194 14.1577C24.4648 13.5013 23.3761 13.2166 22.4833 13.3123C22.3883 13.3224 22.2925 13.304 22.208 13.2594C22.1236 13.2148 22.0544 13.146 22.0093 13.0618C21.6307 12.3559 21.2131 11.6608 20.7685 10.996C20.732 10.9415 20.7072 10.8802 20.6954 10.8157C20.6835 10.7512 20.6851 10.685 20.6998 10.6211C20.7146 10.5573 20.7423 10.4971 20.7812 10.4444C20.82 10.3916 20.8693 10.3474 20.926 10.3144C22.5211 9.38441 23.9956 8.78771 25.3093 8.53781C25.3712 8.52599 25.4349 8.52648 25.4966 8.53926C25.5583 8.55205 25.617 8.57686 25.6691 8.6123C25.7213 8.64773 25.7659 8.69309 25.8005 8.74579C25.8352 8.79848 25.8591 8.85748 25.8709 8.91941C25.8827 8.98134 25.8822 9.04499 25.8694 9.10673C25.8566 9.16847 25.8318 9.22709 25.7964 9.27924C25.7609 9.33139 25.7156 9.37605 25.6629 9.41067C25.6102 9.44529 25.5512 9.46919 25.4893 9.48101C24.4021 9.68771 23.1793 10.1629 21.85 10.8946C22.15 11.365 22.438 11.8474 22.7077 12.3346C23.7187 12.3073 24.8797 12.6346 26.1652 13.3054C26.5174 13.4899 26.8795 13.7008 27.2413 13.9321C27.3288 13.988 27.3957 14.0708 27.4322 14.1681C27.4686 14.2653 27.4725 14.3717 27.4434 14.4714C27.4142 14.571 27.3535 14.6585 27.2704 14.7207C27.1873 14.783 27.0862 14.8166 26.9824 14.8165L26.9818 14.818Z" fill="#CCD1D6"/>
<path id="Vector_3" d="M18.0661 27.0845C17.9882 27.0846 17.9114 27.0656 17.8425 27.0294C17.7736 26.9931 17.7145 26.9406 17.6703 26.8764C17.6262 26.8122 17.5984 26.7382 17.5893 26.6608C17.5801 26.5835 17.5899 26.505 17.6179 26.4323C17.8672 25.7837 18.1045 24.9923 18.3241 24.083C18.6163 22.8692 18.7765 21.8609 18.7975 21.7268L18.7999 21.7073C19.2034 18.5048 20.0443 16.7042 20.6785 15.758C20.8071 15.5645 20.9474 15.379 21.0985 15.2024C21.1515 15.141 21.2193 15.094 21.2955 15.0659C21.3716 15.0377 21.4537 15.0294 21.5339 15.0416C21.6142 15.0538 21.69 15.0861 21.7544 15.1356C21.8187 15.1851 21.8695 15.2501 21.9019 15.3245C22.9909 17.8226 23.677 20.5604 23.9419 23.4617C23.9491 23.5253 23.9436 23.5896 23.9256 23.651C23.9077 23.7124 23.8776 23.7695 23.8372 23.8191C23.7969 23.8687 23.747 23.9098 23.6905 23.9398C23.6341 23.9699 23.5722 23.9883 23.5085 23.9941C23.4448 23.9999 23.3806 23.9929 23.3196 23.9736C23.2587 23.9542 23.2022 23.9229 23.1536 23.8814C23.1049 23.8399 23.065 23.7891 23.0362 23.7319C23.0075 23.6748 22.9904 23.6125 22.9861 23.5487C22.7584 21.0512 22.2079 18.6818 21.3472 16.4921C20.7904 17.3999 20.1049 19.0298 19.7521 21.8294L19.7488 21.8567L19.747 21.8681C19.729 21.9848 19.5628 23.0402 19.2571 24.308C19.0282 25.2587 18.7771 26.0891 18.5143 26.7764C18.4795 26.8671 18.4181 26.9451 18.338 27.0001C18.258 27.0551 18.1632 27.0845 18.0661 27.0845Z" fill="#CCD1D6"/>
<path id="Vector_4" d="M5.69009 23.0518C5.59973 23.0516 5.51126 23.026 5.43485 22.9777C5.35843 22.9295 5.29718 22.8607 5.25813 22.7792C5.21908 22.6978 5.20382 22.6069 5.21411 22.5171C5.2244 22.4274 5.25982 22.3423 5.31629 22.2718C5.87999 21.5695 7.40999 19.7044 9.43049 17.5531C12.3123 14.4844 15.0618 12.0079 17.61 10.1842C17.4 9.9319 17.1801 9.6808 16.9551 9.4342C16.759 9.51495 16.5587 9.58505 16.3551 9.6442C15.2751 9.9565 13.9752 10.0063 12.4887 9.7924C11.3447 9.696 10.196 9.66645 9.04859 9.7039C6.91559 9.7774 5.24519 10.0954 4.21859 10.6237C4.10513 10.6819 3.97321 10.6926 3.85186 10.6535C3.7305 10.6144 3.62965 10.5287 3.57149 10.4152C3.51333 10.3017 3.50262 10.1698 3.54172 10.0485C3.58082 9.92712 3.66653 9.82627 3.77999 9.7681C4.93199 9.1756 6.74279 8.821 9.01649 8.7427C10.2089 8.70378 11.4025 8.73493 12.5913 8.836L12.615 8.839C13.9704 9.0349 15.1392 8.995 16.089 8.719C16.3542 8.64329 16.6121 8.54441 16.86 8.4235C16.9523 8.37798 17.0568 8.36335 17.1581 8.38177C17.2594 8.40019 17.3521 8.45069 17.4225 8.5258C17.8041 8.9329 18.1725 9.3526 18.5151 9.7735C18.5709 9.8419 18.6266 9.911 18.6822 9.9808C18.7231 10.0322 18.7531 10.0915 18.7702 10.1549C18.7873 10.2184 18.7912 10.2847 18.7817 10.3497C18.7721 10.4148 18.7493 10.4771 18.7146 10.533C18.68 10.5888 18.6342 10.637 18.5802 10.6744C15.9702 12.4843 13.1256 15.0196 10.1292 18.2101C8.13149 20.3374 6.61919 22.1794 6.06359 22.8724C6.01869 22.9283 5.96183 22.9734 5.89719 23.0045C5.83256 23.0355 5.76179 23.0517 5.69009 23.0518Z" fill="#CCD1D6"/>
<path id="Vector_5" d="M15.764 27.4561C15.6777 27.456 15.593 27.4327 15.5189 27.3885C15.4447 27.3443 15.3839 27.281 15.3427 27.2051C15.3015 27.1293 15.2816 27.0437 15.2849 26.9575C15.2883 26.8713 15.3148 26.7875 15.3617 26.7151C16.0523 25.6498 16.6691 22.9228 16.8965 21.4498C17.4596 17.0071 18.8228 14.7412 19.9682 13.5949C19.7603 13.2271 19.5413 12.8635 19.3133 12.5077C13.6748 16.5373 8.42151 22.9912 7.40571 24.2698C7.32654 24.3695 7.21101 24.4337 7.08454 24.4482C6.95807 24.4627 6.831 24.4264 6.73131 24.3472C6.63161 24.268 6.56745 24.1525 6.55294 24.026C6.53842 23.8996 6.57474 23.7725 6.65391 23.6728C7.70961 22.345 13.2695 15.5152 19.1696 11.4349C19.2219 11.3987 19.2809 11.3733 19.3431 11.3601C19.4053 11.3469 19.4696 11.3462 19.5321 11.358C19.5946 11.3698 19.6541 11.394 19.7072 11.429C19.7603 11.464 19.8059 11.5093 19.8413 11.5621C20.2517 12.1738 20.6381 12.8122 20.9906 13.4599C21.0427 13.5557 21.0606 13.6663 21.0414 13.7736C21.0222 13.8809 20.967 13.9785 20.885 14.0503C20.0096 14.8174 18.4496 16.8151 17.8496 21.5767C17.8493 21.581 17.8487 21.5854 17.8478 21.5896C17.8418 21.6295 17.2178 25.6186 16.1678 27.2371C16.1242 27.3045 16.0644 27.3598 15.9938 27.3981C15.9233 27.4363 15.8443 27.4563 15.764 27.4561Z" fill="#CCD1D6"/>
<path id="Vector_6" d="M25.2408 21.7357C25.1269 21.7356 25.0167 21.6949 24.9299 21.621C24.8432 21.5471 24.7856 21.4447 24.7674 21.3322C24.4074 19.1023 23.7921 16.9663 22.9374 14.983C22.9029 14.9025 22.8909 14.8141 22.903 14.7274C22.9151 14.6406 22.9506 14.5588 23.0059 14.4908C23.0611 14.4229 23.1339 14.3713 23.2163 14.3417C23.2987 14.3121 23.3877 14.3056 23.4735 14.323C24.0045 14.4307 24.6105 14.6614 25.2735 15.0088C25.9427 15.3648 26.5817 15.7749 27.1839 16.2352C27.2849 16.3127 27.3509 16.4272 27.3675 16.5534C27.3841 16.6796 27.3498 16.8073 27.2723 16.9082C27.1947 17.0092 27.0803 17.0752 26.9541 17.0918C26.8278 17.1084 26.7002 17.0741 26.5992 16.9966C26.0412 16.57 25.4492 16.1897 24.8292 15.8596C24.6165 15.7483 24.4092 15.6496 24.2109 15.5659C24.9055 17.38 25.4097 19.2614 25.7154 21.1798C25.7255 21.242 25.7232 21.3057 25.7087 21.367C25.6941 21.4284 25.6677 21.4863 25.6307 21.5374C25.5938 21.5885 25.5472 21.6319 25.4935 21.665C25.4399 21.6981 25.3802 21.7203 25.3179 21.7303C25.2924 21.734 25.2666 21.7358 25.2408 21.7357Z" fill="#CCD1D6"/>
<path id="Vector_7" d="M20.0352 9.64788C19.9623 9.64792 19.8905 9.63137 19.825 9.59951C19.7595 9.56765 19.7021 9.52131 19.6572 9.46398C19.5492 9.32658 19.4508 9.20328 19.3572 9.08748C19.0272 8.68188 18.6705 8.27418 18.3 7.87518C18.2238 7.79313 18.1788 7.68705 18.1726 7.5753C18.1664 7.46355 18.1995 7.35315 18.2661 7.26318C18.8724 6.44298 19.1841 5.32038 19.1661 4.01688C19.1661 3.99168 19.1661 3.96768 19.1661 3.94368C19.163 3.81638 19.2107 3.69309 19.2986 3.60093C19.3865 3.50878 19.5074 3.45531 19.6347 3.45228C19.762 3.44926 19.8853 3.49693 19.9774 3.58481C20.0696 3.67269 20.123 3.79358 20.1261 3.92088C20.1261 3.94908 20.1267 3.97728 20.1279 4.00548C20.145 5.35548 19.8468 6.55728 19.2618 7.50348C19.5537 7.82688 19.8348 8.15418 20.1018 8.47998L20.1543 8.54448C21.5358 7.75638 22.86 7.18758 24.09 6.85188C24.2128 6.81839 24.3439 6.83506 24.4545 6.89824C24.565 6.96143 24.646 7.06594 24.6795 7.18878C24.713 7.31163 24.6963 7.44276 24.6331 7.55331C24.5699 7.66386 24.4654 7.74479 24.3426 7.77828C23.0874 8.12028 21.72 8.72688 20.28 9.58068C20.2059 9.62465 20.1213 9.64786 20.0352 9.64788Z" fill="#CCD1D6"/>
<path id="Vector_8" d="M5.48039 8.17303C5.36069 8.17312 5.24527 8.12849 5.15677 8.04788C5.06827 7.96727 5.01309 7.8565 5.00205 7.73731C4.991 7.61812 5.0249 7.4991 5.09707 7.4036C5.16925 7.3081 5.27451 7.24302 5.39219 7.22113C6.42839 7.00183 7.63409 6.86803 8.97599 6.82303C10.2549 6.78045 11.5352 6.81602 12.8097 6.92953H12.8172L12.8598 6.93463L12.8724 6.93643C13.3869 7.01656 13.9075 7.05139 14.4282 7.04053C12.4497 5.42953 10.7565 4.58353 10.2375 4.34263C10.1221 4.2891 10.0327 4.19196 9.98885 4.07254C9.94503 3.95312 9.9504 3.82118 10.0038 3.70573L10.0095 3.69343C10.063 3.5779 10.1601 3.48834 10.2796 3.44446C10.3991 3.40058 10.5312 3.40596 10.6467 3.45943C10.6825 3.47586 10.716 3.49672 10.7466 3.52153C11.4831 3.87283 13.5897 4.97203 15.8766 7.01563C15.9415 7.07364 15.9895 7.14823 16.0153 7.2314C16.0411 7.31457 16.0438 7.40319 16.023 7.48778C16.0023 7.57236 15.959 7.64971 15.8977 7.71155C15.8364 7.77339 15.7594 7.81739 15.675 7.83883C14.8836 8.03953 13.8954 8.05573 12.7377 7.88653L12.7056 7.88263C11.4762 7.77427 10.2413 7.7408 9.00779 7.78242C7.71779 7.82562 6.56339 7.95343 5.57969 8.16253C5.54704 8.16942 5.51377 8.17294 5.48039 8.17303Z" fill="#CCD1D6"/>
<path id="Vector_9" d="M14.9995 27.4795C13.0717 27.485 11.1693 27.0393 9.44445 26.1781C7.77982 25.3456 6.32026 24.1547 5.17065 22.6909C3.69401 20.8025 2.79196 18.529 2.57216 16.1419C2.35235 13.7547 2.82409 11.3548 3.93105 9.22844C3.93675 9.21704 3.94305 9.20624 3.94965 9.19574C5.00651 7.1802 6.59503 5.49248 8.54292 4.3156C10.4908 3.13871 12.7237 2.51757 14.9995 2.51954C16.8398 2.51781 18.6576 2.924 20.3222 3.7089C21.9867 4.4938 23.4565 5.63788 24.6259 7.05884C26.4742 9.29191 27.4836 12.1008 27.4795 14.9995C27.4795 15.1195 27.4777 15.2395 27.4744 15.3595C27.3869 18.4398 26.1623 21.3787 24.0368 23.6099C21.9112 25.841 19.035 27.2064 15.9625 27.4429C15.6535 27.4672 15.3295 27.4795 14.9995 27.4795ZM4.76535 9.70484C3.92028 11.3418 3.4794 13.1573 3.47955 14.9995C3.47955 17.6023 4.32555 20.0569 5.92605 22.0987C8.12955 24.9082 11.4349 26.5195 14.9995 26.5195C15.3043 26.5195 15.6034 26.5081 15.8884 26.4859C18.9391 26.2522 21.7228 24.8431 23.7271 22.5181C25.4524 20.5134 26.4366 17.9769 26.515 15.3331C26.518 15.2227 26.5195 15.1105 26.5195 14.9995C26.5185 13.1829 26.088 11.3922 25.2633 9.77359C24.4386 8.15493 23.2431 6.75411 21.7741 5.68536C20.3051 4.61661 18.6043 3.9102 16.8104 3.62373C15.0164 3.33726 13.1802 3.47884 11.4514 4.03694C8.60145 4.95764 6.17145 7.01174 4.78365 9.67274C4.77765 9.68384 4.77165 9.69464 4.76535 9.70484Z" fill="#CCD1D6"/>
</g>
</svg>
