<svg width="30" height="30" viewBox="0 0 30 30" fill="none" xmlns="http://www.w3.org/2000/svg">
<g id="fi_11268840">
<path id="Vector" d="M14.9995 23.8673C14.8722 23.8673 14.7501 23.8167 14.6601 23.7267C14.5701 23.6367 14.5195 23.5146 14.5195 23.3873V9.46728C14.5196 9.35326 14.5602 9.24298 14.6341 9.15618C14.6641 9.11928 15.421 8.24418 17.0236 7.44618C17.9518 6.98328 18.9802 6.63618 20.0806 6.41778C21.4465 6.14508 22.9279 6.06768 24.4834 6.18738C24.604 6.19668 24.7166 6.25112 24.7987 6.33983C24.8809 6.42854 24.9265 6.54498 24.9265 6.66588V20.9159C24.9265 21.0432 24.876 21.1653 24.7859 21.2553C24.6959 21.3453 24.5738 21.3959 24.4465 21.3959H24.3178C22.1638 21.3959 20.2576 21.7196 18.1363 22.4459C16.993 22.8374 16.0261 23.2898 15.2626 23.7899C15.1843 23.8407 15.0929 23.8676 14.9995 23.8673ZM15.4795 9.65958V22.544C16.1608 22.175 16.9462 21.8375 17.8255 21.5366C19.9354 20.8142 21.8455 20.471 23.9665 20.4374V7.11528C18.6706 6.83958 16.039 9.10578 15.4795 9.65958Z" fill="#1A73E9"/>
<path id="Vector_2" d="M26.9995 23.8674H14.9995C14.8722 23.8674 14.7501 23.8168 14.6601 23.7268C14.5701 23.6368 14.5195 23.5147 14.5195 23.3874C14.5195 23.2601 14.5701 23.138 14.6601 23.048C14.7501 22.958 14.8722 22.9074 14.9995 22.9074H26.5195V9.01469H24.4465C24.3192 9.01469 24.1971 8.96412 24.1071 8.8741C24.0171 8.78408 23.9665 8.66199 23.9665 8.53469C23.9665 8.40738 24.0171 8.28529 24.1071 8.19528C24.1971 8.10526 24.3192 8.05469 24.4465 8.05469H26.9995C27.1268 8.05469 27.2489 8.10526 27.3389 8.19528C27.429 8.28529 27.4795 8.40738 27.4795 8.53469V23.3874C27.4795 23.5147 27.429 23.6368 27.3389 23.7268C27.2489 23.8168 27.1268 23.8674 26.9995 23.8674Z" fill="#1A73E9"/>
<path id="Vector_3" d="M17.2226 11.4C17.1117 11.4001 17.0041 11.3618 16.9183 11.2916C16.8324 11.2213 16.7735 11.1235 16.7516 11.0147C16.7297 10.906 16.7462 10.793 16.7982 10.695C16.8502 10.597 16.9346 10.5201 17.0369 10.4772C19.4816 9.45154 21.3269 9.24724 22.2077 9.21514C22.335 9.21068 22.4589 9.25698 22.552 9.34385C22.6452 9.43071 22.7001 9.55103 22.7045 9.67834C22.709 9.80564 22.6627 9.9295 22.5758 10.0227C22.4889 10.1158 22.3686 10.1707 22.2413 10.1751C21.4253 10.2051 19.712 10.3965 17.408 11.3631C17.3492 11.3875 17.2862 11.4001 17.2226 11.4Z" fill="#1A73E9"/>
<path id="Vector_4" d="M17.2229 13.9701C17.1121 13.97 17.0047 13.9316 16.919 13.8614C16.8333 13.7911 16.7745 13.6934 16.7526 13.5848C16.7307 13.4761 16.7471 13.3633 16.799 13.2654C16.8509 13.1674 16.935 13.0905 17.0372 13.0476C19.4819 12.0219 21.3272 11.8176 22.208 11.7855C22.3353 11.781 22.4591 11.8273 22.5523 11.9142C22.6455 12.001 22.7003 12.1213 22.7048 12.2487C22.7092 12.376 22.6629 12.4998 22.5761 12.593C22.4892 12.6862 22.3689 12.741 22.2416 12.7455C21.4256 12.7755 19.7123 12.9669 17.4083 13.9335C17.3495 13.9578 17.2865 13.9702 17.2229 13.9701Z" fill="#1A73E9"/>
<path id="Vector_5" d="M17.2232 16.5423C17.1123 16.5423 17.0049 16.504 16.9191 16.4338C16.8334 16.3636 16.7745 16.2658 16.7526 16.1572C16.7307 16.0485 16.7471 15.9357 16.799 15.8377C16.8508 15.7397 16.935 15.6628 17.0372 15.6198C19.3598 14.6454 21.131 14.3955 22.2083 14.3577C22.3356 14.3533 22.4594 14.3996 22.5526 14.4864C22.6458 14.5733 22.7006 14.6936 22.7051 14.8209C22.7095 14.9482 22.6632 15.0721 22.5764 15.1652C22.4895 15.2584 22.3692 15.3133 22.2419 15.3177C21.4259 15.3477 19.7126 15.5391 17.4086 16.5057C17.3498 16.53 17.2868 16.5425 17.2232 16.5423Z" fill="#1A73E9"/>
<path id="Vector_6" d="M17.2229 19.1146C17.1119 19.1147 17.0044 19.0765 16.9184 19.0062C16.8325 18.936 16.7736 18.8382 16.7517 18.7294C16.7297 18.6206 16.7462 18.5076 16.7982 18.4096C16.8502 18.3116 16.9345 18.2346 17.0369 18.1918C19.3595 17.2177 21.1307 16.9678 22.208 16.93C22.271 16.9278 22.3339 16.938 22.393 16.9601C22.4521 16.9822 22.5062 17.0157 22.5523 17.0587C22.5985 17.1017 22.6357 17.1534 22.6618 17.2108C22.688 17.2682 22.7026 17.3301 22.7048 17.3932C22.707 17.4562 22.6968 17.5191 22.6747 17.5781C22.6526 17.6372 22.6191 17.6914 22.5761 17.7375C22.5331 17.7836 22.4814 17.8209 22.424 17.847C22.3666 17.8732 22.3046 17.8878 22.2416 17.89C21.4256 17.92 19.7123 18.1114 17.4083 19.0777C17.3496 19.1022 17.2866 19.1148 17.2229 19.1146Z" fill="#1A73E9"/>
<path id="Vector_7" d="M15.0002 23.8676C14.9068 23.8676 14.8153 23.8403 14.7371 23.789C13.9736 23.2889 13.0067 22.8365 11.8634 22.445C9.74214 21.7187 7.83594 21.395 5.68344 21.395H5.55324C5.42594 21.395 5.30385 21.3445 5.21383 21.2545C5.12381 21.1644 5.07324 21.0423 5.07324 20.915V6.66504C5.07326 6.54414 5.11891 6.4277 5.20105 6.33899C5.2832 6.25028 5.3958 6.19583 5.51634 6.18654C7.07184 6.06654 8.55324 6.14424 9.91914 6.41694C11.0195 6.63654 12.0491 6.98244 12.9761 7.44534C14.5787 8.24394 15.3344 9.11904 15.3656 9.15534C15.4398 9.24245 15.4805 9.35321 15.4802 9.46764V23.3876C15.4802 23.5149 15.4297 23.637 15.3397 23.727C15.2496 23.8171 15.1275 23.8676 15.0002 23.8676ZM6.03324 20.4377C8.15514 20.4713 10.0643 20.8145 12.1742 21.5369C13.0535 21.8369 13.8389 22.1753 14.5202 22.5443V9.65994C14.2706 9.41394 13.6088 8.82624 12.4967 8.27994C11.2202 7.65234 9.08004 6.95814 6.03324 7.11564V20.4377Z" fill="#1A73E9"/>
<path id="Vector_8" d="M14.9995 23.8674H2.99953C2.87223 23.8674 2.75014 23.8168 2.66012 23.7268C2.5701 23.6368 2.51953 23.5147 2.51953 23.3874V8.53469C2.51953 8.40738 2.5701 8.28529 2.66012 8.19528C2.75014 8.10526 2.87223 8.05469 2.99953 8.05469H5.55253C5.67984 8.05469 5.80193 8.10526 5.89194 8.19528C5.98196 8.28529 6.03253 8.40738 6.03253 8.53469C6.03253 8.66199 5.98196 8.78408 5.89194 8.8741C5.80193 8.96412 5.67984 9.01469 5.55253 9.01469H3.47953V22.9074H14.9995C15.1268 22.9074 15.2489 22.958 15.3389 23.048C15.429 23.138 15.4795 23.2601 15.4795 23.3874C15.4795 23.5147 15.429 23.6368 15.3389 23.7268C15.2489 23.8168 15.1268 23.8674 14.9995 23.8674Z" fill="#1A73E9"/>
<path id="Vector_9" d="M12.7771 13.9707C12.7135 13.9706 12.6505 13.958 12.5917 13.9335C10.2877 12.9669 8.57442 12.7743 7.75842 12.7455C7.69538 12.7432 7.6334 12.7286 7.57601 12.7025C7.51861 12.6763 7.46694 12.6391 7.42393 12.593C7.33706 12.4998 7.29076 12.376 7.29522 12.2487C7.29967 12.1213 7.35452 12.001 7.44768 11.9142C7.54085 11.8273 7.66471 11.781 7.79202 11.7855C8.67402 11.8155 10.5181 12.0219 12.9628 13.0476C13.065 13.0905 13.1491 13.1674 13.201 13.2654C13.2529 13.3633 13.2693 13.4761 13.2474 13.5848C13.2255 13.6934 13.1667 13.7911 13.081 13.8614C12.9953 13.9316 12.8879 13.97 12.7771 13.9701V13.9707Z" fill="#1A73E9"/>
<path id="Vector_10" d="M12.7771 11.3997C12.7134 11.3995 12.6504 11.3868 12.5917 11.3622C10.2877 10.3956 8.57442 10.203 7.75842 10.1742C7.69538 10.172 7.6334 10.1574 7.57601 10.1312C7.51861 10.105 7.46694 10.0678 7.42393 10.0217C7.38091 9.97556 7.34741 9.92141 7.32532 9.86233C7.30324 9.80325 7.29301 9.7404 7.29522 9.67736C7.29742 9.61433 7.31202 9.55234 7.33818 9.49495C7.36434 9.43756 7.40155 9.38588 7.44768 9.34287C7.49382 9.29986 7.54797 9.26635 7.60705 9.24427C7.66613 9.22219 7.72898 9.21195 7.79202 9.21416C8.67402 9.24416 10.5181 9.45056 12.9628 10.4763C13.0655 10.5188 13.1503 10.5958 13.2026 10.6939C13.2549 10.792 13.2715 10.9053 13.2496 11.0143C13.2276 11.1233 13.1685 11.2213 13.0824 11.2916C12.9962 11.3619 12.8883 11.4001 12.7771 11.3997Z" fill="#1A73E9"/>
<path id="Vector_11" d="M12.7771 16.5419C12.7135 16.5419 12.6505 16.5292 12.5917 16.5047C10.2877 15.5381 8.57442 15.3455 7.75842 15.3167C7.69538 15.3145 7.6334 15.2999 7.57601 15.2738C7.51861 15.2476 7.46694 15.2104 7.42393 15.1643C7.33706 15.0711 7.29076 14.9472 7.29522 14.8199C7.29967 14.6926 7.35452 14.5723 7.44768 14.4854C7.54085 14.3986 7.66471 14.3523 7.79202 14.3567C8.86932 14.3945 10.6405 14.6444 12.9631 15.6188C13.0653 15.6618 13.1495 15.7388 13.2013 15.8367C13.2532 15.9347 13.2696 16.0476 13.2477 16.1562C13.2257 16.2649 13.1669 16.3626 13.0811 16.4328C12.9954 16.503 12.888 16.5413 12.7771 16.5413V16.5419Z" fill="#1A73E9"/>
<path id="Vector_12" d="M12.7771 19.1142C12.7134 19.1142 12.6504 19.1014 12.5917 19.0767C10.2877 18.1104 8.57442 17.9178 7.75842 17.889C7.69538 17.8868 7.6334 17.8722 7.57601 17.846C7.51861 17.8199 7.46694 17.7827 7.42393 17.7365C7.38091 17.6904 7.34741 17.6363 7.32532 17.5772C7.30324 17.5181 7.29301 17.4552 7.29522 17.3922C7.29742 17.3292 7.31202 17.2672 7.33818 17.2098C7.36434 17.1524 7.40155 17.1007 7.44768 17.0577C7.49382 17.0147 7.54797 16.9812 7.60705 16.9591C7.66613 16.937 7.72898 16.9268 7.79202 16.929C8.86932 16.9668 10.6405 17.2167 12.9631 18.1908C13.0655 18.2336 13.1498 18.3106 13.2019 18.4086C13.2539 18.5067 13.2703 18.6197 13.2484 18.7284C13.2265 18.8372 13.1675 18.935 13.0816 19.0053C12.9957 19.0755 12.8881 19.1138 12.7771 19.1136V19.1142Z" fill="#1A73E9"/>
</g>
</svg>
