<svg width="16" height="16" viewBox="0 0 16 16" fill="none" xmlns="http://www.w3.org/2000/svg">
<g id="ep:arrow-up-bold">
<path id="Vector" d="M14.3635 5.29344C14.1759 5.10597 13.9216 5.00065 13.6565 5.00065C13.3913 5.00065 13.137 5.10597 12.9495 5.29344L7.99946 10.2434L3.04946 5.29344C2.86086 5.11128 2.60826 5.01049 2.34606 5.01277C2.08387 5.01504 1.83305 5.12021 1.64764 5.30562C1.46224 5.49103 1.35707 5.74184 1.35479 6.00404C1.35251 6.26624 1.45331 6.51884 1.63546 6.70744L7.29246 12.3644C7.47999 12.5519 7.7343 12.6572 7.99946 12.6572C8.26463 12.6572 8.51894 12.5519 8.70646 12.3644L14.3635 6.70744C14.5509 6.51991 14.6562 6.2656 14.6562 6.00044C14.6562 5.73528 14.5509 5.48097 14.3635 5.29344Z" fill="black"/>
</g>
</svg>
