<svg width="30" height="30" viewBox="0 0 30 30" fill="none" xmlns="http://www.w3.org/2000/svg">
<path d="M24.1328 8.26798C24.7981 7.88278 24.798 6.92229 24.1327 6.53715L15.501 1.54005C15.1911 1.36063 14.8089 1.36063 14.499 1.54005L5.86725 6.53715C5.20198 6.92229 5.20194 7.88278 5.86718 8.26798L14.4989 13.2661C14.8089 13.4456 15.1911 13.4456 15.5011 13.2661L24.1328 8.26798ZM4.62596 10.4388C3.95929 10.0529 3.125 10.534 3.125 11.3043V21.2984C3.125 21.6553 3.31515 21.9851 3.62397 22.1639L12.249 27.1572C12.9156 27.5432 13.75 27.0621 13.75 26.2918V16.2966C13.75 15.9397 13.5598 15.6099 13.251 15.4311L4.62596 10.4388ZM16.25 26.2906C16.25 27.0609 17.0844 27.5419 17.751 27.156L26.376 22.1626C26.6848 21.9838 26.875 21.654 26.875 21.2972V11.3032C26.875 10.5329 26.0406 10.0518 25.374 10.4378L16.749 15.4311C16.4401 15.6099 16.25 15.9397 16.25 16.2966V26.2906Z" fill="#C7C6CA"/>
</svg>
