<svg width="30" height="30" viewBox="0 0 30 30" fill="none" xmlns="http://www.w3.org/2000/svg">
<g id="fi_9629877">
<path id="Vector" d="M24.3487 20.2272H20.2324C20.1694 20.2273 20.1069 20.2149 20.0486 20.1908C19.9904 20.1667 19.9374 20.1314 19.8928 20.0868L19.4698 19.662H10.5313L10.1068 20.0868C10.0622 20.1314 10.0092 20.1667 9.95097 20.1908C9.89271 20.2149 9.83026 20.2273 9.76721 20.2272H5.65091C5.5236 20.2272 5.40151 20.1767 5.3115 20.0866C5.22148 19.9966 5.17091 19.8745 5.17091 19.7472V14.9961C5.16859 13.7106 5.66301 12.4739 6.55091 11.5443C6.84192 11.239 7.08325 10.89 7.26611 10.5099L8.30501 8.35263C8.51491 7.92061 8.84178 7.55614 9.24848 7.30064C9.65519 7.04513 10.1254 6.90883 10.6057 6.90723H19.3927C19.873 6.90883 20.3432 7.04513 20.7499 7.30064C21.1566 7.55614 21.4835 7.92061 21.6934 8.35263L22.7323 10.5099C22.9152 10.89 23.1565 11.239 23.4475 11.5443C24.3354 12.4739 24.8298 13.7106 24.8275 14.9961V19.7472C24.8275 19.8743 24.7771 19.9962 24.6873 20.0862C24.5976 20.1762 24.4758 20.2269 24.3487 20.2272ZM20.4298 19.2672H23.8687V14.9961C23.8705 13.9571 23.4708 12.9575 22.753 12.2061C22.393 11.8284 22.0943 11.3965 21.868 10.9263L20.8291 8.76903C20.6981 8.49941 20.4941 8.27195 20.2403 8.11248C19.9865 7.95301 19.6931 7.86794 19.3933 7.86693H10.6063C10.3066 7.86794 10.0131 7.95301 9.7593 8.11248C9.50548 8.27195 9.30149 8.49941 9.17051 8.76903L8.13161 10.9263C7.90529 11.3965 7.60666 11.8284 7.24661 12.2061C6.52885 12.9575 6.12912 13.9571 6.13091 14.9961V19.2672H9.56981L9.99431 18.8427C10.0389 18.7981 10.0918 18.7627 10.1501 18.7386C10.2084 18.7144 10.2708 18.702 10.3339 18.702H19.6669C19.73 18.702 19.7924 18.7144 19.8507 18.7386C19.909 18.7627 19.9619 18.7981 20.0065 18.8427L20.4298 19.2672Z" fill="#CCD1D6"/>
<path id="Vector_2" d="M21.9107 13.4884H8.08851C7.99476 13.4882 7.90312 13.4606 7.82489 13.409C7.74666 13.3573 7.68527 13.2839 7.6483 13.1977C7.61132 13.1116 7.60037 13.0165 7.61681 12.9242C7.63325 12.8319 7.67636 12.7465 7.74081 12.6784C8.15 12.2492 8.48933 11.7584 8.74641 11.224L9.78531 9.0664C9.86014 8.91217 9.97672 8.782 10.1218 8.69068C10.2669 8.59937 10.4347 8.55056 10.6061 8.5498H19.3931C19.5645 8.5504 19.7323 8.59908 19.8774 8.69029C20.0225 8.78151 20.1391 8.91161 20.2139 9.06581L21.2525 11.2228C21.5103 11.7572 21.8501 12.2481 22.2596 12.6775C22.3241 12.7456 22.3672 12.831 22.3836 12.9233C22.4 13.0156 22.3891 13.1107 22.3521 13.1968C22.3151 13.283 22.2538 13.3564 22.1755 13.4081C22.0973 13.4597 22.0057 13.4873 21.9119 13.4875L21.9107 13.4884ZM9.09501 12.5284H20.9042C20.7093 12.2461 20.5366 11.949 20.3879 11.6398L19.3625 9.5098H10.637L9.61131 11.6398C9.46263 11.949 9.29 12.2461 9.09501 12.5284Z" fill="#CCD1D6"/>
<path id="Vector_3" d="M19.3828 17.2751C19.0959 17.2736 18.8186 17.1707 18.6002 16.9846C18.3818 16.7984 18.2362 16.5411 18.1893 16.258C18.1423 15.9748 18.1969 15.6842 18.3436 15.4375C18.4902 15.1908 18.7193 15.0039 18.9904 14.9099L21.3403 13.9655L21.3703 13.9544C21.5354 13.9006 21.7101 13.8828 21.8826 13.9021C22.0552 13.9214 22.2216 13.9775 22.3707 14.0664C22.5197 14.1554 22.648 14.2753 22.747 14.418C22.8459 14.5606 22.9131 14.7229 22.9441 14.8937L23.0704 15.5879C23.1007 15.7543 23.0958 15.9252 23.0563 16.0896C23.0167 16.254 22.9433 16.4084 22.8407 16.5429C22.7381 16.6773 22.6086 16.7889 22.4604 16.8704C22.3123 16.952 22.1487 17.0017 21.9802 17.0165L19.4947 17.27H19.486C19.4518 17.2736 19.417 17.2751 19.3828 17.2751ZM21.6805 14.8622L19.336 15.8045C19.3261 15.8084 19.3159 15.812 19.306 15.8153C19.2465 15.8346 19.196 15.8751 19.1643 15.9291C19.1325 15.983 19.1217 16.0468 19.1337 16.1082C19.1457 16.1697 19.1799 16.2246 19.2296 16.2626C19.2794 16.3006 19.3414 16.3191 19.4038 16.3145L21.8875 16.061H21.8962C21.9317 16.058 21.9662 16.0476 21.9974 16.0306C22.0287 16.0135 22.056 15.9901 22.0777 15.9619C22.0995 15.9336 22.115 15.9012 22.1235 15.8666C22.132 15.832 22.1331 15.796 22.1269 15.761L22.0006 15.0653C21.9943 15.0303 21.9808 14.997 21.9609 14.9675C21.941 14.9381 21.9152 14.9131 21.8851 14.8941C21.855 14.8752 21.8213 14.8627 21.7861 14.8575C21.751 14.8523 21.7151 14.8545 21.6808 14.864L21.6805 14.8622Z" fill="#CCD1D6"/>
<path id="Vector_4" d="M10.6175 17.2756C10.5833 17.2756 10.5485 17.2741 10.5137 17.2714H10.505L8.01951 17.0179C7.85099 17.0031 7.68742 16.9533 7.53925 16.8716C7.39109 16.79 7.26159 16.6783 7.15904 16.5438C7.05649 16.4092 6.98314 16.2548 6.94369 16.0903C6.90423 15.9258 6.89954 15.7548 6.92991 15.5884L7.05591 14.8927C7.08693 14.7219 7.15416 14.5597 7.25307 14.417C7.35199 14.2743 7.4803 14.1544 7.62938 14.0655C7.77847 13.9765 7.94487 13.9204 8.11741 13.9011C8.28995 13.8818 8.46463 13.8996 8.62971 13.9534L8.65971 13.9645L11.0099 14.9104C11.2821 15.0037 11.5123 15.1904 11.6598 15.4374C11.8073 15.6844 11.8624 15.9757 11.8155 16.2595C11.7685 16.5434 11.6224 16.8013 11.4032 16.9876C11.184 17.174 10.9058 17.2765 10.6181 17.2771L10.6175 17.2756ZM10.5968 16.3156C10.6593 16.3202 10.7212 16.3017 10.771 16.2637C10.8208 16.2257 10.8549 16.1708 10.8669 16.1093C10.879 16.0479 10.8681 15.9842 10.8363 15.9302C10.8046 15.8762 10.7542 15.8357 10.6946 15.8164C10.6844 15.8131 10.6742 15.8095 10.6646 15.8056L8.32011 14.8633C8.28583 14.8539 8.24997 14.8517 8.21479 14.8569C8.17962 14.862 8.14592 14.8745 8.11583 14.8934C8.08574 14.9124 8.05993 14.9374 8.04004 14.9669C8.02015 14.9963 8.00662 15.0296 8.00031 15.0646L7.87401 15.7603C7.86779 15.7954 7.86896 15.8313 7.87743 15.8659C7.88589 15.9005 7.90148 15.933 7.92318 15.9612C7.94489 15.9894 7.97225 16.0128 8.0035 16.0299C8.03476 16.0469 8.06923 16.0573 8.10471 16.0603H8.11341L10.5968 16.3156Z" fill="#CCD1D6"/>
<path id="Vector_5" d="M22.4792 23.0924C21.8563 23.0915 21.2591 22.8437 20.8187 22.4031C20.3783 21.9626 20.1306 21.3654 20.1299 20.7425V19.7474C20.1299 19.6201 20.1805 19.498 20.2705 19.408C20.3605 19.318 20.4826 19.2674 20.6099 19.2674C20.7372 19.2674 20.8593 19.318 20.9493 19.408C21.0393 19.498 21.0899 19.6201 21.0899 19.7474V20.7425C21.0872 20.9267 21.1211 21.1096 21.1898 21.2806C21.2584 21.4516 21.3603 21.6073 21.4896 21.7385C21.619 21.8697 21.7731 21.9739 21.943 22.0451C22.113 22.1162 22.2954 22.1528 22.4796 22.1528C22.6639 22.1528 22.8463 22.1162 23.0162 22.0451C23.1862 21.9739 23.3403 21.8697 23.4696 21.7385C23.599 21.6073 23.7009 21.4516 23.7695 21.2806C23.8381 21.1096 23.8721 20.9267 23.8694 20.7425V18.5591C23.8694 18.4318 23.92 18.3097 24.01 18.2197C24.1 18.1297 24.2221 18.0791 24.3494 18.0791C24.4767 18.0791 24.5988 18.1297 24.6888 18.2197C24.7788 18.3097 24.8294 18.4318 24.8294 18.5591V20.7425C24.8287 21.3656 24.5808 21.9629 24.1402 22.4034C23.6996 22.844 23.1022 23.0918 22.4792 23.0924Z" fill="#CCD1D6"/>
<path id="Vector_6" d="M7.5205 23.0924C6.89751 23.0917 6.30025 22.8439 5.85976 22.4033C5.41927 21.9628 5.17153 21.3655 5.1709 20.7425V18.5591C5.1709 18.4318 5.22147 18.3097 5.31149 18.2197C5.4015 18.1297 5.52359 18.0791 5.6509 18.0791C5.7782 18.0791 5.90029 18.1297 5.99031 18.2197C6.08033 18.3097 6.1309 18.4318 6.1309 18.5591V20.7425C6.1309 21.111 6.2773 21.4645 6.5379 21.7251C6.7985 21.9857 7.15195 22.1321 7.5205 22.1321C7.88904 22.1321 8.24249 21.9857 8.50309 21.7251C8.76369 21.4645 8.9101 21.111 8.9101 20.7425V19.7474C8.9101 19.6201 8.96067 19.498 9.05069 19.408C9.1407 19.318 9.26279 19.2674 9.3901 19.2674C9.5174 19.2674 9.63949 19.318 9.72951 19.408C9.81953 19.498 9.8701 19.6201 9.8701 19.7474V20.7425C9.86946 21.3655 9.62172 21.9628 9.18123 22.4033C8.74074 22.8439 8.14348 23.0917 7.5205 23.0924Z" fill="#CCD1D6"/>
<path id="Vector_7" d="M16.9732 16.9933H13.0258C12.5881 16.9933 12.2269 16.6357 12.1474 16.1233L12.0421 15.4477C11.9863 15.0877 12.0805 14.7247 12.2944 14.4748C12.3706 14.382 12.4661 14.3071 12.5743 14.2553C12.6826 14.2034 12.8008 14.176 12.9208 14.1748H17.0782C17.1982 14.176 17.3165 14.2034 17.4247 14.2553C17.533 14.3071 17.6285 14.382 17.7046 14.4748C17.9185 14.7247 18.0127 15.0883 17.9569 15.4477L17.8516 16.1233C17.7721 16.6357 17.4109 16.9933 16.9732 16.9933ZM13.1104 16.0333H16.8895C16.8963 16.0149 16.9011 15.9958 16.9039 15.9763L17.0095 15.3001C17.0189 15.2445 17.0138 15.1873 16.9948 15.1342H13.0054C12.986 15.1872 12.9806 15.2444 12.9895 15.3001L13.0945 15.9757C13.0976 15.9954 13.1027 16.0146 13.1095 16.0333H13.1104Z" fill="#CCD1D6"/>
<path id="Vector_8" d="M17.6964 18.3604H12.3042C12.1769 18.3604 12.0548 18.3098 11.9648 18.2198C11.8748 18.1298 11.8242 18.0077 11.8242 17.8804C11.8242 17.7531 11.8748 17.631 11.9648 17.541C12.0548 17.451 12.1769 17.4004 12.3042 17.4004H17.6964C17.8237 17.4004 17.9458 17.451 18.0358 17.541C18.1258 17.631 18.1764 17.7531 18.1764 17.8804C18.1764 18.0077 18.1258 18.1298 18.0358 18.2198C17.9458 18.3098 17.8237 18.3604 17.6964 18.3604Z" fill="#CCD1D6"/>
<path id="Vector_9" d="M25.5511 13.272H23.776C23.6481 13.2712 23.5257 13.2199 23.4354 13.1293C23.3451 13.0386 23.2943 12.916 23.2939 12.7881V9.89309C23.2939 9.76578 23.3445 9.64369 23.4345 9.55368C23.5246 9.46366 23.6466 9.41309 23.7739 9.41309H25.5511C26.0587 9.41941 26.5433 9.62548 26.9 9.98664C27.2567 10.3478 27.4567 10.8349 27.4567 11.3425C27.4567 11.8501 27.2567 12.3373 26.9 12.6984C26.5433 13.0596 26.0587 13.2657 25.5511 13.272ZM24.2539 12.312H25.5511C25.8053 12.3075 26.0475 12.2034 26.2257 12.0221C26.4039 11.8408 26.5037 11.5967 26.5037 11.3425C26.5037 11.0883 26.4039 10.8443 26.2257 10.663C26.0475 10.4817 25.8053 10.3776 25.5511 10.3731H24.2539V12.312Z" fill="#CCD1D6"/>
<path id="Vector_10" d="M6.22459 13.272H4.44949C3.94193 13.2657 3.45731 13.0596 3.10063 12.6984C2.74395 12.3373 2.54395 11.8501 2.54395 11.3425C2.54395 10.8349 2.74395 10.3478 3.10063 9.98664C3.45731 9.62548 3.94193 9.41941 4.44949 9.41309H6.22669C6.35399 9.41309 6.47608 9.46366 6.5661 9.55368C6.65611 9.64369 6.70669 9.76578 6.70669 9.89309V12.7881C6.70637 12.916 6.65554 13.0386 6.56524 13.1293C6.47495 13.2199 6.35251 13.2712 6.22459 13.272ZM4.44949 10.3731C4.19533 10.3776 3.95309 10.4817 3.77493 10.663C3.59677 10.8443 3.49694 11.0883 3.49694 11.3425C3.49694 11.5967 3.59677 11.8408 3.77493 12.0221C3.95309 12.2034 4.19533 12.3075 4.44949 12.312H5.74669V10.3731H4.44949Z" fill="#CCD1D6"/>
</g>
</svg>
