<svg width="20" height="21" viewBox="0 0 20 21" fill="none" xmlns="http://www.w3.org/2000/svg">
<path d="M2.5 10.5H10V11.75H2.5V10.5ZM1.25 7.375H7.5V8.625H1.25V7.375Z" fill="#1A73E9"/>
<path d="M18.6995 10.8788L16.8245 6.50375C16.7763 6.3913 16.6963 6.29546 16.5942 6.22812C16.492 6.16079 16.3724 6.12493 16.2501 6.125H14.3751V4.875C14.3751 4.70924 14.3092 4.55027 14.192 4.43306C14.0748 4.31585 13.9158 4.25 13.7501 4.25H3.75009V5.5H13.1251V13.3475C12.8403 13.5129 12.5911 13.733 12.3918 13.9952C12.1924 14.2573 12.047 14.5564 11.9638 14.875H8.03634C7.88422 14.2858 7.52244 13.7724 7.01883 13.4309C6.51522 13.0894 5.90435 12.9433 5.30071 13.0199C4.69708 13.0966 4.14213 13.3908 3.73989 13.8474C3.33764 14.3039 3.11572 14.8915 3.11572 15.5C3.11572 16.1085 3.33764 16.6961 3.73989 17.1526C4.14213 17.6092 4.69708 17.9034 5.30071 17.9801C5.90435 18.0567 6.51522 17.9106 7.01883 17.5691C7.52244 17.2276 7.88422 16.7142 8.03634 16.125H11.9638C12.0998 16.6614 12.4107 17.1371 12.8474 17.477C13.2842 17.8168 13.8217 18.0013 14.3751 18.0013C14.9284 18.0013 15.466 17.8168 15.9027 17.477C16.3394 17.1371 16.6504 16.6614 16.7863 16.125H18.1251C18.2908 16.125 18.4498 16.0592 18.567 15.9419C18.6842 15.8247 18.7501 15.6658 18.7501 15.5V11.125C18.7501 11.0403 18.7329 10.9565 18.6995 10.8788ZM5.62509 16.75C5.37786 16.75 5.13619 16.6767 4.93062 16.5393C4.72506 16.402 4.56485 16.2068 4.47024 15.9784C4.37563 15.7499 4.35087 15.4986 4.39911 15.2561C4.44734 15.0137 4.56639 14.7909 4.7412 14.6161C4.91602 14.4413 5.13875 14.3222 5.38122 14.274C5.6237 14.2258 5.87503 14.2505 6.10344 14.3451C6.33185 14.4398 6.52707 14.6 6.66442 14.8055C6.80178 15.0111 6.87509 15.2528 6.87509 15.5C6.87476 15.8314 6.74295 16.1492 6.50861 16.3835C6.27426 16.6179 5.95651 16.7497 5.62509 16.75ZM14.3751 7.375H15.8376L17.1776 10.5H14.3751V7.375ZM14.3751 16.75C14.1279 16.75 13.8862 16.6767 13.6806 16.5393C13.4751 16.402 13.3148 16.2068 13.2202 15.9784C13.1256 15.7499 13.1009 15.4986 13.1491 15.2561C13.1973 15.0137 13.3164 14.7909 13.4912 14.6161C13.666 14.4413 13.8887 14.3222 14.1312 14.274C14.3737 14.2258 14.625 14.2505 14.8534 14.3451C15.0819 14.4398 15.2771 14.6 15.4144 14.8055C15.5518 15.0111 15.6251 15.2528 15.6251 15.5C15.6248 15.8314 15.493 16.1492 15.2586 16.3835C15.0243 16.6179 14.7065 16.7497 14.3751 16.75ZM17.5001 14.875H16.7863C16.6487 14.3396 16.3372 13.8651 15.9009 13.5258C15.4645 13.1865 14.9279 13.0015 14.3751 13V11.75H17.5001V14.875Z" fill="#1A73E9"/>
</svg>
