<svg width="30" height="30" viewBox="0 0 30 30" fill="none" xmlns="http://www.w3.org/2000/svg">
<g id="fi_9629893">
<path id="Vector" d="M14.3857 13.4663C14.2907 13.4663 14.1978 13.4382 14.1188 13.3855C14.0398 13.3327 13.9782 13.2577 13.9418 13.17C13.9055 13.0822 13.896 12.9857 13.9145 12.8925C13.9331 12.7993 13.9788 12.7138 14.0461 12.6467L16.6327 10.0604C16.7228 9.97032 16.8451 9.91981 16.9725 9.91992C17.1 9.92003 17.2221 9.97076 17.3122 10.061C17.4022 10.1511 17.4527 10.2734 17.4526 10.4008C17.4525 10.5283 17.4017 10.6504 17.3116 10.7405L14.725 13.3271C14.6347 13.4165 14.5127 13.4666 14.3857 13.4663Z" fill="#CCD1D6"/>
<path id="Vector_2" d="M16.4215 15.5016C16.3265 15.5016 16.2337 15.4734 16.1547 15.4207C16.0758 15.3679 16.0142 15.2929 15.9779 15.2052C15.9416 15.1174 15.9321 15.0209 15.9507 14.9278C15.9692 14.8346 16.015 14.7491 16.0822 14.682L18.6685 12.0957C18.7131 12.0511 18.766 12.0157 18.8242 11.9916C18.8825 11.9675 18.9449 11.9551 19.0079 11.9551C19.071 11.9551 19.1334 11.9675 19.1916 11.9916C19.2499 12.0157 19.3028 12.0511 19.3474 12.0957C19.392 12.1403 19.4273 12.1932 19.4514 12.2514C19.4756 12.3097 19.488 12.3721 19.488 12.4351C19.488 12.4982 19.4756 12.5606 19.4514 12.6188C19.4273 12.6771 19.392 12.73 19.3474 12.7746L16.7608 15.3603C16.7164 15.4051 16.6635 15.4406 16.6053 15.4649C16.547 15.4891 16.4846 15.5016 16.4215 15.5016Z" fill="#CCD1D6"/>
<path id="Vector_3" d="M19.788 13.6958C19.725 13.6959 19.6625 13.6835 19.6043 13.6594C19.5461 13.6352 19.4932 13.5998 19.4487 13.5551L15.8514 9.95781C15.7615 9.8678 15.7109 9.74575 15.7109 9.6185C15.7109 9.49125 15.7615 9.36921 15.8514 9.2792L20.2716 4.8602C20.3616 4.77025 20.4837 4.71973 20.6109 4.71973C20.7382 4.71973 20.8602 4.77025 20.9502 4.8602L24.5475 8.4563C24.6375 8.54631 24.688 8.66835 24.688 8.7956C24.688 8.92285 24.6375 9.0449 24.5475 9.1349L20.1273 13.5551C20.0829 13.5998 20.03 13.6353 19.9717 13.6594C19.9135 13.6836 19.8511 13.6959 19.788 13.6958ZM16.8696 9.6185L19.788 12.5369L23.5293 8.7956L20.6097 5.8772L16.8696 9.6185Z" fill="#CCD1D6"/>
<path id="Vector_4" d="M24.9034 11.3966C24.8251 11.3966 24.7481 11.3773 24.679 11.3405C23.9941 10.9782 23.4341 10.4182 23.0716 9.73337C23.0119 9.6209 22.9994 9.48934 23.0367 9.36762C23.0741 9.2459 23.1582 9.14399 23.2707 9.08432C23.3831 9.02464 23.5147 9.01209 23.6364 9.04942C23.7581 9.08675 23.86 9.1709 23.9197 9.28337C24.1923 9.79844 24.6136 10.2196 25.1287 10.4921C25.2235 10.5422 25.2987 10.6227 25.3424 10.7206C25.3861 10.8185 25.3958 10.9283 25.3699 11.0323C25.3439 11.1364 25.2839 11.2287 25.1994 11.2947C25.1148 11.3607 25.0106 11.3964 24.9034 11.3963V11.3966Z" fill="#CCD1D6"/>
<path id="Vector_5" d="M21.9088 14.3909C21.8215 14.3909 21.7358 14.3672 21.661 14.3222C21.5862 14.2772 21.5251 14.2127 21.4843 14.1356C21.2119 13.6204 20.7907 13.1991 20.2756 12.9266C20.1631 12.8669 20.0789 12.765 20.0416 12.6433C20.0043 12.5215 20.0168 12.39 20.0765 12.2775C20.1362 12.165 20.2381 12.0809 20.3598 12.0436C20.4815 12.0062 20.6131 12.0188 20.7256 12.0785C21.4104 12.4407 21.9704 13.0007 22.3327 13.6856C22.3715 13.7587 22.3908 13.8406 22.3887 13.9234C22.3865 14.0062 22.3629 14.087 22.3203 14.158C22.2777 14.229 22.2174 14.2877 22.1453 14.3285C22.0733 14.3693 21.9919 14.3908 21.9091 14.3909H21.9088Z" fill="#CCD1D6"/>
<path id="Vector_6" d="M23.0067 16.4874C22.8082 16.4879 22.6116 16.449 22.4282 16.3731C22.2449 16.2971 22.0784 16.1856 21.9384 16.0449L20.8584 14.9634C20.8138 14.9188 20.7785 14.8659 20.7543 14.8076C20.7302 14.7494 20.7178 14.687 20.7178 14.6239C20.7178 14.5609 20.7302 14.4984 20.7543 14.4402C20.7785 14.382 20.8138 14.329 20.8584 14.2845L25.2771 9.86426C25.3217 9.81968 25.3746 9.78431 25.4328 9.76018C25.4911 9.73605 25.5535 9.72363 25.6166 9.72363C25.6796 9.72363 25.742 9.73605 25.8003 9.76018C25.8585 9.78431 25.9114 9.81968 25.956 9.86426L27.036 10.9458C27.1763 11.0861 27.2876 11.2526 27.3635 11.4359C27.4394 11.6192 27.4785 11.8157 27.4785 12.0141C27.4785 12.2125 27.4394 12.4089 27.3635 12.5922C27.2876 12.7755 27.1763 12.9421 27.036 13.0824L24.075 16.0449C23.9351 16.1856 23.7686 16.2972 23.5852 16.3732C23.4018 16.4491 23.2052 16.488 23.0067 16.4874ZM22.6167 15.366C22.6679 15.4172 22.7287 15.4578 22.7956 15.4856C22.8625 15.5133 22.9343 15.5276 23.0067 15.5276C23.0791 15.5276 23.1509 15.5133 23.2178 15.4856C23.2847 15.4578 23.3455 15.4172 23.3967 15.366L26.3589 12.4035C26.4102 12.3523 26.451 12.2915 26.4788 12.2246C26.5066 12.1577 26.5209 12.0859 26.5209 12.0135C26.5209 11.941 26.5066 11.8692 26.4788 11.8023C26.451 11.7354 26.4102 11.6746 26.3589 11.6235L25.617 10.8813L21.8751 14.6238L22.6167 15.366Z" fill="#CCD1D6"/>
<path id="Vector_7" d="M16.1905 10.0984C16.0631 10.0984 15.9411 10.0479 15.851 9.95784C15.761 9.86782 15.7105 9.74573 15.7105 9.61843C15.7105 8.32183 15.1105 7.32403 13.9306 6.65233C13.0006 6.12283 12.0427 5.99743 12.0331 5.99623C11.9439 5.98514 11.8596 5.94922 11.7898 5.89258C11.72 5.83594 11.6675 5.76084 11.6383 5.67584C11.6091 5.59084 11.6044 5.49935 11.6246 5.41178C11.6449 5.32421 11.6893 5.24409 11.7529 5.18053C14.053 2.88013 16.4353 2.91223 18.0295 3.34393C19.729 3.80443 20.8795 4.79443 20.9266 4.83643C21.0203 4.92062 21.0771 5.03828 21.0849 5.16402C21.0926 5.28976 21.0506 5.4135 20.9679 5.50855C20.8852 5.60359 20.7685 5.66232 20.6429 5.67207C20.5173 5.68181 20.3929 5.64179 20.2966 5.56063C20.2864 5.55163 19.2418 4.65853 17.7466 4.26193C16.0684 3.81703 14.5099 4.15333 13.1029 5.26153C13.5453 5.39601 13.9723 5.57702 14.3767 5.80153C15.8767 6.64363 16.6711 7.96363 16.6711 9.61843C16.6711 9.68151 16.6586 9.74398 16.6345 9.80226C16.6103 9.86053 16.5749 9.91347 16.5303 9.95805C16.4856 10.0026 16.4326 10.038 16.3743 10.0621C16.316 10.0862 16.2535 10.0985 16.1905 10.0984Z" fill="#CCD1D6"/>
<path id="Vector_8" d="M5.82335 26.8869C5.3893 26.8882 4.95931 26.8033 4.55837 26.637C4.15743 26.4707 3.79354 26.2263 3.48785 25.9182C3.17182 25.6021 2.92314 25.2252 2.75686 24.8103C2.59058 24.3955 2.51014 23.9512 2.5204 23.5043C2.53067 23.0575 2.63142 22.6173 2.81657 22.2105C3.00173 21.8037 3.26744 21.4386 3.59765 21.1374L13.4866 12.0579C13.5777 11.9743 13.6977 11.9291 13.8214 11.9318C13.9451 11.9344 14.063 11.9848 14.1505 12.0723L17.3341 15.2556C17.4216 15.3431 17.4719 15.4611 17.4746 15.5849C17.4772 15.7086 17.4319 15.8286 17.3482 15.9198L8.26775 25.8096C7.96772 26.1409 7.60304 26.4074 7.19618 26.5925C6.78932 26.7776 6.34887 26.8775 5.90195 26.886L5.82335 26.8869ZM13.7971 13.0764L4.24565 21.8454C4.01107 22.0591 3.82228 22.3182 3.6907 22.607C3.55911 22.8957 3.48746 23.2082 3.48009 23.5255C3.47271 23.8427 3.52976 24.1582 3.64779 24.4527C3.76581 24.7473 3.94236 25.0149 4.16675 25.2393C4.39107 25.4635 4.65851 25.64 4.95293 25.758C5.24734 25.876 5.56262 25.933 5.87971 25.9258C6.19681 25.9185 6.50914 25.8471 6.79785 25.7157C7.08655 25.5844 7.34563 25.3959 7.55945 25.1616L16.33 15.6093L13.7971 13.0764Z" fill="#CCD1D6"/>
<path id="Vector_9" d="M14.8799 18.3781C14.7527 18.3781 14.6306 18.3276 14.5406 18.2377L11.1689 14.8654C11.1243 14.8208 11.089 14.7679 11.0649 14.7097C11.0407 14.6514 11.0283 14.589 11.0283 14.526C11.0283 14.4629 11.0407 14.4005 11.0649 14.3422C11.089 14.284 11.1243 14.2311 11.1689 14.1865C11.2135 14.1419 11.2664 14.1066 11.3247 14.0824C11.3829 14.0583 11.4453 14.0459 11.5084 14.0459C11.5714 14.0459 11.6338 14.0583 11.6921 14.0824C11.7503 14.1066 11.8032 14.1419 11.8478 14.1865L15.2201 17.5588C15.2873 17.626 15.333 17.7116 15.3514 17.8047C15.3699 17.8979 15.3603 17.9945 15.3239 18.0822C15.2875 18.1699 15.2259 18.2448 15.1468 18.2975C15.0678 18.3502 14.9749 18.3782 14.8799 18.3781Z" fill="#CCD1D6"/>
<path id="Vector_10" d="M11.9144 21.6092C11.8513 21.6093 11.7889 21.597 11.7307 21.5729C11.6725 21.5488 11.6196 21.5134 11.5751 21.4688L7.93846 17.8322C7.84843 17.7422 7.79785 17.6201 7.79785 17.4928C7.79785 17.3654 7.84843 17.2433 7.93846 17.1533C8.02848 17.0633 8.15059 17.0127 8.27791 17.0127C8.40522 17.0127 8.52733 17.0633 8.61736 17.1533L12.2537 20.7905C12.3207 20.8576 12.3664 20.9431 12.3849 21.0362C12.4034 21.1293 12.3939 21.2258 12.3576 21.3135C12.3213 21.4011 12.2598 21.4761 12.1809 21.5288C12.102 21.5816 12.0093 21.6098 11.9144 21.6098V21.6092Z" fill="#CCD1D6"/>
</g>
</svg>
