<svg width="23" height="24" viewBox="0 0 23 24" fill="none" xmlns="http://www.w3.org/2000/svg">
<path d="M17.533 7.31789C17.9062 6.94475 17.9062 6.33978 17.533 5.96664C17.1599 5.5935 16.5549 5.5935 16.1818 5.96664L12.2074 9.94099C11.8169 10.3315 11.1837 10.3315 10.7932 9.94099L6.81887 5.96664C6.44573 5.5935 5.84075 5.5935 5.46762 5.96664C5.09448 6.33978 5.09448 6.94475 5.46762 7.31789L9.44197 11.2922C9.83249 11.6828 9.83249 12.3159 9.44197 12.7065L5.46762 16.6808C5.09448 17.0539 5.09448 17.6589 5.46762 18.0321C5.84075 18.4052 6.44573 18.4052 6.81887 18.0321L10.7932 14.0577C11.1837 13.6672 11.8169 13.6672 12.2074 14.0577L16.1818 18.0321C16.5549 18.4052 17.1599 18.4052 17.533 18.0321C17.9062 17.6589 17.9062 17.0539 17.533 16.6808L13.5587 12.7065C13.1682 12.3159 13.1682 11.6828 13.5587 11.2922L17.533 7.31789Z" fill="#1A73E9"/>
</svg>
