<svg width="12" height="12" viewBox="0 0 12 12" fill="none" xmlns="http://www.w3.org/2000/svg">
<g id="bxs:up-arrow">
<path id="Vector" d="M1.50126 2.4997H10.5013C10.5924 2.49999 10.6817 2.52512 10.7596 2.57239C10.8375 2.61966 10.901 2.68728 10.9434 2.76798C10.9857 2.84867 11.0052 2.93938 10.9998 3.03034C10.9944 3.12131 10.9643 3.20907 10.9128 3.2842L6.41276 9.7842C6.22626 10.0537 5.77726 10.0537 5.59026 9.7842L1.09026 3.2842C1.03818 3.20923 1.00763 3.12142 1.00195 3.0303C0.996262 2.93919 1.01566 2.84826 1.05802 2.7674C1.10039 2.68653 1.1641 2.61883 1.24225 2.57163C1.32039 2.52444 1.40997 2.49956 1.50126 2.4997Z" fill="#303034"/>
</g>
</svg>
