<svg width="15" height="15" viewBox="0 0 15 15" fill="none" xmlns="http://www.w3.org/2000/svg">
<g id="ep:arrow-up-bold">
<path id="Vector" d="M13.4657 4.96217C13.2899 4.78642 13.0515 4.68769 12.8029 4.68769C12.5543 4.68769 12.3159 4.78642 12.1401 4.96217L7.4995 9.6028L2.85887 4.96217C2.68206 4.7914 2.44524 4.69691 2.19943 4.69904C1.95362 4.70118 1.71849 4.79977 1.54467 4.97359C1.37085 5.14741 1.27225 5.38255 1.27011 5.62836C1.26798 5.87417 1.36247 6.11098 1.53325 6.2878L6.83668 11.5912C7.01249 11.767 7.25091 11.8657 7.4995 11.8657C7.74809 11.8657 7.9865 11.767 8.16231 11.5912L13.4657 6.2878C13.6415 6.11199 13.7402 5.87358 13.7402 5.62499C13.7402 5.37639 13.6415 5.13798 13.4657 4.96217Z" fill="#1A73E9"/>
</g>
</svg>
