<svg width="25" height="24" viewBox="0 0 25 24" fill="none" xmlns="http://www.w3.org/2000/svg">
<path d="M12.433 18.55L12.333 18.65L12.223 18.55C7.47301 14.24 4.33301 11.39 4.33301 8.5C4.33301 6.5 5.83301 5 7.83301 5C9.37301 5 10.873 6 11.403 7.36H13.263C13.793 6 15.293 5 16.833 5C18.833 5 20.333 6.5 20.333 8.5C20.333 11.39 17.193 14.24 12.433 18.55ZM16.833 3C15.093 3 13.423 3.81 12.333 5.08C11.243 3.81 9.57301 3 7.83301 3C4.75301 3 2.33301 5.41 2.33301 8.5C2.33301 12.27 5.73301 15.36 10.883 20.03L12.333 21.35L13.783 20.03C18.933 15.36 22.333 12.27 22.333 8.5C22.333 5.41 19.913 3 16.833 3Z" fill="#77767A"/>
</svg>
