<svg width="30" height="30" viewBox="0 0 30 30" fill="none" xmlns="http://www.w3.org/2000/svg">
<g id="fi_9818957">
<path id="Vector" d="M20.33 8.59574H20.1431C20.0158 8.59574 19.8937 8.54517 19.8037 8.45515C19.7137 8.36514 19.6631 8.24305 19.6631 8.11574C19.6631 7.98844 19.7137 7.86635 19.8037 7.77633C19.8937 7.68631 20.0158 7.63574 20.1431 7.63574H20.33C20.4573 7.63574 20.5794 7.68631 20.6694 7.77633C20.7594 7.86635 20.81 7.98844 20.81 8.11574C20.81 8.24305 20.7594 8.36514 20.6694 8.45515C20.5794 8.54517 20.4573 8.59574 20.33 8.59574Z" fill="#CCD1D6"/>
<path id="Vector_2" d="M21.8261 10.5274H21.6392C21.5119 10.5274 21.3898 10.4768 21.2998 10.3868C21.2098 10.2968 21.1592 10.1747 21.1592 10.0474C21.1592 9.92008 21.2098 9.79799 21.2998 9.70797C21.3898 9.61795 21.5119 9.56738 21.6392 9.56738H21.8261C21.9534 9.56738 22.0755 9.61795 22.1655 9.70797C22.2555 9.79799 22.3061 9.92008 22.3061 10.0474C22.3061 10.1747 22.2555 10.2968 22.1655 10.3868C22.0755 10.4768 21.9534 10.5274 21.8261 10.5274Z" fill="#CCD1D6"/>
<path id="Vector_3" d="M18.787 10.7149H18.6001C18.4728 10.7149 18.3507 10.6643 18.2607 10.5743C18.1707 10.4843 18.1201 10.3622 18.1201 10.2349C18.1201 10.1076 18.1707 9.98549 18.2607 9.89547C18.3507 9.80545 18.4728 9.75488 18.6001 9.75488H18.787C18.9143 9.75488 19.0364 9.80545 19.1264 9.89547C19.2164 9.98549 19.267 10.1076 19.267 10.2349C19.267 10.3622 19.2164 10.4843 19.1264 10.5743C19.0364 10.6643 18.9143 10.7149 18.787 10.7149Z" fill="#CCD1D6"/>
<path id="Vector_4" d="M19.7695 24.7201H10.2295C8.18486 24.7196 6.22407 23.9072 4.77826 22.4614C3.33246 21.0156 2.52001 19.0548 2.51953 17.0101V12.022C2.51953 11.8947 2.5701 11.7726 2.66012 11.6826C2.75014 11.5926 2.87223 11.542 2.99953 11.542H26.9995C27.1268 11.542 27.2489 11.5926 27.3389 11.6826C27.429 11.7726 27.4795 11.8947 27.4795 12.022V17.0101C27.4791 19.0548 26.6666 21.0156 25.2208 22.4614C23.775 23.9072 21.8142 24.7196 19.7695 24.7201ZM3.47953 12.502V17.0101C3.47953 20.7316 6.50953 23.7601 10.2295 23.7601H19.7695C23.4922 23.7601 26.5195 20.7301 26.5195 17.0101V12.502H3.47953Z" fill="#CCD1D6"/>
<path id="Vector_5" d="M21.4366 27.4516H8.56333C8.01707 27.451 7.49337 27.2337 7.10711 26.8474C6.72085 26.4612 6.50356 25.9375 6.50293 25.3912V23.4712C6.50293 23.3439 6.5535 23.2218 6.64352 23.1318C6.73354 23.0418 6.85563 22.9912 6.98293 22.9912C7.11023 22.9912 7.23232 23.0418 7.32234 23.1318C7.41236 23.2218 7.46293 23.3439 7.46293 23.4712V25.3912C7.46325 25.683 7.57928 25.9627 7.78558 26.169C7.99188 26.3753 8.27158 26.4913 8.56333 26.4916H21.4366C21.7284 26.4913 22.0081 26.3753 22.2144 26.169C22.4207 25.9627 22.5367 25.683 22.537 25.3912V23.4712C22.537 23.3439 22.5876 23.2218 22.6776 23.1318C22.7676 23.0418 22.8897 22.9912 23.017 22.9912C23.1443 22.9912 23.2664 23.0418 23.3564 23.1318C23.4465 23.2218 23.497 23.3439 23.497 23.4712V25.3912C23.4964 25.9375 23.2791 26.4612 22.8929 26.8474C22.5066 27.2337 21.9829 27.451 21.4366 27.4516Z" fill="#CCD1D6"/>
<path id="Vector_6" d="M4.85988 12.5021C4.79425 12.5019 4.72935 12.4883 4.66918 12.4621C4.60902 12.4359 4.55487 12.3976 4.51008 12.3497C3.93108 11.9786 3.58008 11.3552 3.58008 10.6835C3.58008 9.77237 4.21968 9.00137 5.09358 8.75687C5.04201 8.58151 5.01584 8.39966 5.01588 8.21687C5.01588 7.10987 5.96058 6.20957 7.12218 6.20957H7.15008C7.18788 5.13437 8.11728 4.27067 9.25458 4.27067C9.48477 4.27062 9.71355 4.30666 9.93258 4.37747C10.211 3.57887 11.0018 3.00167 11.9318 3.00167C12.4067 2.99935 12.8693 3.15325 13.2482 3.43967C13.3552 3.28732 13.4825 3.15025 13.6265 3.03227C14.0154 2.71819 14.5001 2.54688 15 2.54688C15.4999 2.54688 15.9847 2.71819 16.3736 3.03227C16.5177 3.15017 16.645 3.28724 16.7519 3.43967C17.1307 3.15309 17.5933 2.99917 18.0683 3.00167C18.9983 3.00167 19.7894 3.57917 20.0678 4.37747C20.2866 4.30667 20.5152 4.27063 20.7452 4.27067C21.8825 4.27067 22.8125 5.13437 22.8503 6.20957H22.8782C24.0398 6.20957 24.9845 7.10957 24.9845 8.21687C24.9844 8.39965 24.9582 8.58148 24.9068 8.75687C25.7804 9.00137 26.4203 9.77237 26.4203 10.6835C26.4203 11.3561 26.0669 11.9801 25.4867 12.3509C25.4324 12.4085 25.3647 12.4518 25.2897 12.4769C25.2146 12.502 25.1345 12.5082 25.0565 12.4949H25.046C24.945 12.4817 24.8509 12.4368 24.7771 12.3666C24.7034 12.2964 24.6538 12.2046 24.6357 12.1044C24.6176 12.0042 24.6318 11.9008 24.6762 11.8093C24.7207 11.7177 24.7931 11.6426 24.8831 11.5949C25.2392 11.4077 25.4603 11.0594 25.4603 10.6859C25.4603 10.1084 24.9464 9.63857 24.3146 9.63857C24.2768 9.63857 24.2387 9.64037 24.1988 9.64397C24.104 9.65274 24.0088 9.63314 23.9251 9.58765C23.8415 9.54216 23.7733 9.47283 23.7292 9.38849C23.6851 9.30414 23.667 9.20859 23.6774 9.11396C23.6877 9.01934 23.7259 8.92992 23.7872 8.85707C23.9398 8.67991 24.024 8.45399 24.0245 8.22017C24.0245 7.64267 23.5103 7.17287 22.8782 7.17287C22.7294 7.1727 22.5818 7.19943 22.4426 7.25177C22.3559 7.28426 22.2617 7.291 22.1713 7.27116C22.0808 7.25133 21.9981 7.20578 21.933 7.13999C21.8678 7.0742 21.8231 6.99099 21.8042 6.90038C21.7853 6.80976 21.793 6.71561 21.8264 6.62927C21.8695 6.51831 21.8915 6.4003 21.8915 6.28127C21.8915 5.70377 21.3773 5.23397 20.7452 5.23397C20.4715 5.23261 20.2055 5.32421 19.9907 5.49377C19.918 5.55228 19.8299 5.58835 19.7371 5.59758C19.6443 5.6068 19.5508 5.58879 19.468 5.54573C19.3853 5.50267 19.3169 5.43644 19.2712 5.35512C19.2255 5.27381 19.2044 5.18094 19.2107 5.08787C19.2107 5.06417 19.2137 5.03657 19.2137 5.01227C19.2137 4.43477 18.6995 3.96497 18.0677 3.96497C17.6294 3.96497 17.2238 4.19867 17.0336 4.56077C16.9867 4.65047 16.9127 4.72307 16.8221 4.7682C16.7316 4.81332 16.629 4.82866 16.5292 4.81202C16.4294 4.79539 16.3374 4.74762 16.2663 4.67556C16.1953 4.6035 16.1488 4.51082 16.1336 4.41077C16.055 3.89777 15.5672 3.51077 14.9987 3.51077C14.4302 3.51077 13.943 3.89777 13.8644 4.41077C13.8492 4.51082 13.8027 4.6035 13.7316 4.67556C13.6606 4.74762 13.5686 4.79539 13.4688 4.81202C13.3689 4.82866 13.2664 4.81332 13.1758 4.7682C13.0852 4.72307 13.0112 4.65047 12.9644 4.56077C12.7742 4.19867 12.368 3.96467 11.93 3.96467C11.2982 3.96467 10.7843 4.43447 10.7843 5.01197C10.7843 5.03507 10.7843 5.05847 10.787 5.08127C10.7946 5.17487 10.7745 5.26863 10.7293 5.35096C10.6842 5.43328 10.6158 5.50054 10.5328 5.54442C10.4498 5.58829 10.3557 5.60685 10.2623 5.5978C10.1688 5.58874 10.08 5.55247 10.007 5.49347C9.79196 5.32387 9.52573 5.23227 9.25188 5.23367C8.62008 5.23367 8.10618 5.70317 8.10618 6.28067C8.10619 6.39986 8.12815 6.51804 8.17098 6.62927C8.20418 6.71563 8.21172 6.80974 8.19268 6.90029C8.17364 6.99083 8.12884 7.07394 8.06367 7.13961C7.9985 7.20529 7.91574 7.25073 7.82535 7.27047C7.73496 7.29021 7.64079 7.2834 7.55418 7.25087C7.4161 7.19816 7.26967 7.17072 7.12188 7.16987C6.48978 7.16987 5.97558 7.63967 5.97558 8.21717C5.97598 8.45087 6.06006 8.6767 6.21258 8.85377C6.27392 8.92659 6.31222 9.01601 6.3226 9.11066C6.33299 9.2053 6.31499 9.3009 6.2709 9.38529C6.2268 9.46968 6.15861 9.53905 6.07499 9.58458C5.99136 9.63011 5.89609 9.64974 5.80128 9.64097C5.76138 9.63737 5.72328 9.63557 5.68548 9.63557C5.05368 9.63557 4.53978 10.1054 4.53978 10.6829C4.53978 11.0564 4.76088 11.4047 5.11698 11.5919C5.2069 11.6395 5.27935 11.7145 5.32386 11.806C5.36837 11.8976 5.38265 12.0009 5.36462 12.101C5.34659 12.2012 5.29719 12.293 5.22356 12.3633C5.14993 12.4335 5.05587 12.4786 4.95498 12.4919L4.94268 12.4937C4.91536 12.4988 4.88766 12.5016 4.85988 12.5021Z" fill="#CCD1D6"/>
<path id="Vector_7" d="M7.98721 10.7149H7.80031C7.67301 10.7149 7.55092 10.6643 7.4609 10.5743C7.37088 10.4843 7.32031 10.3622 7.32031 10.2349C7.32031 10.1076 7.37088 9.98549 7.4609 9.89547C7.55092 9.80545 7.67301 9.75488 7.80031 9.75488H7.98721C8.11452 9.75488 8.23661 9.80545 8.32662 9.89547C8.41664 9.98549 8.46721 10.1076 8.46721 10.2349C8.46721 10.3622 8.41664 10.4843 8.32662 10.5743C8.23661 10.6643 8.11452 10.7149 7.98721 10.7149Z" fill="#CCD1D6"/>
<path id="Vector_8" d="M8.87003 8.90727H8.68313C8.55582 8.90727 8.43373 8.85669 8.34371 8.76668C8.2537 8.67666 8.20312 8.55457 8.20312 8.42727C8.20312 8.29996 8.2537 8.17787 8.34371 8.08785C8.43373 7.99784 8.55582 7.94727 8.68313 7.94727H8.87003C8.99733 7.94727 9.11942 7.99784 9.20944 8.08785C9.29945 8.17787 9.35003 8.29996 9.35003 8.42727C9.35003 8.55457 9.29945 8.67666 9.20944 8.76668C9.11942 8.85669 8.99733 8.90727 8.87003 8.90727Z" fill="#CCD1D6"/>
<path id="Vector_9" d="M10.8029 8.00492H10.6157C10.4884 8.00492 10.3663 7.95435 10.2763 7.86433C10.1863 7.77432 10.1357 7.65223 10.1357 7.52492C10.1357 7.39762 10.1863 7.27553 10.2763 7.18551C10.3663 7.09549 10.4884 7.04492 10.6157 7.04492H10.8029C10.9302 7.04492 11.0523 7.09549 11.1424 7.18551C11.2324 7.27553 11.2829 7.39762 11.2829 7.52492C11.2829 7.65223 11.2324 7.77432 11.1424 7.86433C11.0523 7.95435 10.9302 8.00492 10.8029 8.00492Z" fill="#CCD1D6"/>
<path id="Vector_10" d="M12.9325 7.03715H12.7456C12.6183 7.03715 12.4962 6.98658 12.4062 6.89656C12.3162 6.80654 12.2656 6.68445 12.2656 6.55715C12.2656 6.42984 12.3162 6.30775 12.4062 6.21774C12.4962 6.12772 12.6183 6.07715 12.7456 6.07715H12.9325C13.0598 6.07715 13.1819 6.12772 13.2719 6.21774C13.362 6.30775 13.4125 6.42984 13.4125 6.55715C13.4125 6.68445 13.362 6.80654 13.2719 6.89656C13.1819 6.98658 13.0598 7.03715 12.9325 7.03715Z" fill="#CCD1D6"/>
<path id="Vector_11" d="M15.2802 6.70414H15.0933C14.966 6.70414 14.8439 6.65357 14.7539 6.56355C14.6639 6.47353 14.6133 6.35144 14.6133 6.22414C14.6133 6.09684 14.6639 5.97475 14.7539 5.88473C14.8439 5.79471 14.966 5.74414 15.0933 5.74414H15.2802C15.4075 5.74414 15.5296 5.79471 15.6196 5.88473C15.7096 5.97475 15.7602 6.09684 15.7602 6.22414C15.7602 6.35144 15.7096 6.47353 15.6196 6.56355C15.5296 6.65357 15.4075 6.70414 15.2802 6.70414Z" fill="#CCD1D6"/>
<path id="Vector_12" d="M17.6906 7.32816H17.5034C17.3761 7.32816 17.254 7.27759 17.164 7.18758C17.074 7.09756 17.0234 6.97547 17.0234 6.84816C17.0234 6.72086 17.074 6.59877 17.164 6.50875C17.254 6.41874 17.3761 6.36816 17.5034 6.36816H17.6906C17.8179 6.36816 17.94 6.41874 18.03 6.50875C18.1201 6.59877 18.1706 6.72086 18.1706 6.84816C18.1706 6.97547 18.1201 7.09756 18.03 7.18758C17.94 7.27759 17.8179 7.32816 17.6906 7.32816Z" fill="#CCD1D6"/>
<path id="Vector_13" d="M11.1663 10.3204H10.98C10.8527 10.3204 10.7306 10.2698 10.6406 10.1798C10.5506 10.0897 10.5 9.96766 10.5 9.84035C10.5 9.71305 10.5506 9.59096 10.6406 9.50094C10.7306 9.41092 10.8527 9.36035 10.98 9.36035H11.1672C11.2945 9.36035 11.4166 9.41092 11.5066 9.50094C11.5966 9.59096 11.6472 9.71305 11.6472 9.84035C11.6472 9.96766 11.5966 10.0897 11.5066 10.1798C11.4166 10.2698 11.2945 10.3204 11.1672 10.3204H11.1663Z" fill="#CCD1D6"/>
<path id="Vector_14" d="M13.9501 10.3204H13.7632C13.6359 10.3204 13.5138 10.2698 13.4238 10.1798C13.3338 10.0897 13.2832 9.96766 13.2832 9.84035C13.2832 9.71305 13.3338 9.59096 13.4238 9.50094C13.5138 9.41092 13.6359 9.36035 13.7632 9.36035H13.9501C14.0774 9.36035 14.1995 9.41092 14.2895 9.50094C14.3795 9.59096 14.4301 9.71305 14.4301 9.84035C14.4301 9.96766 14.3795 10.0897 14.2895 10.1798C14.1995 10.2698 14.0774 10.3204 13.9501 10.3204Z" fill="#CCD1D6"/>
<path id="Vector_15" d="M16.2671 9.53031H16.0796C15.9523 9.53031 15.8302 9.47974 15.7402 9.38972C15.6502 9.29971 15.5996 9.17762 15.5996 9.05031C15.5996 8.92301 15.6502 8.80092 15.7402 8.7109C15.8302 8.62088 15.9523 8.57031 16.0796 8.57031H16.2665C16.3938 8.57031 16.5159 8.62088 16.6059 8.7109C16.6959 8.80092 16.7465 8.92301 16.7465 9.05031C16.7465 9.17762 16.6959 9.29971 16.6059 9.38972C16.5159 9.47974 16.3938 9.53031 16.2665 9.53031H16.2671Z" fill="#CCD1D6"/>
<path id="Vector_16" d="M14.3611 21.3523C12.4384 21.3523 10.6918 20.398 10.5958 20.3446C10.5028 20.293 10.4296 20.212 10.3876 20.1142C10.3456 20.0165 10.3373 19.9076 10.3639 19.8046C10.4002 19.6648 11.2777 16.3423 13.7698 15.2698C16.2619 14.1973 19.2769 15.8455 19.4041 15.9163C19.4972 15.9679 19.5704 16.0489 19.6124 16.1466C19.6544 16.2444 19.6627 16.3533 19.636 16.4563C19.5991 16.5967 18.7216 19.9198 16.2298 20.9911C15.622 21.2527 14.9824 21.3523 14.3611 21.3523ZM11.4094 19.6753C12.208 20.0392 14.2318 20.8057 15.8509 20.1091C17.47 19.4125 18.3046 17.4166 18.5899 16.5862C17.7907 16.222 15.7672 15.4558 14.1499 16.1521C12.5326 16.8484 11.6947 18.8446 11.4094 19.6753Z" fill="#CCD1D6"/>
</g>
</svg>
