<svg width="30" height="30" viewBox="0 0 30 30" fill="none" xmlns="http://www.w3.org/2000/svg">
<g id="fi_10380902">
<path id="Vector" d="M27.0003 14.1915H19.7928C19.708 14.1915 19.6246 14.1691 19.5512 14.1264C19.4778 14.0838 19.4171 14.0224 19.3752 13.9486C19.3332 13.8748 19.3116 13.7912 19.3125 13.7063C19.3134 13.6215 19.3368 13.5384 19.3803 13.4655L21.1353 10.5255H20.5251C20.44 10.5254 20.3565 10.5028 20.283 10.4598C20.2095 10.4169 20.1488 10.3552 20.107 10.281C20.0653 10.2069 20.044 10.1229 20.0453 10.0379C20.0467 9.95276 20.0706 9.86956 20.1147 9.79677L21.7245 7.14297H21.1014C21.0157 7.14296 20.9316 7.12001 20.8577 7.07648C20.7839 7.03296 20.7231 6.97047 20.6816 6.89548C20.64 6.8205 20.6194 6.73577 20.6217 6.6501C20.624 6.56442 20.6492 6.48092 20.6946 6.40827L22.9896 2.74377C23.0328 2.67484 23.0928 2.61801 23.1639 2.57862C23.2351 2.53922 23.3151 2.51855 23.3964 2.51855C23.4778 2.51855 23.5578 2.53922 23.6289 2.57862C23.7001 2.61801 23.7601 2.67484 23.8032 2.74377L26.0985 6.40827C26.144 6.48092 26.1692 6.56442 26.1715 6.6501C26.1738 6.73577 26.1531 6.8205 26.1116 6.89548C26.0701 6.97047 26.0093 7.03296 25.9354 7.07648C25.8616 7.12001 25.7774 7.14296 25.6917 7.14297H25.0686L26.6781 9.79677C26.7222 9.86956 26.7462 9.95276 26.7475 10.0379C26.7489 10.1229 26.7276 10.2069 26.6858 10.281C26.6441 10.3552 26.5833 10.4169 26.5099 10.4598C26.4364 10.5028 26.3528 10.5254 26.2677 10.5255H25.6578L27.4125 13.4655C27.456 13.5383 27.4794 13.6214 27.4803 13.7063C27.4813 13.7911 27.4597 13.8747 27.4178 13.9485C27.3759 14.0223 27.3152 14.0836 27.2418 14.1263C27.1685 14.169 27.0852 14.1915 27.0003 14.1915ZM20.6385 13.2315H26.1546L24.3999 10.2933C24.3564 10.2204 24.3329 10.1373 24.332 10.0525C24.331 9.96761 24.3525 9.88401 24.3944 9.81018C24.4363 9.73636 24.497 9.67496 24.5703 9.63223C24.6436 9.58951 24.727 9.56699 24.8118 9.56697H25.4154L23.8056 6.91347C23.7615 6.84068 23.7374 6.75744 23.7361 6.67231C23.7347 6.58717 23.7559 6.5032 23.7977 6.429C23.8395 6.3548 23.9002 6.29305 23.9738 6.25008C24.0473 6.20711 24.1309 6.18447 24.216 6.18447H24.8247L23.3964 3.90447L21.9684 6.18447H22.5768C22.662 6.18447 22.7456 6.20711 22.8191 6.25008C22.8926 6.29305 22.9534 6.3548 22.9951 6.429C23.0369 6.5032 23.0582 6.58717 23.0568 6.67231C23.0554 6.75744 23.0314 6.84068 22.9872 6.91347L21.3777 9.56697H21.9813C22.0662 9.56694 22.1496 9.58941 22.223 9.63212C22.2964 9.67482 22.3571 9.73622 22.399 9.81005C22.4409 9.88389 22.4625 9.96751 22.4615 10.0524C22.4605 10.1373 22.4371 10.2204 22.3935 10.2933L20.6385 13.2315Z" fill="#1A73E9"/>
<path id="Vector_2" d="M24.3137 17.7299H22.478C22.3507 17.7299 22.2287 17.6794 22.1386 17.5894C22.0486 17.4993 21.998 17.3772 21.998 17.2499V13.7114C21.998 13.5841 22.0486 13.4621 22.1386 13.372C22.2287 13.282 22.3507 13.2314 22.478 13.2314H24.3137C24.441 13.2314 24.5631 13.282 24.6532 13.372C24.7432 13.4621 24.7937 13.5841 24.7937 13.7114V17.2499C24.7937 17.3772 24.7432 17.4993 24.6532 17.5894C24.5631 17.6794 24.441 17.7299 24.3137 17.7299ZM22.958 16.7699H23.8337V14.1914H22.958V16.7699Z" fill="#1A73E9"/>
<path id="Vector_3" d="M16.5964 23.4258H13.4029C13.2755 23.4258 13.1535 23.3752 13.0634 23.2852C12.9734 23.1952 12.9229 23.0731 12.9229 22.9458C12.9229 22.8185 12.9734 22.6964 13.0634 22.6064C13.1535 22.5164 13.2755 22.4658 13.4029 22.4658H16.5964C16.7237 22.4658 16.8457 22.5164 16.9358 22.6064C17.0258 22.6964 17.0764 22.8185 17.0764 22.9458C17.0764 23.0731 17.0258 23.1952 16.9358 23.2852C16.8457 23.3752 16.7237 23.4258 16.5964 23.4258Z" fill="#1A73E9"/>
<path id="Vector_4" d="M10.2214 23.4258H7.02785C6.90055 23.4258 6.77846 23.3752 6.68844 23.2852C6.59842 23.1952 6.54785 23.0731 6.54785 22.9458C6.54785 22.8185 6.59842 22.6964 6.68844 22.6064C6.77846 22.5164 6.90055 22.4658 7.02785 22.4658H10.2214C10.3487 22.4658 10.4707 22.5164 10.5608 22.6064C10.6508 22.6964 10.7014 22.8185 10.7014 22.9458C10.7014 23.0731 10.6508 23.1952 10.5608 23.2852C10.4707 23.3752 10.3487 23.4258 10.2214 23.4258Z" fill="#1A73E9"/>
<path id="Vector_5" d="M22.9723 23.4258H19.7779C19.6505 23.4258 19.5285 23.3752 19.4384 23.2852C19.3484 23.1952 19.2979 23.0731 19.2979 22.9458C19.2979 22.8185 19.3484 22.6964 19.4384 22.6064C19.5285 22.5164 19.6505 22.4658 19.7779 22.4658H22.9723C23.0996 22.4658 23.2216 22.5164 23.3117 22.6064C23.4017 22.6964 23.4523 22.8185 23.4523 22.9458C23.4523 23.0731 23.4017 23.1952 23.3117 23.2852C23.2216 23.3752 23.0996 23.4258 22.9723 23.4258Z" fill="#1A73E9"/>
<path id="Vector_6" d="M22.9723 25.2032H19.7779C19.6505 25.2032 19.5285 25.1526 19.4384 25.0626C19.3484 24.9726 19.2979 24.8505 19.2979 24.7232C19.2979 24.5959 19.3484 24.4738 19.4384 24.3838C19.5285 24.2937 19.6505 24.2432 19.7779 24.2432H22.9723C23.0996 24.2432 23.2216 24.2937 23.3117 24.3838C23.4017 24.4738 23.4523 24.5959 23.4523 24.7232C23.4523 24.8505 23.4017 24.9726 23.3117 25.0626C23.2216 25.1526 23.0996 25.2032 22.9723 25.2032Z" fill="#1A73E9"/>
<path id="Vector_7" d="M10.2214 25.2032H7.02785C6.90055 25.2032 6.77846 25.1526 6.68844 25.0626C6.59842 24.9726 6.54785 24.8505 6.54785 24.7232C6.54785 24.5959 6.59842 24.4738 6.68844 24.3838C6.77846 24.2937 6.90055 24.2432 7.02785 24.2432H10.2214C10.3487 24.2432 10.4707 24.2937 10.5608 24.3838C10.6508 24.4738 10.7014 24.5959 10.7014 24.7232C10.7014 24.8505 10.6508 24.9726 10.5608 25.0626C10.4707 25.1526 10.3487 25.2032 10.2214 25.2032Z" fill="#1A73E9"/>
<path id="Vector_8" d="M16.5964 25.2032H13.4029C13.2755 25.2032 13.1535 25.1526 13.0634 25.0626C12.9734 24.9726 12.9229 24.8505 12.9229 24.7232C12.9229 24.5959 12.9734 24.4738 13.0634 24.3838C13.1535 24.2937 13.2755 24.2432 13.4029 24.2432H16.5964C16.7237 24.2432 16.8457 24.2937 16.9358 24.3838C17.0258 24.4738 17.0764 24.5959 17.0764 24.7232C17.0764 24.8505 17.0258 24.9726 16.9358 25.0626C16.8457 25.1526 16.7237 25.2032 16.5964 25.2032Z" fill="#1A73E9"/>
<path id="Vector_9" d="M26.9995 27.4795H2.99953C2.87223 27.4795 2.75014 27.429 2.66012 27.3389C2.5701 27.2489 2.51953 27.1268 2.51953 26.9995C2.51953 26.8722 2.5701 26.7501 2.66012 26.6601C2.75014 26.5701 2.87223 26.5195 2.99953 26.5195H26.9995C27.1268 26.5195 27.2489 26.5701 27.3389 26.6601C27.429 26.7501 27.4795 26.8722 27.4795 26.9995C27.4795 27.1268 27.429 27.2489 27.3389 27.3389C27.2489 27.429 27.1268 27.4795 26.9995 27.4795Z" fill="#1A73E9"/>
<path id="Vector_10" d="M7.02816 27.4795H3.84816C3.72086 27.4795 3.59877 27.429 3.50875 27.3389C3.41874 27.2489 3.36816 27.1268 3.36816 26.9995V20.6017C3.36808 20.5364 3.38134 20.4717 3.40713 20.4116C3.43292 20.3516 3.47071 20.2975 3.51816 20.2525L5.10816 18.7525C5.19731 18.6681 5.31541 18.6211 5.43816 18.6211C5.56092 18.6211 5.67902 18.6681 5.76816 18.7525L7.35816 20.2525C7.40562 20.2975 7.4434 20.3516 7.4692 20.4116C7.49499 20.4717 7.50825 20.5364 7.50816 20.6017V26.9995C7.50816 27.1268 7.45759 27.2489 7.36758 27.3389C7.27756 27.429 7.15547 27.4795 7.02816 27.4795ZM4.32816 26.5195H6.54816V20.809L5.43816 19.7617L4.32816 20.809V26.5195Z" fill="#1A73E9"/>
<path id="Vector_11" d="M13.4032 27.4795H10.2232C10.0959 27.4795 9.97377 27.429 9.88375 27.3389C9.79374 27.2489 9.74316 27.1268 9.74316 26.9995V20.6017C9.74308 20.5364 9.75634 20.4717 9.78213 20.4116C9.80792 20.3516 9.84571 20.2975 9.89316 20.2525L11.4832 18.7525C11.5723 18.6681 11.6904 18.6211 11.8132 18.6211C11.9359 18.6211 12.054 18.6681 12.1432 18.7525L13.7332 20.2525C13.7806 20.2975 13.8184 20.3516 13.8442 20.4116C13.87 20.4717 13.8833 20.5364 13.8832 20.6017V26.9995C13.8832 27.1268 13.8326 27.2489 13.7426 27.3389C13.6526 27.429 13.5305 27.4795 13.4032 27.4795ZM10.7032 26.5195H12.9232V20.809L11.8132 19.7617L10.7032 20.809V26.5195Z" fill="#1A73E9"/>
<path id="Vector_12" d="M19.7772 27.4795H16.5972C16.4699 27.4795 16.3478 27.429 16.2578 27.3389C16.1678 27.2489 16.1172 27.1268 16.1172 26.9995V20.6017C16.1171 20.5364 16.1304 20.4717 16.1562 20.4116C16.1819 20.3516 16.2197 20.2975 16.2672 20.2525L17.8572 18.7525C17.9463 18.6681 18.0644 18.6211 18.1872 18.6211C18.3099 18.6211 18.428 18.6681 18.5172 18.7525L20.1072 20.2525C20.1546 20.2975 20.1924 20.3516 20.2182 20.4116C20.244 20.4717 20.2573 20.5364 20.2572 20.6017V26.9995C20.2572 27.1268 20.2066 27.2489 20.1166 27.3389C20.0266 27.429 19.9045 27.4795 19.7772 27.4795ZM17.0772 26.5195H19.2972V20.809L18.1872 19.7617L17.0772 20.809V26.5195Z" fill="#1A73E9"/>
<path id="Vector_13" d="M26.1532 27.4795H22.9732C22.8459 27.4795 22.7238 27.429 22.6338 27.3389C22.5437 27.2489 22.4932 27.1268 22.4932 26.9995V20.6017C22.4931 20.5364 22.5063 20.4717 22.5321 20.4116C22.5579 20.3516 22.5957 20.2975 22.6432 20.2525L24.2332 18.7525C24.3223 18.6681 24.4404 18.6211 24.5632 18.6211C24.6859 18.6211 24.804 18.6681 24.8932 18.7525L26.4832 20.2525C26.5306 20.2975 26.5684 20.3516 26.5942 20.4116C26.62 20.4717 26.6333 20.5364 26.6332 20.6017V26.9995C26.6332 27.1268 26.5826 27.2489 26.4926 27.3389C26.4026 27.429 26.2805 27.4795 26.1532 27.4795ZM23.4532 26.5195H25.6732V20.809L24.5632 19.7617L23.4532 20.809V26.5195Z" fill="#1A73E9"/>
<path id="Vector_14" d="M11.8157 17.7304H8.97023C8.84293 17.7304 8.72084 17.6799 8.63082 17.5898C8.54081 17.4998 8.49023 17.3777 8.49023 17.2504V13.5493C8.49023 13.422 8.54081 13.2999 8.63082 13.2099C8.72084 13.1199 8.84293 13.0693 8.97023 13.0693H11.8172C11.9445 13.0693 12.0666 13.1199 12.1566 13.2099C12.2467 13.2999 12.2972 13.422 12.2972 13.5493V17.2504C12.2972 17.3136 12.2848 17.3761 12.2606 17.4345C12.2363 17.4928 12.2008 17.5458 12.1561 17.5904C12.1114 17.635 12.0583 17.6703 11.9999 17.6943C11.9415 17.7184 11.8789 17.7306 11.8157 17.7304ZM9.45023 16.7704H11.3372V14.0293H9.45023V16.7704Z" fill="#1A73E9"/>
<path id="Vector_15" d="M10.3917 11.7902C10.0187 11.7902 9.65408 11.6796 9.34397 11.4723C9.03385 11.2651 8.79214 10.9706 8.64941 10.626C8.50668 10.2814 8.46933 9.90226 8.5421 9.53645C8.61486 9.17064 8.79446 8.83463 9.0582 8.57089C9.32193 8.30716 9.65795 8.12755 10.0238 8.05479C10.3896 7.98203 10.7687 8.01937 11.1133 8.1621C11.4579 8.30484 11.7524 8.54654 11.9596 8.85666C12.1669 9.16678 12.2775 9.53138 12.2775 9.90436C12.2769 10.4043 12.078 10.8837 11.7245 11.2372C11.371 11.5907 10.8916 11.7896 10.3917 11.7902ZM10.3917 8.97856C10.2086 8.97856 10.0296 9.03285 9.87731 9.13458C9.72507 9.23631 9.6064 9.3809 9.53633 9.55007C9.46626 9.71924 9.44793 9.90538 9.48365 10.085C9.51937 10.2646 9.60755 10.4295 9.73702 10.559C9.8665 10.6885 10.0315 10.7766 10.211 10.8124C10.3906 10.8481 10.5768 10.8298 10.7459 10.7597C10.9151 10.6896 11.0597 10.571 11.1614 10.4187C11.2632 10.2665 11.3175 10.0875 11.3175 9.90436C11.3175 9.65868 11.2201 9.42303 11.0465 9.2492C10.8729 9.07537 10.6373 8.97759 10.3917 8.97736V8.97856Z" fill="#1A73E9"/>
<path id="Vector_16" d="M15.6861 17.7301H5.09816C4.97086 17.7301 4.84877 17.6795 4.75875 17.5895C4.66874 17.4995 4.61816 17.3774 4.61816 17.2501V9.84822C4.61816 9.72091 4.66874 9.59882 4.75875 9.5088C4.84877 9.41879 4.97086 9.36822 5.09816 9.36822C5.22547 9.36822 5.34756 9.41879 5.43758 9.5088C5.52759 9.59882 5.57816 9.72091 5.57816 9.84822V16.7701H15.2061V9.83352C15.2061 9.70621 15.2566 9.58412 15.3467 9.4941C15.4367 9.40409 15.5588 9.35352 15.6861 9.35352C15.8134 9.35352 15.9355 9.40409 16.0255 9.4941C16.1155 9.58412 16.1661 9.70621 16.1661 9.83352V17.2501C16.1661 17.3774 16.1155 17.4995 16.0255 17.5895C15.9355 17.6795 15.8134 17.7301 15.6861 17.7301Z" fill="#1A73E9"/>
<path id="Vector_17" d="M16.8895 11.1925C16.7867 11.1925 16.6866 11.1595 16.6039 11.0983L10.3915 6.4951L4.17824 11.0983C4.12758 11.1358 4.07003 11.163 4.00887 11.1782C3.9477 11.1935 3.88414 11.1966 3.82179 11.1873C3.75945 11.178 3.69954 11.1565 3.6455 11.124C3.59147 11.0915 3.54435 11.0488 3.50684 10.9981L2.61374 9.793C2.57624 9.74234 2.54908 9.68478 2.53381 9.62362C2.51855 9.56246 2.51548 9.4989 2.52479 9.43655C2.53409 9.37421 2.55559 9.3143 2.58804 9.26026C2.6205 9.20623 2.66328 9.15911 2.71394 9.1216L10.1059 3.6451C10.1886 3.58385 10.2888 3.55078 10.3917 3.55078C10.4946 3.55078 10.5948 3.58385 10.6774 3.6451L18.0691 9.1216C18.1714 9.19739 18.2394 9.31071 18.2581 9.43662C18.2769 9.56253 18.2448 9.69072 18.169 9.793L17.2762 10.9981C17.2315 11.0585 17.1732 11.1076 17.106 11.1414C17.0389 11.1751 16.9647 11.1926 16.8895 11.1925ZM3.67094 9.6073L3.99254 10.0411L10.1059 5.5111C10.1886 5.44985 10.2888 5.41678 10.3917 5.41678C10.4946 5.41678 10.5948 5.44985 10.6774 5.5111L16.7905 10.0411L17.1118 9.607L10.3918 4.627L3.67094 9.6073Z" fill="#1A73E9"/>
<path id="Vector_18" d="M5.7552 22.6846H5.3052C5.17789 22.6846 5.0558 22.634 4.96578 22.544C4.87577 22.454 4.8252 22.3319 4.8252 22.2046C4.8252 22.0773 4.87577 21.9552 4.96578 21.8652C5.0558 21.7752 5.17789 21.7246 5.3052 21.7246H5.7552C5.8825 21.7246 6.00459 21.7752 6.09461 21.8652C6.18462 21.9552 6.2352 22.0773 6.2352 22.2046C6.2352 22.3319 6.18462 22.454 6.09461 22.544C6.00459 22.634 5.8825 22.6846 5.7552 22.6846Z" fill="#1A73E9"/>
<path id="Vector_19" d="M5.7552 24.2832H5.3052C5.17789 24.2832 5.0558 24.2327 4.96578 24.1427C4.87577 24.0526 4.8252 23.9305 4.8252 23.8032C4.8252 23.6759 4.87577 23.5538 4.96578 23.4638C5.0558 23.3738 5.17789 23.3232 5.3052 23.3232H5.7552C5.8825 23.3232 6.00459 23.3738 6.09461 23.4638C6.18462 23.5538 6.2352 23.6759 6.2352 23.8032C6.2352 23.9305 6.18462 24.0526 6.09461 24.1427C6.00459 24.2327 5.8825 24.2832 5.7552 24.2832Z" fill="#1A73E9"/>
<path id="Vector_20" d="M5.7552 25.8819H5.3052C5.17789 25.8819 5.0558 25.8313 4.96578 25.7413C4.87577 25.6513 4.8252 25.5292 4.8252 25.4019C4.8252 25.2746 4.87577 25.1525 4.96578 25.0625C5.0558 24.9724 5.17789 24.9219 5.3052 24.9219H5.7552C5.8825 24.9219 6.00459 24.9724 6.09461 25.0625C6.18462 25.1525 6.2352 25.2746 6.2352 25.4019C6.2352 25.5292 6.18462 25.6513 6.09461 25.7413C6.00459 25.8313 5.8825 25.8819 5.7552 25.8819Z" fill="#1A73E9"/>
<path id="Vector_21" d="M12.0374 22.6846H11.5874C11.4601 22.6846 11.338 22.634 11.248 22.544C11.158 22.454 11.1074 22.3319 11.1074 22.2046C11.1074 22.0773 11.158 21.9552 11.248 21.8652C11.338 21.7752 11.4601 21.7246 11.5874 21.7246H12.0374C12.1647 21.7246 12.2868 21.7752 12.3768 21.8652C12.4669 21.9552 12.5174 22.0773 12.5174 22.2046C12.5174 22.3319 12.4669 22.454 12.3768 22.544C12.2868 22.634 12.1647 22.6846 12.0374 22.6846Z" fill="#1A73E9"/>
<path id="Vector_22" d="M12.0374 24.2832H11.5874C11.4601 24.2832 11.338 24.2327 11.248 24.1427C11.158 24.0526 11.1074 23.9305 11.1074 23.8032C11.1074 23.6759 11.158 23.5538 11.248 23.4638C11.338 23.3738 11.4601 23.3232 11.5874 23.3232H12.0374C12.1647 23.3232 12.2868 23.3738 12.3768 23.4638C12.4669 23.5538 12.5174 23.6759 12.5174 23.8032C12.5174 23.9305 12.4669 24.0526 12.3768 24.1427C12.2868 24.2327 12.1647 24.2832 12.0374 24.2832Z" fill="#1A73E9"/>
<path id="Vector_23" d="M12.0374 25.8819H11.5874C11.4601 25.8819 11.338 25.8313 11.248 25.7413C11.158 25.6513 11.1074 25.5292 11.1074 25.4019C11.1074 25.2746 11.158 25.1525 11.248 25.0625C11.338 24.9724 11.4601 24.9219 11.5874 24.9219H12.0374C12.1647 24.9219 12.2868 24.9724 12.3768 25.0625C12.4669 25.1525 12.5174 25.2746 12.5174 25.4019C12.5174 25.5292 12.4669 25.6513 12.3768 25.7413C12.2868 25.8313 12.1647 25.8819 12.0374 25.8819Z" fill="#1A73E9"/>
<path id="Vector_24" d="M18.4114 22.6846H17.9614C17.8341 22.6846 17.7121 22.634 17.622 22.544C17.532 22.454 17.4814 22.3319 17.4814 22.2046C17.4814 22.0773 17.532 21.9552 17.622 21.8652C17.7121 21.7752 17.8341 21.7246 17.9614 21.7246H18.4114C18.5387 21.7246 18.6608 21.7752 18.7509 21.8652C18.8409 21.9552 18.8914 22.0773 18.8914 22.2046C18.8914 22.3319 18.8409 22.454 18.7509 22.544C18.6608 22.634 18.5387 22.6846 18.4114 22.6846Z" fill="#1A73E9"/>
<path id="Vector_25" d="M18.4114 24.2832H17.9614C17.8341 24.2832 17.7121 24.2327 17.622 24.1427C17.532 24.0526 17.4814 23.9305 17.4814 23.8032C17.4814 23.6759 17.532 23.5538 17.622 23.4638C17.7121 23.3738 17.8341 23.3232 17.9614 23.3232H18.4114C18.5387 23.3232 18.6608 23.3738 18.7509 23.4638C18.8409 23.5538 18.8914 23.6759 18.8914 23.8032C18.8914 23.9305 18.8409 24.0526 18.7509 24.1427C18.6608 24.2327 18.5387 24.2832 18.4114 24.2832Z" fill="#1A73E9"/>
<path id="Vector_26" d="M18.4114 25.8819H17.9614C17.8341 25.8819 17.7121 25.8313 17.622 25.7413C17.532 25.6513 17.4814 25.5292 17.4814 25.4019C17.4814 25.2746 17.532 25.1525 17.622 25.0625C17.7121 24.9724 17.8341 24.9219 17.9614 24.9219H18.4114C18.5387 24.9219 18.6608 24.9724 18.7509 25.0625C18.8409 25.1525 18.8914 25.2746 18.8914 25.4019C18.8914 25.5292 18.8409 25.6513 18.7509 25.7413C18.6608 25.8313 18.5387 25.8819 18.4114 25.8819Z" fill="#1A73E9"/>
<path id="Vector_27" d="M24.7874 22.6856H24.3374C24.2101 22.6856 24.088 22.635 23.998 22.545C23.908 22.455 23.8574 22.3329 23.8574 22.2056C23.8574 22.0783 23.908 21.9562 23.998 21.8662C24.088 21.7762 24.2101 21.7256 24.3374 21.7256H24.7874C24.9147 21.7256 25.0368 21.7762 25.1268 21.8662C25.2169 21.9562 25.2674 22.0783 25.2674 22.2056C25.2674 22.3329 25.2169 22.455 25.1268 22.545C25.0368 22.635 24.9147 22.6856 24.7874 22.6856Z" fill="#1A73E9"/>
<path id="Vector_28" d="M24.7874 24.2832H24.3374C24.2101 24.2832 24.088 24.2327 23.998 24.1427C23.908 24.0526 23.8574 23.9305 23.8574 23.8032C23.8574 23.6759 23.908 23.5538 23.998 23.4638C24.088 23.3738 24.2101 23.3232 24.3374 23.3232H24.7874C24.9147 23.3232 25.0368 23.3738 25.1268 23.4638C25.2169 23.5538 25.2674 23.6759 25.2674 23.8032C25.2674 23.9305 25.2169 24.0526 25.1268 24.1427C25.0368 24.2327 24.9147 24.2832 24.7874 24.2832Z" fill="#1A73E9"/>
<path id="Vector_29" d="M24.7874 25.8819H24.3374C24.2101 25.8819 24.088 25.8313 23.998 25.7413C23.908 25.6513 23.8574 25.5292 23.8574 25.4019C23.8574 25.2746 23.908 25.1525 23.998 25.0625C24.088 24.9724 24.2101 24.9219 24.3374 24.9219H24.7874C24.9147 24.9219 25.0368 24.9724 25.1268 25.0625C25.2169 25.1525 25.2674 25.2746 25.2674 25.4019C25.2674 25.5292 25.2169 25.6513 25.1268 25.7413C25.0368 25.8313 24.9147 25.8819 24.7874 25.8819Z" fill="#1A73E9"/>
</g>
</svg>
