<svg width="30" height="30" viewBox="0 0 30 30" fill="none" xmlns="http://www.w3.org/2000/svg">
<g id="fi_10576182">
<path id="Vector" d="M15.0005 27.4795C14.9468 27.4795 14.8925 27.4795 14.8391 27.4795C14.4428 27.4734 14.0471 27.4446 13.6541 27.3934C12.8772 27.2923 12.1145 27.1027 11.3807 26.8282C11.1083 26.7262 10.8377 26.6119 10.577 26.4877C9.48792 25.9698 8.49757 25.2659 7.65049 24.4075C7.53349 24.2875 7.41529 24.1633 7.29949 24.0343C6.96879 23.6641 6.66501 23.2707 6.39049 22.8571C6.27049 22.6747 6.15229 22.4854 6.04279 22.2949C4.9279 20.3554 4.47344 18.1061 4.74788 15.8859C5.02232 13.6656 6.01079 11.5947 7.56439 9.98502C7.74439 9.79872 7.93069 9.61872 8.11969 9.45072C8.26969 9.31692 8.42929 9.18072 8.59579 9.04932C8.99416 8.73368 9.41531 8.4479 9.85579 8.19432C10.0514 8.08182 10.2542 7.97382 10.4585 7.87362C11.2474 7.48671 12.0827 7.20288 12.944 7.02912C13.1276 6.99162 13.3202 6.95832 13.5164 6.93012C14.0079 6.85954 14.5039 6.82415 15.0005 6.82422C16.8054 6.82356 18.5789 7.29595 20.1443 8.19432C20.288 8.27712 20.4299 8.36352 20.5664 8.45082C21.4915 9.0439 22.3164 9.78018 23.0105 10.6321C24.447 12.3927 25.2604 14.5792 25.3238 16.8505C25.3268 16.948 25.3283 17.0464 25.3283 17.1505C25.3305 19.61 24.4527 21.9892 22.8536 23.8579C22.8038 23.9164 22.7522 23.9755 22.7006 24.0328C21.7331 25.1182 20.5467 25.9865 19.2196 26.5806C17.8924 27.1746 16.4545 27.481 15.0005 27.4795ZM8.31049 23.7085L8.33419 23.7328C9.10282 24.5111 10.0011 25.1495 10.9889 25.6195C11.2253 25.7317 11.4689 25.8355 11.7173 25.9279C12.3825 26.1768 13.074 26.3487 13.7783 26.4403C14.1355 26.4869 14.4951 26.513 14.8553 26.5183C14.9045 26.5183 14.9528 26.5183 15.0005 26.5183C15.7467 26.5186 16.4903 26.4301 17.2157 26.2549C19.0591 25.8064 20.7226 24.8082 21.9857 23.3926C22.0328 23.3404 22.0793 23.287 22.1246 23.2342C23.5747 21.5391 24.3708 19.3813 24.3689 17.1505C24.3689 17.0548 24.3689 16.9654 24.365 16.8778C24.3078 14.8177 23.57 12.8344 22.2668 11.2378C21.6371 10.4644 20.8885 9.79608 20.0489 9.25782C19.925 9.17862 19.7963 9.10032 19.6658 9.02502C18.2458 8.21087 16.6373 7.78306 15.0005 7.78422C14.5503 7.78422 14.1006 7.8163 13.655 7.88022C13.4771 7.90602 13.3025 7.93602 13.136 7.97022C12.355 8.12772 11.5976 8.38514 10.8824 8.73612C10.6973 8.82612 10.5137 8.92452 10.3361 9.02682C9.93612 9.25681 9.55368 9.51601 9.19189 9.80232C9.04189 9.92232 8.89549 10.0444 8.75989 10.1665C8.58739 10.3198 8.41849 10.4824 8.25589 10.6513C7.87017 11.0515 7.52061 11.485 7.21129 11.9467C6.24229 13.3976 5.69746 15.0902 5.63809 16.8339C5.57873 18.5776 6.00721 20.3033 6.87529 21.8167C6.97459 21.9898 7.08049 22.1611 7.19059 22.3267C7.33189 22.54 7.48339 22.7488 7.64299 22.9513C7.73659 22.0915 7.80859 21.2263 7.85719 20.3755C7.86169 20.2963 7.86589 20.2189 7.87009 20.1415C7.92829 19.0315 7.95019 17.9119 7.93459 16.8115C7.93324 16.7192 7.95854 16.6285 8.00746 16.5502C8.05639 16.4719 8.12685 16.4093 8.21041 16.3701C8.29397 16.3308 8.38708 16.3165 8.47858 16.3288C8.57008 16.3411 8.65609 16.3796 8.72629 16.4395C9.27859 16.9111 9.82789 17.3995 10.3586 17.896C10.8494 18.3529 11.3354 18.8233 11.8022 19.2943C11.8487 19.3413 11.8849 19.3974 11.9087 19.459C11.9325 19.5206 11.9433 19.5865 11.9405 19.6525C11.9363 19.7509 11.9318 19.8487 11.927 19.9468C11.9239 20.0099 11.9085 20.0717 11.8816 20.1287C11.8546 20.1858 11.8167 20.237 11.77 20.2794C11.7232 20.3218 11.6686 20.3546 11.6092 20.3759C11.5498 20.3972 11.4868 20.4066 11.4237 20.4036C11.3607 20.4005 11.2989 20.3851 11.2418 20.3581C11.1848 20.3312 11.1336 20.2933 11.0911 20.2465C11.0487 20.1998 11.0159 20.1452 10.9946 20.0858C10.9733 20.0264 10.9639 19.9634 10.967 19.9003C10.967 19.8739 10.9697 19.8478 10.9709 19.8217C10.5605 19.4095 10.1345 18.9988 9.70429 18.5995C9.43969 18.3525 9.17099 18.1075 8.89819 17.8645C8.89279 18.6388 8.86819 19.4182 8.82859 20.1922C8.82469 20.2705 8.82019 20.3488 8.81569 20.4277C8.76079 21.391 8.67679 22.3693 8.56579 23.3377C8.55679 23.4157 8.52882 23.4903 8.48431 23.5549C8.4398 23.6196 8.38012 23.6723 8.31049 23.7085ZM16.2443 25.6834C16.1692 25.6835 16.0952 25.6659 16.0281 25.6321C15.9611 25.5984 15.9029 25.5494 15.8582 25.489C15.2504 24.6688 14.609 23.8555 13.9517 23.0719C13.9105 23.0228 13.8795 22.9659 13.8606 22.9045C13.8418 22.8432 13.8354 22.7787 13.8419 22.7149L13.8485 22.6492C13.8604 22.5374 13.9111 22.4333 13.9919 22.3551C14.0726 22.2769 14.1783 22.2295 14.2904 22.2212C14.4026 22.2129 14.514 22.2443 14.6054 22.3098C14.6968 22.3753 14.7623 22.4708 14.7905 22.5796C15.4238 23.3395 16.0415 24.1252 16.6286 24.9175C16.6815 24.9889 16.7136 25.0736 16.7212 25.1622C16.7289 25.2507 16.7118 25.3397 16.6718 25.4191C16.6319 25.4985 16.5707 25.5653 16.4951 25.6119C16.4194 25.6586 16.3323 25.6834 16.2434 25.6834H16.2443ZM18.2912 23.3185C18.2165 23.3186 18.1428 23.3012 18.0759 23.2678C18.0091 23.2343 17.951 23.1858 17.9063 23.1259C17.2916 22.3036 16.6442 21.4903 15.9815 20.7082C15.9027 20.6107 15.8651 20.4863 15.8769 20.3615C15.8886 20.2367 15.9487 20.1214 16.0443 20.0404C16.1399 19.9593 16.2635 19.9188 16.3885 19.9276C16.5136 19.9365 16.6302 19.9938 16.7135 20.0875C17.3888 20.8846 18.0485 21.7135 18.6749 22.5511C18.7282 22.6224 18.7606 22.7072 18.7685 22.7959C18.7765 22.8845 18.7595 22.9737 18.7197 23.0533C18.6799 23.1329 18.6186 23.1999 18.5429 23.2468C18.4672 23.2936 18.3799 23.3184 18.2909 23.3185H18.2912Z" fill="#1A73E9"/>
<path id="Vector_2" d="M7.99242 24.5509C7.97156 24.5509 7.95072 24.5496 7.93002 24.547C7.8675 24.5389 7.80718 24.5185 7.75252 24.4871C7.69785 24.4557 7.64991 24.4138 7.61144 24.3639C7.57297 24.3139 7.54471 24.2569 7.52829 24.196C7.51187 24.1351 7.5076 24.0716 7.51572 24.0091C7.55022 23.7439 7.58232 23.4814 7.61112 23.2291C7.71972 22.2781 7.80222 21.3181 7.85622 20.3758C7.86072 20.2966 7.86492 20.2192 7.86912 20.1418C7.92732 19.0318 7.94922 17.9122 7.93362 16.8118C7.93275 16.7488 7.94431 16.6862 7.96762 16.6276C7.99094 16.569 8.02557 16.5156 8.06953 16.4704C8.11349 16.4253 8.16592 16.3892 8.22383 16.3642C8.28174 16.3393 8.34399 16.3261 8.40702 16.3252H8.41392C8.54009 16.3252 8.66119 16.3748 8.75102 16.4634C8.84085 16.552 8.89219 16.6724 8.89392 16.7986C8.90982 17.9197 8.88762 19.0615 8.82792 20.1919C8.82402 20.2702 8.81952 20.3485 8.81502 20.4274C8.76012 21.3907 8.67612 22.369 8.56512 23.3374C8.53512 23.5948 8.50302 23.8624 8.46792 24.1324C8.45299 24.248 8.3965 24.3542 8.30901 24.4312C8.22151 24.5082 8.10898 24.5508 7.99242 24.5509Z" fill="#1A73E9"/>
<path id="Vector_3" d="M10.7834 26.5338C10.7564 26.5337 10.7294 26.5314 10.7027 26.5269C10.5772 26.5057 10.4653 26.4355 10.3915 26.3318C10.3178 26.228 10.2882 26.0992 10.3094 25.9737C10.5626 24.4761 10.751 22.9587 10.8692 21.4641C10.9106 20.9415 10.9439 20.4159 10.9682 19.9014C10.973 19.8045 10.9772 19.7088 10.9814 19.6125C10.9868 19.4852 11.0425 19.3653 11.1363 19.279C11.2302 19.1928 11.3544 19.1474 11.4817 19.1528C11.609 19.1581 11.7289 19.2139 11.8152 19.3077C11.9014 19.4015 11.9468 19.5257 11.9414 19.653C11.9372 19.7514 11.9327 19.8492 11.9279 19.9473C11.9033 20.4714 11.8679 21.0072 11.8271 21.54C11.7071 23.0625 11.5148 24.6081 11.2571 26.1336C11.2383 26.2456 11.1803 26.3472 11.0936 26.4205C11.0069 26.4938 10.897 26.5339 10.7834 26.5338Z" fill="#1A73E9"/>
<path id="Vector_4" d="M16.7644 12.0136C16.6471 12.0132 16.5341 11.9698 16.4466 11.8917C16.3591 11.8136 16.3032 11.7062 16.2895 11.5897C16.1296 10.234 15.9112 8.8582 15.6406 7.4998C15.6272 7.43757 15.6264 7.37331 15.6381 7.31075C15.6497 7.24819 15.6738 7.18858 15.7087 7.13539C15.7437 7.0822 15.7888 7.03649 15.8416 7.00092C15.8944 6.96534 15.9537 6.94062 16.0161 6.92819C16.0785 6.91576 16.1428 6.91587 16.2052 6.9285C16.2676 6.94114 16.3268 6.96605 16.3795 7.0018C16.4321 7.03754 16.4771 7.0834 16.5119 7.1367C16.5467 7.19001 16.5705 7.2497 16.582 7.3123C16.8577 8.6953 17.08 10.0966 17.242 11.4772C17.257 11.6036 17.2211 11.7307 17.1424 11.8307C17.0636 11.9307 16.9484 11.9953 16.822 12.0103C16.8029 12.0125 16.7836 12.0136 16.7644 12.0136Z" fill="#1A73E9"/>
<path id="Vector_5" d="M13.8601 13.8705C13.7382 13.8708 13.6208 13.8247 13.5317 13.7416C13.4425 13.6585 13.3883 13.5445 13.3801 13.4229C13.2208 11.4657 12.9503 9.51921 12.5701 7.59272C12.5568 7.53048 12.5561 7.46622 12.5679 7.40369C12.5797 7.34116 12.6038 7.28159 12.6388 7.22847C12.6739 7.17534 12.7191 7.12971 12.7719 7.09423C12.8248 7.05875 12.8841 7.03412 12.9466 7.02179C13.009 7.00946 13.0733 7.00967 13.1356 7.0224C13.198 7.03513 13.2571 7.06013 13.3097 7.09595C13.3623 7.13177 13.4073 7.17769 13.442 7.23104C13.4767 7.2844 13.5004 7.34411 13.5118 7.40672C13.9005 9.37099 14.1771 11.3558 14.3401 13.3515C14.3413 13.3645 14.3419 13.3774 14.3419 13.3902C14.3419 13.4534 14.3295 13.516 14.3053 13.5744C14.2811 13.6328 14.2456 13.6858 14.2008 13.7305C14.156 13.7751 14.1029 13.8104 14.0444 13.8345C13.986 13.8585 13.9233 13.8708 13.8601 13.8705Z" fill="#1A73E9"/>
<path id="Vector_6" d="M13.7166 27.3964C13.687 27.3964 13.6575 27.3936 13.6284 27.388C13.5665 27.3765 13.5074 27.3529 13.4545 27.3185C13.4017 27.2841 13.3562 27.2397 13.3205 27.1877C13.2848 27.1357 13.2598 27.0772 13.2467 27.0155C13.2337 26.9539 13.2329 26.8902 13.2444 26.8282C13.4982 25.4659 13.6989 24.0817 13.8414 22.7137L13.848 22.6492C13.8609 22.5226 13.9236 22.4062 14.0223 22.3258C14.121 22.2453 14.2476 22.2074 14.3742 22.2202C14.5009 22.2331 14.6173 22.2958 14.6977 22.3945C14.7782 22.4932 14.8161 22.6198 14.8032 22.7464L14.7966 22.8121C14.6511 24.2065 14.4465 25.6165 14.1882 27.004C14.1678 27.1142 14.1095 27.2138 14.0233 27.2854C13.9372 27.3571 13.8287 27.3964 13.7166 27.3964Z" fill="#1A73E9"/>
<path id="Vector_7" d="M17.3285 27.2027C17.2506 27.2028 17.1738 27.1839 17.1048 27.1477C17.0359 27.1115 16.9767 27.059 16.9325 26.9948C16.5809 26.4848 16.2191 25.9772 15.857 25.4894C15.2492 24.6689 14.6078 23.8556 13.9505 23.072C13.9454 23.066 13.9415 23.0609 13.937 23.0561C13.9325 23.0513 13.9298 23.048 13.9265 23.0438C13.2689 22.2608 12.5789 21.4886 11.8754 20.7485C11.6744 20.5364 11.4665 20.3216 11.2568 20.1095C11.2109 20.0624 11.1653 20.0165 11.1203 19.9712C10.6616 19.5086 10.1852 19.0469 9.70344 18.5996C9.18234 18.1139 8.64384 17.633 8.10204 17.1707C7.17984 16.382 6.21204 15.614 5.22834 14.888C5.12586 14.8124 5.05761 14.6992 5.03859 14.5733C5.01957 14.4474 5.05135 14.3191 5.12694 14.2166C5.20253 14.1141 5.31573 14.0459 5.44164 14.0269C5.56755 14.0079 5.69586 14.0396 5.79834 14.1152C6.80184 14.855 7.78674 15.6377 8.72604 16.4408C9.27804 16.9121 9.82734 17.4008 10.358 17.897C10.8491 18.3539 11.3348 18.8243 11.8016 19.2953C11.8484 19.3424 11.8955 19.3898 11.9417 19.4372C12.1547 19.6529 12.3668 19.8725 12.5717 20.0885C13.2869 20.8406 13.9889 21.626 14.6576 22.4222C14.6678 22.4338 14.6778 22.4455 14.6876 22.4573C15.3563 23.2544 16.0097 24.0827 16.6289 24.9173C16.9976 25.4141 17.366 25.9301 17.7239 26.45C17.7736 26.522 17.8026 26.6063 17.8079 26.6936C17.8131 26.7809 17.7944 26.868 17.7538 26.9454C17.7131 27.0229 17.6521 27.0878 17.5772 27.1331C17.5024 27.1784 17.4166 27.2023 17.3291 27.2024L17.3285 27.2027Z" fill="#1A73E9"/>
<path id="Vector_8" d="M20.1764 26.0097C20.0968 26.0098 20.0183 25.99 19.9482 25.9522C19.8781 25.9144 19.8184 25.8597 19.7747 25.7931C19.1765 24.8805 18.5474 23.9829 17.9054 23.1252C17.2904 22.3026 16.643 21.4893 15.9803 20.7072C15.4196 20.0451 14.8322 19.3872 14.2343 18.7512C14.1368 18.6474 14.0366 18.5412 13.9277 18.4284C13.2245 17.6937 12.491 16.9731 11.7473 16.2861C11.5508 16.104 11.3474 15.9189 11.1413 15.735C10.1093 14.8113 9.01913 13.9143 7.90133 13.0689C7.45673 12.7326 6.99713 12.3966 6.53543 12.0705C6.43384 11.9962 6.36551 11.8849 6.34517 11.7607C6.32484 11.6364 6.35412 11.5092 6.42671 11.4063C6.4993 11.3035 6.60939 11.2333 6.73326 11.2108C6.85713 11.1884 6.98486 11.2155 7.08893 11.2863C7.55963 11.6184 8.02763 11.9607 8.48033 12.3033C9.62033 13.1643 10.7303 14.0784 11.7818 15.0192C11.9918 15.2067 12.1997 15.396 12.3998 15.5814C13.1573 16.281 13.9052 17.0157 14.6216 17.7642C14.7323 17.8797 14.8349 17.9877 14.9345 18.0942C15.5438 18.7419 16.1423 19.4142 16.7135 20.0874C17.3885 20.8842 18.0482 21.7131 18.6746 22.5507C19.3286 23.4243 19.9691 24.3381 20.5781 25.2672C20.6254 25.3396 20.6523 25.4235 20.6559 25.5099C20.6594 25.5963 20.6396 25.682 20.5984 25.7581C20.5573 25.8342 20.4964 25.8977 20.4221 25.942C20.3478 25.9863 20.2629 26.0097 20.1764 26.0097Z" fill="#1A73E9"/>
<path id="Vector_9" d="M22.4887 24.0277C22.4086 24.0278 22.3297 24.0078 22.2593 23.9696C22.1889 23.9314 22.1292 23.8762 22.0855 23.809C21.4438 22.819 20.7655 21.8473 20.0683 20.9176C19.4581 20.1022 18.8146 19.2946 18.1555 18.5176C17.4964 17.7406 16.8118 16.9801 16.1098 16.2451C15.4699 15.5773 14.8072 14.9227 14.1409 14.3005C14.0697 14.2333 13.9992 14.1677 13.9294 14.1037C12.9298 13.1788 11.8765 12.283 10.7998 11.4397C10.0948 10.8862 9.35984 10.3411 8.61734 9.81966C8.56436 9.78402 8.51903 9.73817 8.48399 9.6848C8.44896 9.63142 8.42492 9.57159 8.4133 9.50881C8.40167 9.44603 8.40269 9.38156 8.41629 9.31917C8.42989 9.25679 8.45579 9.19775 8.49249 9.1455C8.52919 9.09325 8.57595 9.04885 8.63002 9.0149C8.68409 8.98095 8.7444 8.95812 8.8074 8.94777C8.8704 8.93741 8.93484 8.93972 8.99693 8.95457C9.05903 8.96943 9.11754 8.99652 9.16904 9.03426C9.92594 9.56586 10.6741 10.1212 11.392 10.6843C12.4888 11.5435 13.5598 12.4564 14.5798 13.3975C14.6515 13.4629 14.7253 13.5316 14.7982 13.6003C15.4759 14.2333 16.1509 14.9002 16.8034 15.5803C17.5195 16.3282 18.2212 17.1073 18.889 17.8957C19.5568 18.6841 20.2159 19.5106 20.8375 20.3413C21.547 21.2878 22.2382 22.2787 22.8919 23.2855C22.9389 23.3579 22.9655 23.4417 22.9689 23.5279C22.9723 23.6142 22.9524 23.6998 22.9112 23.7757C22.87 23.8516 22.8091 23.915 22.7349 23.9592C22.6607 24.0034 22.576 24.0267 22.4896 24.0268L22.4887 24.0277Z" fill="#1A73E9"/>
<path id="Vector_10" d="M20.4529 21.1094C20.3571 21.1094 20.2635 21.0808 20.1841 21.0272C20.1047 20.9736 20.0432 20.8975 20.0074 20.8087C19.9716 20.7198 19.9632 20.6223 19.9833 20.5287C20.0034 20.435 20.0511 20.3495 20.1202 20.2832C21.5248 18.934 23.0047 17.6653 24.5527 16.4834C24.654 16.4081 24.7809 16.3758 24.9058 16.3934C25.0308 16.4109 25.1438 16.477 25.2204 16.5773C25.297 16.6777 25.331 16.8041 25.3151 16.9293C25.2992 17.0545 25.2346 17.1684 25.1353 17.2463C23.6161 18.4062 22.1637 19.6512 20.7853 20.9753C20.6959 21.0612 20.5768 21.1093 20.4529 21.1094Z" fill="#1A73E9"/>
<path id="Vector_11" d="M14.2942 23.2157C14.2027 23.2156 14.1131 23.1894 14.036 23.1402C13.9589 23.0909 13.8975 23.0206 13.859 22.9376C13.8205 22.8546 13.8065 22.7623 13.8187 22.6716C13.831 22.581 13.8688 22.4957 13.9279 22.4258L13.939 22.4123L13.9591 22.3883C13.9999 22.3402 14.0498 22.3006 14.106 22.2718C14.1621 22.243 14.2234 22.2255 14.2863 22.2203C14.3491 22.2152 14.4124 22.2225 14.4725 22.2418C14.5326 22.2611 14.5882 22.2921 14.6363 22.3329C14.6845 22.3738 14.724 22.4237 14.7529 22.4798C14.7817 22.5359 14.7991 22.5972 14.8043 22.6601C14.8094 22.723 14.8021 22.7863 14.7828 22.8463C14.7635 22.9064 14.7325 22.9621 14.6917 23.0102L14.6803 23.024L14.6611 23.0471C14.6159 23.1002 14.5596 23.1427 14.4962 23.1718C14.4329 23.201 14.3639 23.2159 14.2942 23.2157Z" fill="#1A73E9"/>
<path id="Vector_12" d="M18.5217 18.6871C18.4257 18.6871 18.3319 18.6582 18.2525 18.6043C18.1731 18.5504 18.1116 18.474 18.0761 18.3848C18.0405 18.2956 18.0326 18.1978 18.0532 18.1041C18.0738 18.0103 18.1221 17.9249 18.1917 17.8588C19.9804 16.1653 21.887 14.6007 23.8971 13.177C24.001 13.1041 24.1296 13.0752 24.2547 13.0969C24.3798 13.1185 24.4912 13.1888 24.5646 13.2923C24.638 13.3959 24.6674 13.5244 24.6463 13.6496C24.6252 13.7748 24.5554 13.8865 24.4521 13.9603C22.479 15.3577 20.6075 16.8933 18.8517 18.5554C18.7626 18.6399 18.6445 18.6871 18.5217 18.6871Z" fill="#1A73E9"/>
<path id="Vector_13" d="M16.4566 16.3936C16.3603 16.3938 16.2662 16.3651 16.1865 16.3111C16.1068 16.2571 16.0452 16.1805 16.0096 16.091C15.974 16.0016 15.9661 15.9035 15.987 15.8096C16.0079 15.7156 16.0565 15.6301 16.1266 15.5641C18.0749 13.7322 20.161 12.0526 22.3666 10.5403C22.4186 10.5046 22.4771 10.4795 22.5387 10.4665C22.6004 10.4534 22.6641 10.4526 22.726 10.4642C22.788 10.4757 22.8471 10.4993 22.9 10.5337C22.9528 10.5681 22.9984 10.6125 23.0341 10.6645C23.0697 10.7165 23.0948 10.775 23.1079 10.8367C23.121 10.8983 23.1218 10.962 23.1102 11.024C23.0987 11.086 23.0751 11.1451 23.0407 11.1979C23.0063 11.2508 22.9619 11.2963 22.9099 11.332C20.7453 12.8164 18.6978 14.4649 16.7857 16.2628C16.6967 16.3468 16.5789 16.3935 16.4566 16.3936Z" fill="#1A73E9"/>
<path id="Vector_14" d="M14.2531 14.2301C14.1569 14.2303 14.0629 14.2015 13.9833 14.1476C13.9036 14.0936 13.842 14.017 13.8065 13.9276C13.7709 13.8382 13.763 13.7403 13.7838 13.6463C13.8046 13.5524 13.8532 13.4669 13.9231 13.4009C13.9864 13.3409 14.05 13.2809 14.1139 13.2224C15.9688 11.4933 17.9472 9.90164 20.0335 8.46023C20.1383 8.38779 20.2676 8.35994 20.3929 8.38281C20.5182 8.40568 20.6293 8.47739 20.7018 8.58218C20.7742 8.68697 20.8021 8.81624 20.7792 8.94156C20.7563 9.06688 20.6846 9.17799 20.5798 9.25043C18.5315 10.6656 16.5891 12.2281 14.7679 13.9256C14.7049 13.9838 14.6437 14.0414 14.5828 14.099C14.4937 14.1832 14.3757 14.2301 14.2531 14.2301Z" fill="#1A73E9"/>
<path id="Vector_15" d="M19.9039 9.09028C19.8089 9.0903 19.7161 9.06214 19.6371 9.00938C19.5582 8.95662 19.4967 8.88163 19.4603 8.79388C19.424 8.70614 19.4145 8.60959 19.4331 8.51646C19.4516 8.42333 19.4974 8.33779 19.5646 8.27068L22.5646 5.27068C22.6554 5.18446 22.7762 5.13711 22.9014 5.13871C23.0265 5.14031 23.1461 5.19075 23.2346 5.27926C23.3231 5.36777 23.3736 5.48736 23.3752 5.61253C23.3768 5.73769 23.3294 5.85853 23.2432 5.94928L20.2432 8.94928C20.1988 8.99404 20.1459 9.02954 20.0877 9.05374C20.0294 9.07794 19.967 9.09036 19.9039 9.09028Z" fill="#1A73E9"/>
<path id="Vector_16" d="M3.0571 27.3664C2.9777 27.3664 2.89955 27.3467 2.82965 27.309C2.75974 27.2714 2.70025 27.217 2.65652 27.1508C2.61279 27.0845 2.58618 27.0084 2.57908 26.9294C2.57197 26.8503 2.58458 26.7707 2.6158 26.6977L2.8858 26.0692C3.43876 24.7765 4.23419 23.6018 5.2291 22.6084L6.1201 21.7168C6.16467 21.6722 6.21759 21.6368 6.27584 21.6127C6.33408 21.5886 6.3965 21.5762 6.45955 21.5762C6.52259 21.5762 6.58501 21.5886 6.64325 21.6127C6.7015 21.6368 6.75442 21.6722 6.799 21.7168C6.84357 21.7614 6.87893 21.8143 6.90306 21.8725C6.92718 21.9308 6.9396 21.9932 6.9396 22.0562C6.9396 22.1193 6.92718 22.1817 6.90306 22.2399C6.87893 22.2982 6.84357 22.3511 6.799 22.3957L5.9074 23.2873C5.13038 24.0625 4.48573 24.9599 3.9991 25.9438C4.98301 25.4576 5.88052 24.8134 6.6559 24.0367L7.3177 23.3749C7.36227 23.3303 7.41519 23.2949 7.47344 23.2708C7.53168 23.2467 7.5941 23.2343 7.65715 23.2343C7.72019 23.2343 7.78261 23.2467 7.84085 23.2708C7.8991 23.2949 7.95202 23.3303 7.99659 23.3749C8.04117 23.4195 8.07653 23.4724 8.10066 23.5306C8.12478 23.5889 8.1372 23.6513 8.1372 23.7143C8.1372 23.7774 8.12478 23.8398 8.10066 23.898C8.07653 23.9563 8.04117 24.0092 7.99659 24.0538L7.3348 24.7156C6.3416 25.711 5.1668 26.5067 3.874 27.0598L3.2464 27.3298C3.18642 27.3547 3.12202 27.3671 3.0571 27.3664Z" fill="#1A73E9"/>
<path id="Vector_17" d="M21.5621 10.2898C21.4672 10.2898 21.3744 10.2617 21.2954 10.2089C21.2165 10.1562 21.155 10.0813 21.1186 9.99357C21.0823 9.90588 21.0727 9.80937 21.0912 9.71626C21.1097 9.62315 21.1554 9.53762 21.2225 9.47047L23.9933 6.69937C24.0376 6.65372 24.0906 6.61733 24.1491 6.59233C24.2076 6.56733 24.2705 6.5542 24.3341 6.55372C24.3977 6.55325 24.4608 6.56542 24.5197 6.58954C24.5786 6.61366 24.6321 6.64924 24.6771 6.69422C24.7221 6.7392 24.7577 6.79268 24.7818 6.85155C24.806 6.91041 24.8182 6.97349 24.8177 7.03711C24.8173 7.10074 24.8042 7.16363 24.7792 7.22215C24.7542 7.28067 24.7178 7.33364 24.6722 7.37797L21.9014 10.1491C21.8569 10.1938 21.8041 10.2292 21.7458 10.2533C21.6876 10.2775 21.6252 10.2899 21.5621 10.2898Z" fill="#1A73E9"/>
<path id="Vector_18" d="M24.8865 7.59246C24.3 7.59198 23.7319 7.3882 23.2789 7.01583C22.8258 6.64346 22.5159 6.12554 22.4019 5.55029C22.2879 4.97505 22.3768 4.37807 22.6536 3.86106C22.9304 3.34405 23.3778 2.93898 23.9198 2.71487C24.4617 2.49077 25.0645 2.46147 25.6256 2.63199C26.1867 2.80251 26.6713 3.16229 26.9969 3.65004C27.3225 4.13778 27.4689 4.72332 27.4112 5.30691C27.3535 5.8905 27.0953 6.43603 26.6805 6.85056C26.445 7.08625 26.1653 7.27312 25.8574 7.40044C25.5496 7.52775 25.2196 7.59301 24.8865 7.59246ZM24.8865 3.47976C24.5215 3.4797 24.1678 3.60618 23.8857 3.83766C23.6035 4.06914 23.4104 4.39129 23.3391 4.74922C23.2679 5.10715 23.3229 5.47871 23.4949 5.80059C23.667 6.12247 23.9452 6.37475 24.2824 6.51444C24.6196 6.65413 24.9947 6.67258 25.344 6.56667C25.6932 6.46075 25.9949 6.23701 26.1977 5.93357C26.4005 5.63013 26.4917 5.26577 26.456 4.90257C26.4202 4.53938 26.2596 4.19982 26.0016 3.94176C25.8555 3.79479 25.6817 3.67827 25.4903 3.59896C25.2989 3.51966 25.0936 3.47914 24.8865 3.47976Z" fill="#1A73E9"/>
<path id="Vector_19" d="M26.9427 27.3662C26.8776 27.3663 26.8132 27.3531 26.7534 27.3275L26.1255 27.0575C24.8329 26.505 23.6582 25.7099 22.665 24.7151L22.0029 24.053C21.9129 23.963 21.8623 23.8409 21.8623 23.7136C21.8623 23.5862 21.9129 23.4641 22.0029 23.3741C22.0929 23.2841 22.215 23.2335 22.3424 23.2335C22.4697 23.2335 22.5918 23.2841 22.6818 23.3741L23.3439 24.0362C24.1191 24.8132 25.0166 25.4576 26.0007 25.9436C25.5142 24.9598 24.8698 24.0625 24.093 23.2871L23.2014 22.3955C23.1549 22.3514 23.1178 22.2984 23.0921 22.2397C23.0664 22.181 23.0528 22.1178 23.0519 22.0537C23.0511 21.9897 23.063 21.9261 23.0872 21.8667C23.1113 21.8074 23.147 21.7534 23.1923 21.7081C23.2376 21.6628 23.2915 21.627 23.3508 21.6028C23.4102 21.5787 23.4737 21.5666 23.5378 21.5674C23.6019 21.5682 23.6651 21.5818 23.7238 21.6074C23.7826 21.6331 23.8356 21.6702 23.8797 21.7166L24.7713 22.6082C25.7664 23.6018 26.5621 24.7768 27.1152 26.0696L27.3852 26.6996C27.4164 26.7726 27.429 26.8522 27.4219 26.9313C27.4148 27.0104 27.3882 27.0864 27.3445 27.1527C27.3008 27.219 27.2413 27.2733 27.1714 27.311C27.1015 27.3486 27.0233 27.3683 26.9439 27.3683L26.9427 27.3662Z" fill="#1A73E9"/>
<path id="Vector_20" d="M10.0963 9.08998C10.0333 9.09008 9.97083 9.0777 9.91259 9.05356C9.85436 9.02941 9.80148 8.99397 9.75701 8.94928L6.75701 5.94928C6.67079 5.85853 6.62344 5.73769 6.62504 5.61253C6.62664 5.48736 6.67708 5.36777 6.76559 5.27926C6.8541 5.19075 6.97369 5.14031 7.09885 5.13871C7.22402 5.13711 7.34486 5.18446 7.43561 5.27068L10.4356 8.27068C10.5027 8.33781 10.5484 8.42332 10.5669 8.5164C10.5854 8.60948 10.5759 8.70596 10.5396 8.79364C10.5033 8.88132 10.4418 8.95627 10.3629 9.00902C10.284 9.06176 10.1912 9.08994 10.0963 9.08998Z" fill="#1A73E9"/>
<path id="Vector_21" d="M8.43875 10.2902C8.37584 10.2902 8.31356 10.2777 8.25548 10.2535C8.19741 10.2293 8.14469 10.1938 8.10035 10.1492L5.32895 7.37782C5.24112 7.28734 5.19242 7.16595 5.19337 7.03986C5.19432 6.91378 5.24485 6.79313 5.33402 6.70399C5.4232 6.61485 5.54387 6.56438 5.66996 6.56349C5.79604 6.5626 5.91742 6.61135 6.00785 6.69922L8.77925 9.47062C8.84651 9.5378 8.89231 9.62345 8.91083 9.71669C8.92935 9.80993 8.91977 9.90658 8.8833 9.99437C8.84683 10.0822 8.7851 10.1571 8.70596 10.2098C8.62682 10.2625 8.53382 10.2905 8.43875 10.2902Z" fill="#1A73E9"/>
<path id="Vector_22" d="M5.11393 7.59267C4.78078 7.59322 4.4508 7.52797 4.14293 7.40065C3.83507 7.27334 3.55538 7.08647 3.31993 6.85077C2.90397 6.43569 2.64483 5.88921 2.58669 5.30446C2.52854 4.71971 2.67498 4.13289 3.00106 3.64402C3.32713 3.15516 3.81265 2.7945 4.37486 2.62353C4.93707 2.45256 5.54118 2.48186 6.08421 2.70643C6.62724 2.93099 7.07558 3.33693 7.35282 3.85506C7.63007 4.37318 7.71904 4.97141 7.60459 5.54779C7.49013 6.12417 7.17934 6.64302 6.72516 7.0159C6.27099 7.38879 5.70156 7.59262 5.11393 7.59267ZM3.99883 6.17187C4.25678 6.4297 4.59614 6.59013 4.95911 6.6258C5.32207 6.66148 5.68618 6.57021 5.98939 6.36754C6.29261 6.16487 6.51617 5.86334 6.622 5.51432C6.72783 5.1653 6.70937 4.79038 6.56977 4.45344C6.43018 4.1165 6.17807 3.83839 5.85642 3.66648C5.53476 3.49457 5.16345 3.4395 4.80575 3.51066C4.44805 3.58182 4.12608 3.7748 3.8947 4.05672C3.66332 4.33864 3.53685 4.69206 3.53683 5.05677C3.537 5.475 3.70317 5.87607 3.99883 6.17187Z" fill="#1A73E9"/>
</g>
</svg>
