<svg width="30" height="30" viewBox="0 0 30 30" fill="none" xmlns="http://www.w3.org/2000/svg">
<g id="fi_9675660">
<path id="Vector" d="M24.5932 13.4437C24.466 13.4436 24.3439 13.393 24.2539 13.303L16.6972 5.74627C16.6366 5.68523 16.5934 5.609 16.5723 5.52556C16.5512 5.44211 16.5529 5.35452 16.5772 5.27197L17.134 3.37267C17.1919 3.1752 17.3002 2.99619 17.4482 2.85325C17.5962 2.7103 17.7789 2.60835 17.9783 2.55741C18.1777 2.50647 18.3869 2.5083 18.5853 2.56271C18.7838 2.61713 18.9646 2.72226 19.1101 2.86777L27.1324 10.8901C27.278 11.0356 27.3832 11.2165 27.4377 11.415C27.4921 11.6135 27.494 11.8228 27.443 12.0222C27.3921 12.2217 27.2901 12.4044 27.1471 12.5525C27.0041 12.7006 26.8251 12.8089 26.6275 12.8668L24.7282 13.4233C24.6845 13.4366 24.639 13.4434 24.5932 13.4437ZM17.5774 5.26867L24.7315 12.4228L26.3575 11.9464C26.3952 11.9353 26.4292 11.9147 26.4564 11.8865C26.4837 11.8582 26.5031 11.8234 26.5127 11.7855C26.5224 11.7475 26.5221 11.7076 26.5117 11.6698C26.5013 11.632 26.4813 11.5976 26.4535 11.5699L18.4303 3.54667C18.4026 3.51895 18.3682 3.49891 18.3304 3.48854C18.2926 3.47816 18.2527 3.47779 18.2148 3.48748C18.1768 3.49716 18.142 3.51656 18.1138 3.54377C18.0855 3.57098 18.0649 3.60506 18.0538 3.64267L17.5774 5.26867Z" fill="#1A73E9"/>
<path id="Vector_2" d="M17.9507 25.3589C17.8715 25.3589 17.7935 25.3392 17.7239 25.3016C14.9129 23.7926 12.3917 21.9302 10.2299 19.7702C8.06806 17.6102 6.20746 15.0872 4.69846 12.2762C4.66333 12.2106 4.64393 12.1377 4.6418 12.0634C4.63966 11.989 4.65485 11.9151 4.68616 11.8476C4.71746 11.7801 4.76403 11.7208 4.82219 11.6744C4.88035 11.628 4.9485 11.5958 5.02126 11.5802C7.74109 10.9957 10.3034 9.83311 12.5345 8.1713L16.7495 5.0213C16.8419 4.95222 16.9561 4.91875 17.0712 4.92701C17.1863 4.93528 17.2946 4.98473 17.3762 5.0663L24.9326 12.6242C25.0141 12.7058 25.0636 12.8141 25.0718 12.9292C25.0801 13.0443 25.0466 13.1585 24.9776 13.2509L21.8276 17.4656C20.1661 19.6967 19.0039 22.259 18.4199 24.9788C18.397 25.0864 18.3379 25.1828 18.2524 25.252C18.1669 25.3212 18.0603 25.3589 17.9504 25.3589H17.9507ZM5.84776 12.3746C8.66086 17.3819 12.6182 21.3392 17.6255 24.1523C18.2734 21.5264 19.4412 19.0571 21.0599 16.8902L23.9603 13.0085L16.9913 6.0395L13.1099 8.9402C11.9432 9.81165 10.6859 10.5547 9.35986 11.1563C8.22895 11.6691 7.0533 12.0769 5.84776 12.3746Z" fill="#1A73E9"/>
<path id="Vector_3" d="M18.9586 22.0696C18.8713 22.0696 18.7857 22.0458 18.7111 22.0006C16.5221 20.6865 14.5009 19.1112 12.6919 17.3095C10.8894 15.5002 9.31367 13.4785 7.99928 11.2888C7.96339 11.2348 7.9388 11.1742 7.92698 11.1105C7.91517 11.0467 7.91639 10.9813 7.93056 10.918C7.94472 10.8548 7.97155 10.7951 8.00942 10.7425C8.04729 10.6899 8.09542 10.6455 8.15091 10.612C8.20639 10.5785 8.26808 10.5566 8.33226 10.5476C8.39644 10.5386 8.46178 10.5427 8.52434 10.5596C8.5869 10.5766 8.64538 10.606 8.69626 10.6461C8.74714 10.6863 8.78936 10.7363 8.82038 10.7932C10.0951 12.9157 11.623 14.8755 13.3705 16.6294C15.1245 18.3768 17.0843 19.9047 19.2067 21.1795C19.2965 21.2337 19.3661 21.3158 19.4048 21.4133C19.4435 21.5107 19.4493 21.6182 19.4211 21.7193C19.393 21.8203 19.3325 21.9094 19.249 21.9728C19.1655 22.0362 19.0635 22.0705 18.9586 22.0705V22.0696Z" fill="#1A73E9"/>
<path id="Vector_4" d="M2.99945 27.4802C2.92823 27.4801 2.8579 27.4643 2.79357 27.4337C2.72924 27.4032 2.67251 27.3587 2.62751 27.3035C2.5825 27.2483 2.55034 27.1837 2.53337 27.1146C2.51639 27.0454 2.51502 26.9733 2.52935 26.9036C2.86463 25.2665 3.6739 23.7642 4.85645 22.5836L9.31025 18.1297C9.40048 18.0397 9.52279 17.9891 9.65028 17.9893C9.77776 17.9894 9.89998 18.0401 9.99005 18.1303C10.0801 18.2206 10.1307 18.3429 10.1305 18.4704C10.1304 18.5979 10.0797 18.7201 9.98945 18.8101L5.53535 23.2624C4.67586 24.1204 4.0357 25.1728 3.66905 26.3306C4.82681 25.9639 5.8792 25.3237 6.73715 24.4642L11.191 20.0101C11.281 19.9201 11.4031 19.8695 11.5304 19.8695C11.6577 19.8695 11.7798 19.9201 11.8699 20.0101C11.9599 20.1002 12.0105 20.2223 12.0105 20.3496C12.0105 20.4769 11.9599 20.599 11.8699 20.689L7.41605 25.1431C6.23542 26.3257 4.7331 27.135 3.09605 27.4703C3.06427 27.4768 3.0319 27.4801 2.99945 27.4802Z" fill="#1A73E9"/>
</g>
</svg>
