<svg width="30" height="30" viewBox="0 0 30 30" fill="none" xmlns="http://www.w3.org/2000/svg">
<g id="fi_11156193">
<path id="Vector" d="M18.698 27.48H11.3024C10.6754 27.4793 10.0743 27.2299 9.63095 26.7865C9.1876 26.3432 8.93821 25.7421 8.9375 25.1151V13.6911C8.93821 13.0641 9.1876 12.463 9.63095 12.0196C10.0743 11.5763 10.6754 11.3269 11.3024 11.3262H18.698C19.325 11.3269 19.9261 11.5763 20.3694 12.0196C20.8128 12.463 21.0622 13.0641 21.0629 13.6911V25.1151C21.0622 25.7421 20.8128 26.3432 20.3694 26.7865C19.9261 27.2299 19.325 27.4793 18.698 27.48ZM11.3024 12.2862C10.9299 12.2866 10.5729 12.4348 10.3095 12.6982C10.0461 12.9615 9.89798 13.3186 9.8975 13.6911V25.1151C9.89798 25.4875 10.0461 25.8446 10.3095 26.108C10.5729 26.3713 10.9299 26.5195 11.3024 26.52H18.698C19.0705 26.5195 19.4275 26.3713 19.6909 26.108C19.9543 25.8446 20.1024 25.4875 20.1029 25.1151V13.6911C20.1024 13.3186 19.9543 12.9615 19.6909 12.6982C19.4275 12.4348 19.0705 12.2866 18.698 12.2862H11.3024Z" fill="#CCD1D6"/>
<path id="Vector_2" d="M18.6622 12.2862C18.5349 12.2862 18.4128 12.2356 18.3228 12.1456C18.2328 12.0556 18.1822 11.9335 18.1822 11.8062V10.3845C18.182 10.1552 18.0908 9.93531 17.9286 9.77316C17.7665 9.61101 17.5466 9.51981 17.3173 9.51957H12.6823C12.453 9.51981 12.2332 9.61101 12.071 9.77316C11.9089 9.93531 11.8177 10.1552 11.8174 10.3845V11.8062C11.8174 11.9335 11.7669 12.0556 11.6768 12.1456C11.5868 12.2356 11.4647 12.2862 11.3374 12.2862C11.2101 12.2862 11.088 12.2356 10.998 12.1456C10.908 12.0556 10.8574 11.9335 10.8574 11.8062V10.3845C10.858 9.90065 11.0504 9.4368 11.3925 9.09469C11.7347 8.75257 12.1985 8.56013 12.6823 8.55957H17.3173C17.8011 8.56013 18.265 8.75257 18.6071 9.09469C18.9492 9.4368 19.1417 9.90065 19.1422 10.3845V11.8062C19.1422 11.9335 19.0917 12.0556 19.0016 12.1456C18.9116 12.2356 18.7895 12.2862 18.6622 12.2862Z" fill="#CCD1D6"/>
<path id="Vector_3" d="M17.2521 9.51996C17.1587 9.51998 17.0675 9.49281 16.9893 9.44177C16.9112 9.39073 16.8497 9.31803 16.8123 9.23256L16.2669 7.98936C15.7869 6.89766 15.6141 6.10476 15.9918 4.79976C16.024 4.68869 16.0373 4.57296 16.0311 4.45746C16.0162 4.2024 15.908 3.96175 15.727 3.78145C15.5459 3.60116 15.3049 3.49386 15.0498 3.48006C14.9103 3.47361 14.771 3.4955 14.6403 3.54441C14.5096 3.59331 14.3902 3.66822 14.2892 3.7646C14.1883 3.86098 14.1079 3.97683 14.053 4.10515C13.9981 4.23347 13.9698 4.37159 13.9698 4.51116C13.9696 4.60231 13.9814 4.69308 14.0049 4.78116C14.3319 5.99856 14.2701 6.76986 13.7502 7.95456L13.1883 9.23256C13.1629 9.29029 13.1265 9.34248 13.081 9.38613C13.0355 9.42979 12.9819 9.46406 12.9232 9.48698C12.8645 9.50991 12.8018 9.52105 12.7388 9.51975C12.6757 9.51846 12.6136 9.50477 12.5559 9.47946C12.4981 9.45415 12.4459 9.41771 12.4023 9.37223C12.3586 9.32675 12.3244 9.27312 12.3014 9.21439C12.2785 9.15567 12.2674 9.09301 12.2687 9.02998C12.2699 8.96695 12.2836 8.90479 12.309 8.84706L12.8703 7.56906C13.3029 6.58326 13.3473 6.03726 13.0767 5.02956C13.0316 4.86086 13.0088 4.68698 13.0089 4.51236C13.0085 4.22684 13.0695 3.94459 13.1878 3.68471C13.306 3.42483 13.4788 3.19341 13.6943 3.00612C13.9098 2.81883 14.163 2.68005 14.4368 2.59917C14.7106 2.5183 14.9987 2.49723 15.2813 2.53738C15.564 2.57753 15.8348 2.67797 16.0752 2.8319C16.3157 2.98583 16.5203 3.18964 16.6751 3.42953C16.8299 3.66943 16.9314 3.9398 16.9726 4.22232C17.0138 4.50485 16.9938 4.79293 16.914 5.06706C16.6392 6.01656 16.689 6.56166 17.1459 7.60356L17.6916 8.84676C17.7237 8.91983 17.7371 8.99975 17.7305 9.07931C17.724 9.15886 17.6977 9.23552 17.6541 9.30236C17.6104 9.3692 17.5508 9.4241 17.4806 9.46209C17.4104 9.50009 17.3319 9.51997 17.2521 9.51996Z" fill="#CCD1D6"/>
<path id="Vector_4" d="M10.6765 14.7325H9.41652C9.28922 14.7325 9.16713 14.6819 9.07711 14.5919C8.9871 14.5019 8.93652 14.3798 8.93652 14.2525C8.93652 14.1252 8.9871 14.0031 9.07711 13.9131C9.16713 13.823 9.28922 13.7725 9.41652 13.7725H10.6765C10.8038 13.7725 10.9259 13.823 11.0159 13.9131C11.106 14.0031 11.1565 14.1252 11.1565 14.2525C11.1565 14.3798 11.106 14.5019 11.0159 14.5919C10.9259 14.6819 10.8038 14.7325 10.6765 14.7325Z" fill="#CCD1D6"/>
<path id="Vector_5" d="M10.6765 17.92H9.41652C9.28922 17.92 9.16713 17.8694 9.07711 17.7794C8.9871 17.6894 8.93652 17.5673 8.93652 17.44C8.93652 17.3127 8.9871 17.1906 9.07711 17.1005C9.16713 17.0105 9.28922 16.96 9.41652 16.96H10.6765C10.8038 16.96 10.9259 17.0105 11.0159 17.1005C11.106 17.1906 11.1565 17.3127 11.1565 17.44C11.1565 17.5673 11.106 17.6894 11.0159 17.7794C10.9259 17.8694 10.8038 17.92 10.6765 17.92Z" fill="#CCD1D6"/>
<path id="Vector_6" d="M10.6765 21.1065H9.41652C9.28922 21.1065 9.16713 21.0559 9.07711 20.9659C8.9871 20.8759 8.93652 20.7538 8.93652 20.6265C8.93652 20.4992 8.9871 20.3771 9.07711 20.2871C9.16713 20.1971 9.28922 20.1465 9.41652 20.1465H10.6765C10.8038 20.1465 10.9259 20.1971 11.0159 20.2871C11.106 20.3771 11.1565 20.4992 11.1565 20.6265C11.1565 20.7538 11.106 20.8759 11.0159 20.9659C10.9259 21.0559 10.8038 21.1065 10.6765 21.1065Z" fill="#CCD1D6"/>
<path id="Vector_7" d="M10.6765 24.293H9.41652C9.28922 24.293 9.16713 24.2424 9.07711 24.1524C8.9871 24.0624 8.93652 23.9403 8.93652 23.813C8.93652 23.6857 8.9871 23.5636 9.07711 23.4736C9.16713 23.3836 9.28922 23.333 9.41652 23.333H10.6765C10.8038 23.333 10.9259 23.3836 11.0159 23.4736C11.106 23.5636 11.1565 23.6857 11.1565 23.813C11.1565 23.9403 11.106 24.0624 11.0159 24.1524C10.9259 24.2424 10.8038 24.293 10.6765 24.293Z" fill="#CCD1D6"/>
<path id="Vector_8" d="M17.9973 16.7399C17.5785 16.7399 17.1636 16.722 16.7526 16.6862C15.9489 16.6163 15.3327 16.4963 14.7366 16.3799C13.9296 16.2224 13.2327 16.0865 12.2145 16.1036C11.3122 16.1196 10.4156 16.2506 9.54655 16.4936C9.48557 16.5115 9.42164 16.5171 9.35848 16.51C9.29532 16.503 9.23418 16.4835 9.17862 16.4526C9.12306 16.4218 9.07418 16.3802 9.03482 16.3303C8.99545 16.2804 8.96638 16.2232 8.9493 16.162C8.93222 16.1008 8.92747 16.0368 8.93531 15.9737C8.94316 15.9107 8.96345 15.8498 8.99501 15.7946C9.02657 15.7395 9.06877 15.6911 9.11916 15.6524C9.16955 15.6137 9.22713 15.5853 9.28855 15.569C10.2364 15.3035 11.2143 15.1601 12.1986 15.1421C13.3176 15.1238 14.0964 15.2753 14.9208 15.4361C15.4923 15.5477 16.0833 15.6629 16.836 15.7286C18.0599 15.8302 19.2918 15.773 20.5011 15.5585C20.6252 15.5397 20.7517 15.5701 20.8536 15.6435C20.9555 15.7168 21.0246 15.8272 21.0461 15.9509C21.0677 16.0745 21.0398 16.2017 20.9687 16.3052C20.8975 16.4086 20.7887 16.48 20.6655 16.5041C19.7845 16.6592 18.8918 16.738 17.9973 16.7399Z" fill="#CCD1D6"/>
</g>
</svg>
