<svg width="30" height="30" viewBox="0 0 30 30" fill="none" xmlns="http://www.w3.org/2000/svg">
<g id="fi_9629913">
<path id="Vector" d="M18.2697 21.3566C17.7156 21.3566 17.2167 21.335 16.8045 21.3077C15.9001 21.2433 15.0092 21.0528 14.1576 20.7416C13.5597 20.5259 13.0563 20.5043 12.7395 20.5238C12.5827 20.5322 12.4328 20.5916 12.3129 20.693C11.9436 21.0125 11.5029 21.1511 11.4528 21.1658C11.4214 21.1752 11.3892 21.1814 11.3565 21.1841C10.3605 21.2711 9.47191 21.3071 8.68411 21.3071C6.35791 21.3071 4.91191 20.9951 4.16941 20.7689C3.7259 20.6362 3.32833 20.3822 3.02161 20.0354C2.30371 19.2164 2.35471 18.1928 3.16171 17.2268C3.33 17.0269 3.42279 16.7742 3.42391 16.5128C3.42399 16.4135 3.45491 16.3166 3.5124 16.2355C3.56989 16.1544 3.65113 16.0932 3.74489 16.0603C3.83865 16.0274 3.94032 16.0244 4.03587 16.0517C4.13141 16.079 4.21612 16.1353 4.27831 16.2128C4.32571 16.2563 4.94791 16.7738 7.36171 16.5932C8.17183 16.5323 8.98574 16.5423 9.79411 16.6232C11.3052 16.7756 12.4359 17.0165 13.1559 17.339C13.6359 17.459 18.2859 18.6098 20.247 18.2621C20.271 18.2579 20.2953 18.2555 20.3196 18.2549C20.3514 18.2549 23.5692 18.1532 26.7324 16.3349C26.799 16.2967 26.8739 16.2749 26.9506 16.2716C27.0274 16.2682 27.1038 16.2834 27.1735 16.3157C27.2432 16.348 27.3041 16.3966 27.3512 16.4574C27.3982 16.5182 27.4299 16.5893 27.4437 16.6649C27.5004 16.9713 27.4903 17.2862 27.414 17.5883C27.3377 17.8904 27.1971 18.1724 27.0018 18.4151C26.8373 18.6195 26.6417 18.7968 26.4222 18.9404L25.6179 19.466C24.4179 20.3147 22.8744 20.8862 21.0261 21.1649C20.1133 21.2968 19.192 21.3609 18.2697 21.3566ZM12.9249 19.5581C13.4566 19.5609 13.9838 19.6557 14.4831 19.8383C15.2505 20.1192 16.0534 20.2913 16.8684 20.3498C17.2701 20.3765 17.742 20.3963 18.2592 20.3963C20.3103 20.3963 23.0811 20.0861 25.0692 18.6749L25.0845 18.6644L25.8963 18.1337C26.0315 18.0453 26.1518 17.9362 26.253 17.8103C26.3044 17.7464 26.3493 17.6775 26.3868 17.6045C23.4522 19.0535 20.7447 19.1993 20.3787 19.2125C20.0463 19.2635 19.7103 19.2873 19.374 19.2836C16.884 19.2836 13.0611 18.3056 12.8757 18.2576C12.8476 18.2501 12.8202 18.24 12.7938 18.2276C12.1821 17.9441 11.1111 17.7176 9.69721 17.5763C8.94454 17.5014 8.18676 17.4924 7.43251 17.5493C6.14251 17.6456 5.12041 17.5715 4.39081 17.3294C4.33621 17.3114 4.28491 17.2928 4.23631 17.2739C4.15478 17.48 4.04117 17.6719 3.89971 17.8424C3.15661 18.7316 3.59971 19.2368 3.74461 19.4024C3.93352 19.6145 4.17789 19.7696 4.45021 19.8503C5.19331 20.0765 7.33501 20.5649 11.2167 20.2325C11.3871 20.1709 11.5458 20.0809 11.6862 19.9664C11.9655 19.7281 12.3148 19.5873 12.6813 19.5653C12.7539 19.5599 12.8358 19.5581 12.9249 19.5581Z" fill="#1A73E9"/>
<path id="Vector_2" d="M3.90313 16.992C3.78419 16.9918 3.66955 16.9475 3.58142 16.8677C3.49329 16.7878 3.43795 16.678 3.42613 16.5597C3.41983 16.4973 3.27793 15.0102 3.88063 13.2351C4.14463 12.2806 4.3013 11.2996 4.34773 10.3104C4.36903 9.8547 4.49773 9.5229 4.73323 9.3237C4.81834 9.25242 4.91733 9.19962 5.02392 9.16863C5.13051 9.13765 5.24238 9.12915 5.35243 9.1437C6.05053 9.2256 6.61063 9.7656 6.93013 10.6641C7.21003 11.4525 7.93933 12.1341 8.79013 11.9097C9.26533 11.7852 9.91993 11.4378 10.1449 11.1165C10.1668 11.0631 10.1797 10.9035 10.1878 10.8072C10.1954 10.6635 10.2155 10.5208 10.2478 10.3806C10.343 10.0139 10.4933 9.66384 10.6936 9.3423L10.9885 8.8689C11.0558 8.76081 11.1633 8.68388 11.2874 8.65505C11.4114 8.62622 11.5418 8.64783 11.6499 8.71515C11.758 8.78246 11.8349 8.88995 11.8637 9.01398C11.8926 9.138 11.8709 9.26841 11.8036 9.3765L11.5087 9.8499C11.3595 10.0889 11.2476 10.3493 11.1769 10.6221C11.1601 10.7091 11.1492 10.7973 11.1445 10.8858C11.1241 11.1357 11.1007 11.4189 10.9426 11.6505C10.5226 12.2646 9.57163 12.6972 9.03373 12.8382C8.84295 12.8889 8.64643 12.9148 8.44903 12.9153C7.30453 12.9153 6.39013 12.0153 6.02383 10.9857C5.92243 10.7004 5.70433 10.2309 5.33863 10.1181C5.31885 10.1967 5.30759 10.2771 5.30503 10.3581C5.25514 11.4237 5.08588 12.4803 4.80043 13.5081C4.79803 13.5171 4.79533 13.5261 4.79233 13.5348C4.25533 15.1077 4.37863 16.4532 4.37983 16.4667C4.3923 16.5933 4.354 16.7197 4.27333 16.8181C4.19266 16.9165 4.07624 16.9788 3.94963 16.9914C3.93415 16.9924 3.91863 16.9926 3.90313 16.992Z" fill="#1A73E9"/>
<path id="Vector_3" d="M26.5006 16.8428C26.4934 16.8077 26.3161 15.9821 25.6147 15.8684L24.6079 15.7343C23.8092 15.6274 23.0188 15.4661 22.2421 15.2513C20.9184 14.8843 19.6423 14.3633 18.4399 13.6991L18.4339 13.6958L11.1595 9.54016C11.1035 9.50961 11.054 9.46819 11.0142 9.41831C10.9743 9.36843 10.9448 9.3111 10.9274 9.24968C10.91 9.18825 10.905 9.12397 10.9127 9.06059C10.9204 8.99721 10.9407 8.93601 10.9724 8.88057C11.0041 8.82513 11.0465 8.77657 11.0972 8.73773C11.1478 8.69888 11.2057 8.67054 11.2675 8.65435C11.3293 8.63817 11.3936 8.63446 11.4568 8.64346C11.52 8.65246 11.5808 8.67398 11.6356 8.70676L18.907 12.8606C20.0432 13.4877 21.2489 13.9796 22.4995 14.3261C23.2336 14.5291 23.9808 14.6817 24.7357 14.7827L25.7485 14.9177L25.7596 14.9192C27.136 15.1352 27.4318 16.5968 27.4438 16.6592L26.5009 16.8392L26.5006 16.8428Z" fill="#1A73E9"/>
<path id="Vector_4" d="M19.4034 16.6996C19.1319 16.6992 18.8691 16.6036 18.6606 16.4296L18.1959 16.0447C18.174 16.0256 18.1482 16.0114 18.1203 16.0033C18.0923 15.9952 18.063 15.9934 18.0342 15.9979L17.4366 16.1023C17.2389 16.1363 17.0358 16.1185 16.847 16.0508C16.6582 15.9831 16.4901 15.8678 16.359 15.7159L15.7821 15.0604C15.7601 15.0335 15.7318 15.0124 15.6998 14.999C15.6677 14.9855 15.6328 14.9802 15.5982 14.9833L15.3282 15.0187C14.8341 15.0823 14.3625 14.8264 14.1264 14.3671L13.8351 13.8004C13.7871 13.7071 13.704 13.654 13.6182 13.6615L13.1898 13.6987C12.6936 13.7416 12.2178 13.453 12.0057 12.9805L11.6967 12.2905C11.6556 12.1987 11.5791 12.1405 11.4969 12.1351L10.7601 12.0991C10.5551 12.0886 10.3565 12.024 10.1844 11.9119C10.0776 11.8426 10.0028 11.7337 9.97631 11.6092C9.94984 11.4846 9.97393 11.3547 10.0433 11.2479C10.1126 11.1411 10.2215 11.0663 10.3461 11.0398C10.4706 11.0133 10.6005 11.0374 10.7073 11.1067C10.7372 11.1265 10.7718 11.1381 10.8075 11.1403L11.544 11.1763C11.9892 11.1982 12.384 11.4748 12.5727 11.8978L12.8814 12.586C12.9273 12.688 13.0158 12.7495 13.1067 12.7408L13.5342 12.7036C14.0094 12.6619 14.4624 12.9196 14.6889 13.36L14.9796 13.9258C15.0285 14.0212 15.117 14.0758 15.2046 14.0641L15.4746 14.029C15.665 14.0058 15.8581 14.0296 16.0371 14.0984C16.2161 14.1672 16.3754 14.2788 16.5012 14.4235L17.0781 15.079C17.1008 15.1072 17.1304 15.1289 17.164 15.1421C17.1976 15.1553 17.2341 15.1596 17.2698 15.1543L17.8671 15.0499C18.0328 15.0213 18.2027 15.0291 18.365 15.0729C18.5273 15.1166 18.6782 15.1952 18.807 15.3031L19.2732 15.6904C19.3014 15.7155 19.3362 15.7319 19.3735 15.7376C19.4108 15.7432 19.4489 15.7379 19.4832 15.7222C19.6389 15.5542 19.9752 14.7175 20.0646 14.1001C20.0829 13.9742 20.1505 13.8606 20.2525 13.7844C20.3546 13.7083 20.4827 13.6758 20.6087 13.6941C20.7347 13.7124 20.8482 13.78 20.9244 13.882C21.0005 13.9841 21.033 14.1122 21.0147 14.2381C20.9634 14.5927 20.8305 15.0742 20.6679 15.4948C20.3766 16.249 20.1357 16.4548 19.9797 16.5448C19.8045 16.6462 19.6058 16.6996 19.4034 16.6996Z" fill="#1A73E9"/>
<path id="Vector_5" d="M8.85903 17.5197C8.76513 17.5199 8.67324 17.4925 8.59474 17.441C8.51624 17.3895 8.45457 17.3161 8.41737 17.2299C8.38017 17.1437 8.36908 17.0484 8.38546 16.956C8.40184 16.8635 8.44497 16.7779 8.50953 16.7097L10.1862 14.9277L7.98273 12.7719C7.8932 12.6826 7.84255 12.5615 7.84181 12.435C7.84106 12.3085 7.89026 12.1868 7.97873 12.0964C8.0672 12.006 8.18777 11.9542 8.31424 11.9522C8.44072 11.9502 8.56286 11.9982 8.65413 12.0858L11.1939 14.5728C11.2837 14.6607 11.3354 14.7803 11.3379 14.9058C11.3405 15.0314 11.2938 15.153 11.2077 15.2445L9.20973 17.3697C9.16463 17.4173 9.11024 17.4552 9.04992 17.481C8.9896 17.5068 8.92463 17.52 8.85903 17.5197Z" fill="#1A73E9"/>
<path id="Vector_6" d="M12.8897 13.6717C12.8036 13.6716 12.7192 13.6484 12.6452 13.6045C12.5712 13.5606 12.5104 13.4977 12.4691 13.4222C12.4278 13.3467 12.4075 13.2615 12.4104 13.1755C12.4133 13.0896 12.4393 13.0059 12.4856 12.9334L13.9895 10.5766C14.0579 10.4692 14.1663 10.3934 14.2906 10.3659C14.415 10.3383 14.5452 10.3613 14.6526 10.4298C14.76 10.4982 14.8359 10.6066 14.8634 10.7309C14.8909 10.8553 14.8679 10.9855 14.7995 11.0929L13.2956 13.4497C13.2521 13.5179 13.1921 13.574 13.1211 13.6129C13.0502 13.6517 12.9706 13.6719 12.8897 13.6717Z" fill="#1A73E9"/>
<path id="Vector_7" d="M16.044 15.1297C15.9579 15.1296 15.8735 15.1064 15.7995 15.0625C15.7255 15.0186 15.6647 14.9556 15.6234 14.8801C15.5821 14.8047 15.5618 14.7195 15.5647 14.6335C15.5676 14.5475 15.5936 14.4639 15.6399 14.3914L16.983 12.2866C17.0514 12.1792 17.1598 12.1034 17.2841 12.0758C17.4085 12.0483 17.5387 12.0713 17.6461 12.1397C17.7535 12.2082 17.8294 12.3165 17.8569 12.4409C17.8844 12.5653 17.8614 12.6955 17.793 12.8029L16.4499 14.9077C16.4064 14.9759 16.3464 15.032 16.2754 15.0708C16.2045 15.1096 16.1249 15.1299 16.044 15.1297Z" fill="#1A73E9"/>
</g>
</svg>
