<svg width="50" height="54" viewBox="0 0 50 54" fill="none" xmlns="http://www.w3.org/2000/svg">
<path fill-rule="evenodd" clip-rule="evenodd" d="M20.209 15.9976C22.3929 15.0467 24.8104 14.7673 27.1537 15.195C29.4969 15.6226 31.6599 16.738 33.3671 18.399C35.0744 20.06 36.2487 22.1915 36.7406 24.5221C37.2325 26.8527 37.0196 29.277 36.1291 31.4862C35.2386 33.6954 33.7108 35.5897 31.7402 36.9277C29.7696 38.2658 27.4454 38.9871 25.0634 38.9998C22.6815 39.0126 20.3497 38.3162 18.3649 36.9993C16.3801 35.6824 14.8321 33.8046 13.918 31.6051C13.8574 31.468 13.8248 31.3202 13.8222 31.1703C13.8195 31.0205 13.8468 30.8716 13.9025 30.7324C13.9582 30.5933 14.0411 30.4666 14.1464 30.36C14.2517 30.2533 14.3772 30.1688 14.5156 30.1113C14.6541 30.0538 14.8026 30.0246 14.9524 30.0253C15.1023 30.0261 15.2505 30.0567 15.3884 30.1155C15.5263 30.1743 15.651 30.2601 15.7552 30.3678C15.8595 30.4755 15.9412 30.6029 15.9955 30.7426C16.8325 32.7572 18.3211 34.433 20.223 35.5017C22.125 36.5704 24.3304 36.9704 26.4865 36.6376C28.6426 36.3048 30.6248 35.2585 32.116 33.6661C33.6072 32.0737 34.5213 30.0272 34.712 27.8539C34.9027 25.6806 34.359 23.5061 33.1678 21.6784C31.9767 19.8506 30.207 18.4751 28.1418 17.772C26.0765 17.0688 23.8352 17.0786 21.7762 17.7998C20.2954 18.3185 18.9705 19.1836 17.9061 20.3122C17.364 20.887 17.8206 21.7501 18.6107 21.7501H19.375C19.6734 21.7501 19.9595 21.8686 20.1705 22.0796C20.3815 22.2905 20.5 22.5767 20.5 22.8751C20.5 23.1734 20.3815 23.4596 20.1705 23.6706C19.9595 23.8815 19.6734 24.0001 19.375 24.0001H14C13.4477 24.0001 13 23.5523 13 23.0001V17.6251C13 17.3267 13.1185 17.0405 13.3295 16.8296C13.5405 16.6186 13.8266 16.5001 14.125 16.5001C14.4234 16.5001 14.7095 16.6186 14.9205 16.8296C15.1315 17.0405 15.25 17.3267 15.25 17.6251C15.25 18.3688 16.2749 18.728 16.819 18.2209C17.8106 17.2967 18.9559 16.543 20.209 15.9976ZM25 19.5001C25.2984 19.5001 25.5845 19.6186 25.7955 19.8296C26.0065 20.0405 26.125 20.3267 26.125 20.6251V26.1208C26.125 26.3861 26.2304 26.6404 26.4179 26.828L29.176 29.5861C29.2865 29.6891 29.3752 29.8133 29.4367 29.9513C29.4982 30.0893 29.5312 30.2382 29.5339 30.3893C29.5366 30.5403 29.5088 30.6904 29.4522 30.8305C29.3956 30.9705 29.3114 31.0978 29.2046 31.2046C29.0977 31.3115 28.9705 31.3957 28.8304 31.4522C28.6903 31.5088 28.5403 31.5366 28.3892 31.534C28.2382 31.5313 28.0892 31.4982 27.9512 31.4367C27.8132 31.3752 27.689 31.2866 27.586 31.1761L24.205 27.7951L24.1679 27.758C23.9804 27.5704 23.875 27.3161 23.875 27.0508V20.6251C23.875 20.3267 23.9935 20.0405 24.2045 19.8296C24.4155 19.6186 24.7016 19.5001 25 19.5001Z" fill="#919094"/>
</svg>
