<svg width="30" height="30" viewBox="0 0 30 30" fill="none" xmlns="http://www.w3.org/2000/svg">
<g id="fi_11324246">
<path id="Vector" d="M15.0005 11.0446C14.8733 11.0447 14.7512 10.9942 14.6612 10.9042L10.796 7.03903C10.5468 6.79394 10.3486 6.50194 10.2128 6.17985C10.077 5.85777 10.0064 5.51199 10.0049 5.16245C10.0034 4.81292 10.0712 4.46656 10.2043 4.14336C10.3374 3.82015 10.5332 3.5265 10.7803 3.27934C11.0275 3.03218 11.3211 2.83641 11.6443 2.70333C11.9675 2.57024 12.3139 2.50247 12.6634 2.50393C13.013 2.50539 13.3587 2.57605 13.6808 2.71183C14.0029 2.8476 14.2949 3.04582 14.54 3.29503L15.0005 3.75553L15.461 3.29503C15.7061 3.04582 15.9981 2.8476 16.3202 2.71183C16.6423 2.57605 16.9881 2.50539 17.3376 2.50393C17.6871 2.50247 18.0335 2.57024 18.3567 2.70333C18.6799 2.83641 18.9735 3.03218 19.2207 3.27934C19.4679 3.5265 19.6636 3.82015 19.7967 4.14336C19.9298 4.46656 19.9976 4.81292 19.9961 5.16245C19.9946 5.51199 19.924 5.85777 19.7882 6.17985C19.6524 6.50194 19.4542 6.79394 19.205 7.03903L15.3398 10.9042C15.2498 10.9942 15.1277 11.0447 15.0005 11.0446ZM12.668 3.47953C12.3343 3.47936 12.008 3.57819 11.7304 3.76352C11.4528 3.94885 11.2365 4.21234 11.1087 4.52067C10.981 4.82899 10.9475 5.16828 11.0127 5.49561C11.0778 5.82294 11.2386 6.12359 11.4746 6.35953L15.0005 9.88603L18.5264 6.35953C18.8313 6.04081 18.9993 5.61537 18.9944 5.17432C18.9895 4.73327 18.8122 4.31166 18.5003 3.99977C18.1884 3.68787 17.7668 3.5105 17.3257 3.50561C16.8847 3.50073 16.4592 3.66872 16.1405 3.97363L15.3404 4.77373C15.2504 4.86368 15.1284 4.91421 15.0011 4.91421C14.8739 4.91421 14.7518 4.86368 14.6618 4.77373L13.8605 3.97363C13.7041 3.81682 13.5182 3.69246 13.3135 3.60766C13.1089 3.52287 12.8895 3.47933 12.668 3.47953Z" fill="#CCD1D6"/>
<path id="Vector_2" d="M5.99953 24.334H2.99953C2.87223 24.334 2.75014 24.2835 2.66012 24.1934C2.5701 24.1034 2.51953 23.9813 2.51953 23.854C2.51953 23.7267 2.5701 23.6046 2.66012 23.5146C2.75014 23.4246 2.87223 23.374 2.99953 23.374H5.99953C6.12684 23.374 6.24893 23.4246 6.33894 23.5146C6.42896 23.6046 6.47953 23.7267 6.47953 23.854C6.47953 23.9813 6.42896 24.1034 6.33894 24.1934C6.24893 24.2835 6.12684 24.334 5.99953 24.334Z" fill="#CCD1D6"/>
<path id="Vector_3" d="M5.99953 27.4804C5.87223 27.4804 5.75014 27.4299 5.66012 27.3398C5.5701 27.2498 5.51953 27.1277 5.51953 27.0004V21.9868C5.51953 21.8595 5.5701 21.7374 5.66012 21.6474C5.75014 21.5574 5.87223 21.5068 5.99953 21.5068C6.12684 21.5068 6.24892 21.5574 6.33894 21.6474C6.42896 21.7374 6.47953 21.8595 6.47953 21.9868V27.0004C6.47953 27.1277 6.42896 27.2498 6.33894 27.3398C6.24892 27.4299 6.12684 27.4804 5.99953 27.4804Z" fill="#CCD1D6"/>
<path id="Vector_4" d="M14.9995 27.4798H2.99953C2.87223 27.4798 2.75014 27.4292 2.66012 27.3392C2.5701 27.2492 2.51953 27.1271 2.51953 26.9998V21.6298C2.52064 20.6302 2.9182 19.6719 3.62498 18.965C4.33176 18.2582 5.29005 17.8606 6.28963 17.8594H7.53583C7.66314 17.8594 7.78522 17.9099 7.87524 18C7.96526 18.09 8.01583 18.2121 8.01583 18.3394C8.01583 18.4667 7.96526 18.5888 7.87524 18.6788C7.78522 18.7688 7.66314 18.8194 7.53583 18.8194H6.28963C5.54456 18.8202 4.83026 19.1166 4.30345 19.6435C3.77663 20.1704 3.48033 20.8847 3.47953 21.6298V26.5198H14.5195V21.6298C14.5187 20.8848 14.2223 20.1705 13.6955 19.6437C13.1687 19.1169 12.4544 18.8205 11.7094 18.8197H10.4632C10.3359 18.8197 10.2138 18.7691 10.1238 18.6791C10.0338 18.5891 9.98323 18.467 9.98323 18.3397C9.98323 18.2124 10.0338 18.0903 10.1238 18.0003C10.2138 17.9102 10.3359 17.8597 10.4632 17.8597H11.7094C12.709 17.8608 13.6673 18.2583 14.3741 18.9651C15.0809 19.6719 15.4784 20.6302 15.4795 21.6298V26.9998C15.4795 27.1271 15.429 27.2492 15.3389 27.3392C15.2489 27.4292 15.1268 27.4798 14.9995 27.4798Z" fill="#CCD1D6"/>
<path id="Vector_5" d="M14.9995 24.334H11.9995C11.8722 24.334 11.7501 24.2835 11.6601 24.1934C11.5701 24.1034 11.5195 23.9813 11.5195 23.854C11.5195 23.7267 11.5701 23.6046 11.6601 23.5146C11.7501 23.4246 11.8722 23.374 11.9995 23.374H14.9995C15.1268 23.374 15.2489 23.4246 15.3389 23.5146C15.429 23.6046 15.4795 23.7267 15.4795 23.854C15.4795 23.9813 15.429 24.1034 15.3389 24.1934C15.2489 24.2835 15.1268 24.334 14.9995 24.334Z" fill="#CCD1D6"/>
<path id="Vector_6" d="M11.9995 27.4804C11.8722 27.4804 11.7501 27.4299 11.6601 27.3398C11.5701 27.2498 11.5195 27.1277 11.5195 27.0004V21.9868C11.5195 21.8595 11.5701 21.7374 11.6601 21.6474C11.7501 21.5574 11.8722 21.5068 11.9995 21.5068C12.1268 21.5068 12.2489 21.5574 12.3389 21.6474C12.429 21.7374 12.4795 21.8595 12.4795 21.9868V27.0004C12.4795 27.1277 12.429 27.2498 12.3389 27.3398C12.2489 27.4299 12.1268 27.4804 11.9995 27.4804Z" fill="#CCD1D6"/>
<path id="Vector_7" d="M9.00034 20.5267C8.93633 20.5267 8.87298 20.5138 8.81404 20.4889C8.52915 20.3636 8.25605 20.213 7.99804 20.0389C7.37344 19.6129 7.05664 19.1518 7.05664 18.6679V17.5015C7.05664 17.3742 7.10721 17.2521 7.19723 17.1621C7.28725 17.0721 7.40934 17.0215 7.53664 17.0215C7.66394 17.0215 7.78603 17.0721 7.87605 17.1621C7.96607 17.2521 8.01664 17.3742 8.01664 17.5015V18.6688C8.01664 18.8893 8.50954 19.2736 8.99794 19.5172C9.16216 19.4349 9.3208 19.3419 9.47284 19.2388C9.85024 18.9793 9.98284 18.7696 9.98284 18.6688V17.5018C9.98284 17.3745 10.0334 17.2524 10.1234 17.1624C10.2134 17.0724 10.3355 17.0218 10.4628 17.0218C10.5901 17.0218 10.7122 17.0724 10.8023 17.1624C10.8923 17.2524 10.9428 17.3745 10.9428 17.5018V18.6688C10.9428 19.1527 10.626 19.6138 10.0014 20.0398C9.74347 20.2137 9.47048 20.3643 9.18574 20.4898C9.127 20.5143 9.06398 20.5268 9.00034 20.5267Z" fill="#CCD1D6"/>
<path id="Vector_8" d="M9.44221 18.2373H8.55841C7.85678 18.2364 7.18415 17.9573 6.68805 17.4611C6.19195 16.965 5.9129 16.2923 5.91211 15.5907V13.3392C5.91251 12.9404 6.07107 12.5581 6.35301 12.2761C6.63495 11.9941 7.01724 11.8354 7.41601 11.835H10.5846C10.9837 11.835 11.3664 11.9934 11.6488 12.2754C11.9311 12.5575 12.0899 12.9401 12.0903 13.3392V15.5907C12.0895 16.2926 11.8102 16.9655 11.3137 17.4617C10.8172 17.9579 10.1441 18.2369 9.44221 18.2373ZM7.41601 12.795C7.27178 12.7952 7.13353 12.8526 7.03157 12.9546C6.92961 13.0566 6.87227 13.1949 6.87211 13.3392V15.5907C6.87259 16.0378 7.05039 16.4664 7.36652 16.7826C7.68265 17.0988 8.11129 17.2767 8.55841 17.2773H9.44221C9.88964 17.2772 10.3187 17.0995 10.6353 16.7833C10.9518 16.467 11.1298 16.0381 11.1303 15.5907V13.3392C11.1302 13.1949 11.0728 13.0566 10.9707 12.9545C10.8687 12.8525 10.7304 12.7951 10.5861 12.795H7.41601Z" fill="#CCD1D6"/>
<path id="Vector_9" d="M11.6079 15.0488C11.516 15.0488 11.4261 15.0224 11.3487 14.9727C11.2714 14.923 11.2099 14.8522 11.1717 14.7686C11.1334 14.6851 11.12 14.5923 11.1329 14.5013C11.1458 14.4103 11.1846 14.3249 11.2446 14.2553C11.8746 13.5266 12.2226 12.7733 12.1788 12.2405C12.1686 12.1205 12.132 11.9543 12.0144 11.8559C11.7579 11.6423 11.6334 11.354 11.5344 11.1224C11.5044 11.054 11.4768 10.9895 11.4483 10.9322C11.2044 10.4453 10.5273 10.5806 10.5204 10.5821C10.4411 10.5987 10.3588 10.5949 10.2814 10.5711C10.2039 10.5472 10.1337 10.5042 10.0773 10.4459C9.68314 10.0385 9.23733 9.89932 8.71204 10.0211C8.45913 10.0814 8.21972 10.1885 8.00613 10.3367C7.94826 10.381 7.88107 10.4115 7.80965 10.426C7.73824 10.4404 7.66447 10.4384 7.59393 10.4201C7.12053 10.2974 6.75603 10.3319 6.51063 10.523C6.11193 10.8326 6.02763 11.531 6.02854 11.774C6.0293 11.8399 6.01637 11.9052 5.99054 11.9659C5.96472 12.0265 5.92658 12.0811 5.87854 12.1262C5.56024 12.4286 5.42163 12.7007 5.46663 12.9347C5.55153 13.3736 6.24663 13.7807 6.56943 13.9091C6.62802 13.9324 6.68144 13.967 6.72665 14.0109C6.77187 14.0549 6.80798 14.1073 6.83295 14.1651C6.85791 14.223 6.87122 14.2853 6.87213 14.3483C6.87303 14.4113 6.86152 14.4739 6.83823 14.5325C6.81495 14.5911 6.78036 14.6445 6.73643 14.6897C6.6925 14.7349 6.64009 14.7711 6.58221 14.796C6.52432 14.821 6.46208 14.8343 6.39905 14.8352C6.33601 14.8361 6.27342 14.8246 6.21483 14.8013C6.06333 14.7413 4.72983 14.1827 4.52403 13.1168C4.42233 12.59 4.60863 12.0704 5.07753 11.5706C5.11083 11.1656 5.25753 10.2833 5.91573 9.76882C6.36333 9.41812 6.93573 9.30862 7.62063 9.44242C7.89197 9.2793 8.18684 9.15899 8.49484 9.08572C9.04744 8.95762 9.84184 8.95492 10.5882 9.60862C11.121 9.57862 11.9205 9.73282 12.306 10.5023C12.3465 10.5836 12.3813 10.6637 12.4149 10.7423C12.4839 10.9016 12.549 11.0522 12.6297 11.1197C12.9252 11.366 13.1001 11.7266 13.1361 12.1628C13.2024 12.9701 12.789 13.9364 11.9724 14.8832C11.9272 14.9354 11.8712 14.9773 11.8083 15.0058C11.7454 15.0344 11.677 15.0491 11.6079 15.0488Z" fill="#CCD1D6"/>
<path id="Vector_10" d="M8.99953 27.4798C8.87223 27.4798 8.75014 27.4292 8.66012 27.3392C8.5701 27.2492 8.51953 27.1271 8.51953 26.9998V20.0464C8.51953 19.9191 8.5701 19.797 8.66012 19.707C8.75014 19.617 8.87223 19.5664 8.99953 19.5664C9.12684 19.5664 9.24893 19.617 9.33894 19.707C9.42896 19.797 9.47953 19.9191 9.47953 20.0464V26.9998C9.47953 27.1271 9.42896 27.2492 9.33894 27.3392C9.24893 27.4292 9.12684 27.4798 8.99953 27.4798Z" fill="#CCD1D6"/>
<path id="Vector_11" d="M17.9995 24.334H14.9995C14.8722 24.334 14.7501 24.2835 14.6601 24.1934C14.5701 24.1034 14.5195 23.9813 14.5195 23.854C14.5195 23.7267 14.5701 23.6046 14.6601 23.5146C14.7501 23.4246 14.8722 23.374 14.9995 23.374H17.9995C18.1268 23.374 18.2489 23.4246 18.3389 23.5146C18.429 23.6046 18.4795 23.7267 18.4795 23.854C18.4795 23.9813 18.429 24.1034 18.3389 24.1934C18.2489 24.2835 18.1268 24.334 17.9995 24.334Z" fill="#CCD1D6"/>
<path id="Vector_12" d="M17.9995 27.4804C17.8722 27.4804 17.7501 27.4299 17.6601 27.3398C17.5701 27.2498 17.5195 27.1277 17.5195 27.0004V21.9868C17.5195 21.8595 17.5701 21.7374 17.6601 21.6474C17.7501 21.5574 17.8722 21.5068 17.9995 21.5068C18.1268 21.5068 18.2489 21.5574 18.3389 21.6474C18.429 21.7374 18.4795 21.8595 18.4795 21.9868V27.0004C18.4795 27.1277 18.429 27.2498 18.3389 27.3398C18.2489 27.4299 18.1268 27.4804 17.9995 27.4804Z" fill="#CCD1D6"/>
<path id="Vector_13" d="M26.9995 27.4798H14.9995C14.8722 27.4798 14.7501 27.4292 14.6601 27.3392C14.5701 27.2492 14.5195 27.1271 14.5195 26.9998V21.6298C14.5206 20.6302 14.9181 19.6718 15.6249 18.9649C16.3317 18.2581 17.29 17.8605 18.2896 17.8594H19.5358C19.6631 17.8594 19.7852 17.9099 19.8752 18C19.9653 18.09 20.0158 18.2121 20.0158 18.3394C20.0158 18.4667 19.9653 18.5888 19.8752 18.6788C19.7852 18.7688 19.6631 18.8194 19.5358 18.8194H18.2896C17.5446 18.8202 16.8303 19.1166 16.3034 19.6435C15.7766 20.1704 15.4803 20.8847 15.4795 21.6298V26.5198H26.5195V21.6298C26.5187 20.8848 26.2223 20.1705 25.6955 19.6437C25.1687 19.1169 24.4544 18.8205 23.7094 18.8197H22.4632C22.3359 18.8197 22.2138 18.7691 22.1238 18.6791C22.0338 18.5891 21.9832 18.467 21.9832 18.3397C21.9832 18.2124 22.0338 18.0903 22.1238 18.0003C22.2138 17.9102 22.3359 17.8597 22.4632 17.8597H23.7094C24.709 17.8609 25.6672 18.2585 26.374 18.9652C27.0808 19.672 27.4783 20.6302 27.4795 21.6298V26.9998C27.4795 27.1271 27.429 27.2492 27.3389 27.3392C27.2489 27.4292 27.1268 27.4798 26.9995 27.4798Z" fill="#CCD1D6"/>
<path id="Vector_14" d="M26.9995 24.334H23.9995C23.8722 24.334 23.7501 24.2835 23.6601 24.1934C23.5701 24.1034 23.5195 23.9813 23.5195 23.854C23.5195 23.7267 23.5701 23.6046 23.6601 23.5146C23.7501 23.4246 23.8722 23.374 23.9995 23.374H26.9995C27.1268 23.374 27.2489 23.4246 27.3389 23.5146C27.429 23.6046 27.4795 23.7267 27.4795 23.854C27.4795 23.9813 27.429 24.1034 27.3389 24.1934C27.2489 24.2835 27.1268 24.334 26.9995 24.334Z" fill="#CCD1D6"/>
<path id="Vector_15" d="M23.9995 27.4804C23.8722 27.4804 23.7501 27.4299 23.6601 27.3398C23.5701 27.2498 23.5195 27.1277 23.5195 27.0004V21.9868C23.5195 21.8595 23.5701 21.7374 23.6601 21.6474C23.7501 21.5574 23.8722 21.5068 23.9995 21.5068C24.1268 21.5068 24.2489 21.5574 24.3389 21.6474C24.429 21.7374 24.4795 21.8595 24.4795 21.9868V27.0004C24.4795 27.1277 24.429 27.2498 24.3389 27.3398C24.2489 27.4299 24.1268 27.4804 23.9995 27.4804Z" fill="#CCD1D6"/>
<path id="Vector_16" d="M21.0003 20.5262C20.9364 20.5261 20.873 20.5134 20.814 20.4887C20.5293 20.3633 20.2563 20.2127 19.9983 20.0387C19.3734 19.613 19.0566 19.1519 19.0566 18.6677V16.9517C19.0566 16.8244 19.1072 16.7023 19.1972 16.6123C19.2872 16.5223 19.4093 16.4717 19.5366 16.4717C19.6639 16.4717 19.786 16.5223 19.8761 16.6123C19.9661 16.7023 20.0166 16.8244 20.0166 16.9517V18.6683C20.0166 18.8888 20.5095 19.2734 20.9979 19.517C21.1622 19.4347 21.3208 19.3417 21.4728 19.2386C21.8502 18.9791 21.9828 18.7694 21.9828 18.6686V16.9958C21.9828 16.8685 22.0334 16.7464 22.1234 16.6564C22.2134 16.5664 22.3355 16.5158 22.4628 16.5158C22.5901 16.5158 22.7122 16.5664 22.8023 16.6564C22.8923 16.7464 22.9428 16.8685 22.9428 16.9958V18.6683C22.9428 19.1525 22.626 19.6136 22.0011 20.0393C21.7432 20.2133 21.4702 20.3639 21.1854 20.4893C21.1268 20.5136 21.0639 20.5262 21.0003 20.5262Z" fill="#CCD1D6"/>
<path id="Vector_17" d="M20.9995 27.4798C20.8722 27.4798 20.7501 27.4292 20.6601 27.3392C20.5701 27.2492 20.5195 27.1271 20.5195 26.9998V20.0464C20.5195 19.9191 20.5701 19.797 20.6601 19.707C20.7501 19.617 20.8722 19.5664 20.9995 19.5664C21.1268 19.5664 21.2489 19.617 21.3389 19.707C21.429 19.797 21.4795 19.9191 21.4795 20.0464V26.9998C21.4795 27.1271 21.429 27.2492 21.3389 27.3392C21.2489 27.4292 21.1268 27.4798 20.9995 27.4798Z" fill="#CCD1D6"/>
<path id="Vector_18" d="M16.6851 19.2369C16.6096 19.2369 16.535 19.219 16.4677 19.1848C16.4003 19.1506 16.3419 19.1009 16.2974 19.0398C16.2528 18.9788 16.2233 18.9081 16.2112 18.8335C16.1992 18.7588 16.2049 18.6824 16.2279 18.6105C16.5909 17.4777 16.3179 16.1736 16.2279 15.8007C15.9147 14.5329 16.0938 12.9384 16.6953 11.6391C17.0899 10.7775 17.7448 10.0614 18.5676 9.59155C19.3896 9.11701 20.3463 8.92986 21.2865 9.05965C21.7545 9.12325 22.1466 9.28555 22.5258 9.44245C22.6977 9.51355 22.8603 9.58075 23.0298 9.63925C24.2898 10.0752 25.1121 11.2185 25.4049 12.9459C25.5329 13.7339 25.5568 14.5354 25.476 15.3297C25.476 15.336 25.4745 15.3426 25.4733 15.3489C25.218 16.8933 25.4367 17.9331 25.665 18.5334C25.6875 18.5923 25.6981 18.655 25.6962 18.718C25.6944 18.781 25.6802 18.8431 25.6543 18.9006C25.6285 18.9581 25.5916 19.01 25.5458 19.0532C25.4999 19.0965 25.446 19.1303 25.3871 19.1527C25.3282 19.1751 25.2654 19.1857 25.2024 19.1839C25.1394 19.182 25.0774 19.1678 25.0199 19.142C24.9623 19.1162 24.9105 19.0793 24.8672 19.0334C24.824 18.9876 24.7902 18.9337 24.7677 18.8748C24.4977 18.1653 24.237 16.9548 24.5244 15.204C24.5457 15.009 24.9207 11.3076 22.7163 10.5459C22.5198 10.4778 22.3362 10.4019 22.1586 10.3287C21.8211 10.1889 21.5019 10.0569 21.1563 10.0098C19.6653 9.80485 18.2223 10.6218 17.5656 12.0426C17.0511 13.1526 16.8954 14.505 17.1585 15.5706C17.2962 16.128 17.5701 17.568 17.1423 18.9036C17.1113 19.0004 17.0502 19.0848 16.9681 19.1447C16.8859 19.2046 16.7868 19.2369 16.6851 19.2369Z" fill="#CCD1D6"/>
<path id="Vector_19" d="M21.026 18.0134C20.3126 18.0134 19.6262 17.7227 19.0937 17.1947C18.575 16.6808 18.2375 15.9746 18.143 15.2066L17.9357 13.5236C17.9251 13.4427 17.9354 13.3605 17.9654 13.2847C17.9954 13.2089 18.0442 13.1421 18.1073 13.0904C18.1697 13.0392 18.2442 13.0048 18.3236 12.9905C18.403 12.9762 18.4848 12.9825 18.5612 13.0088C18.5948 13.0187 19.1384 13.1735 19.8746 12.998C20.6246 12.818 21.3146 12.368 21.9323 11.66C21.9887 11.5952 22.0615 11.5467 22.143 11.5196C22.2245 11.4925 22.3119 11.4878 22.3958 11.506C22.4798 11.5242 22.5574 11.5645 22.6204 11.6229C22.6835 11.6813 22.7297 11.7555 22.7543 11.8379C22.757 11.846 23.0129 12.6911 23.3759 13.1783C23.5205 13.3727 23.6069 13.4051 23.6159 13.4084C23.6814 13.4122 23.7454 13.4295 23.804 13.459C23.8625 13.4886 23.9144 13.5299 23.9564 13.5803C23.9984 13.6307 24.0297 13.6892 24.0482 13.7521C24.0667 13.8151 24.0721 13.8811 24.0641 13.9463L23.9084 15.2063C23.8145 15.9737 23.477 16.6799 22.9583 17.1941C22.4261 17.7227 21.7397 18.0134 21.026 18.0134ZM18.9659 14.0354L19.0958 15.0905C19.2335 16.2104 20.0636 17.0546 21.026 17.0546C21.9884 17.0546 22.8194 16.2092 22.9565 15.0905L23.0663 14.2013C22.8869 14.0803 22.7308 13.9278 22.6058 13.7513C22.4045 13.4813 22.2353 13.1459 22.1072 12.8489C21.4949 13.3955 20.8214 13.7588 20.0972 13.9319H20.0948C19.7254 14.0205 19.3452 14.0553 18.9659 14.0354Z" fill="#CCD1D6"/>
</g>
</svg>
