<svg width="30" height="30" viewBox="0 0 30 30" fill="none" xmlns="http://www.w3.org/2000/svg">
<g id="fi_10351201">
<path id="Vector" d="M26.7059 20.9025H3.29445C3.16715 20.9025 3.04506 20.852 2.95504 20.7619C2.86502 20.6719 2.81445 20.5498 2.81445 20.4225V18.4497C2.81445 18.3224 2.86502 18.2003 2.95504 18.1103C3.04506 18.0203 3.16715 17.9697 3.29445 17.9697H26.7059C26.8332 17.9697 26.9552 18.0203 27.0453 18.1103C27.1353 18.2003 27.1859 18.3224 27.1859 18.4497V20.4228C27.1858 20.5501 27.1352 20.6721 27.0452 20.762C26.9551 20.852 26.8331 20.9025 26.7059 20.9025ZM3.77445 19.9425H26.2259V18.9297H3.77445V19.9425Z" fill="#CCD1D6"/>
<path id="Vector_2" d="M8.59935 27.4796H3.29445C3.16715 27.4796 3.04506 27.429 2.95504 27.339C2.86502 27.249 2.81445 27.1269 2.81445 26.9996V20.4224C2.81445 20.2951 2.86502 20.173 2.95504 20.083C3.04506 19.993 3.16715 19.9424 3.29445 19.9424H8.59935C8.72666 19.9424 8.84875 19.993 8.93876 20.083C9.02878 20.173 9.07935 20.2951 9.07935 20.4224V26.9996C9.07935 27.1269 9.02878 27.249 8.93876 27.339C8.84875 27.429 8.72666 27.4796 8.59935 27.4796ZM3.77445 26.5196H8.11935V20.9024H3.77445V26.5196Z" fill="#CCD1D6"/>
<path id="Vector_3" d="M8.59905 24.1914H3.29445C3.16715 24.1914 3.04506 24.1409 2.95504 24.0509C2.86502 23.9608 2.81445 23.8387 2.81445 23.7114C2.81445 23.5841 2.86502 23.4621 2.95504 23.372C3.04506 23.282 3.16715 23.2314 3.29445 23.2314H8.59905C8.72636 23.2314 8.84845 23.282 8.93846 23.372C9.02848 23.4621 9.07905 23.5841 9.07905 23.7114C9.07905 23.8387 9.02848 23.9608 8.93846 24.0509C8.84845 24.1409 8.72636 24.1914 8.59905 24.1914Z" fill="#CCD1D6"/>
<path id="Vector_4" d="M6.55767 22.8164H5.33547C5.20816 22.8164 5.08607 22.7659 4.99606 22.6759C4.90604 22.5858 4.85547 22.4637 4.85547 22.3364C4.85547 22.2091 4.90604 22.0871 4.99606 21.997C5.08607 21.907 5.20816 21.8564 5.33547 21.8564H6.55767C6.68497 21.8564 6.80706 21.907 6.89708 21.997C6.9871 22.0871 7.03767 22.2091 7.03767 22.3364C7.03767 22.4637 6.9871 22.5858 6.89708 22.6759C6.80706 22.7659 6.68497 22.8164 6.55767 22.8164Z" fill="#CCD1D6"/>
<path id="Vector_5" d="M6.55767 25.5664H5.33547C5.20816 25.5664 5.08607 25.5159 4.99606 25.4259C4.90604 25.3358 4.85547 25.2137 4.85547 25.0864C4.85547 24.9591 4.90604 24.8371 4.99606 24.747C5.08607 24.657 5.20816 24.6064 5.33547 24.6064H6.55767C6.68497 24.6064 6.80706 24.657 6.89708 24.747C6.9871 24.8371 7.03767 24.9591 7.03767 25.0864C7.03767 25.2137 6.9871 25.3358 6.89708 25.4259C6.80706 25.5159 6.68497 25.5664 6.55767 25.5664Z" fill="#CCD1D6"/>
<path id="Vector_6" d="M26.7058 27.4796H21.4009C21.2736 27.4796 21.1515 27.429 21.0615 27.339C20.9715 27.249 20.9209 27.1269 20.9209 26.9996V20.4224C20.9209 20.2951 20.9715 20.173 21.0615 20.083C21.1515 19.993 21.2736 19.9424 21.4009 19.9424H26.7058C26.8331 19.9424 26.9552 19.993 27.0452 20.083C27.1352 20.173 27.1858 20.2951 27.1858 20.4224V26.9996C27.1858 27.1269 27.1352 27.249 27.0452 27.339C26.9552 27.429 26.8331 27.4796 26.7058 27.4796ZM21.8809 26.5196H26.2258V20.9024H21.8809V26.5196Z" fill="#CCD1D6"/>
<path id="Vector_7" d="M26.7058 24.1914H21.4009C21.2736 24.1914 21.1515 24.1409 21.0615 24.0509C20.9715 23.9608 20.9209 23.8387 20.9209 23.7114C20.9209 23.5841 20.9715 23.4621 21.0615 23.372C21.1515 23.282 21.2736 23.2314 21.4009 23.2314H26.7058C26.8331 23.2314 26.9552 23.282 27.0452 23.372C27.1352 23.4621 27.1858 23.5841 27.1858 23.7114C27.1858 23.8387 27.1352 23.9608 27.0452 24.0509C26.9552 24.1409 26.8331 24.1914 26.7058 24.1914Z" fill="#CCD1D6"/>
<path id="Vector_8" d="M24.6641 22.8164H23.4419C23.3146 22.8164 23.1925 22.7659 23.1025 22.6759C23.0125 22.5858 22.9619 22.4637 22.9619 22.3364C22.9619 22.2091 23.0125 22.0871 23.1025 21.997C23.1925 21.907 23.3146 21.8564 23.4419 21.8564H24.6641C24.7914 21.8564 24.9135 21.907 25.0035 21.997C25.0935 22.0871 25.1441 22.2091 25.1441 22.3364C25.1441 22.4637 25.0935 22.5858 25.0035 22.6759C24.9135 22.7659 24.7914 22.8164 24.6641 22.8164Z" fill="#CCD1D6"/>
<path id="Vector_9" d="M24.6641 25.5664H23.4419C23.3146 25.5664 23.1925 25.5159 23.1025 25.4259C23.0125 25.3358 22.9619 25.2137 22.9619 25.0864C22.9619 24.9591 23.0125 24.8371 23.1025 24.747C23.1925 24.657 23.3146 24.6064 23.4419 24.6064H24.6641C24.7914 24.6064 24.9135 24.657 25.0035 24.747C25.0935 24.8371 25.1441 24.9591 25.1441 25.0864C25.1441 25.2137 25.0935 25.3358 25.0035 25.4259C24.9135 25.5159 24.7914 25.5664 24.6641 25.5664Z" fill="#CCD1D6"/>
<path id="Vector_10" d="M26.7059 18.9297H3.29445C3.16715 18.9297 3.04506 18.8792 2.95504 18.7891C2.86502 18.6991 2.81445 18.577 2.81445 18.4497C2.81445 18.3224 2.86502 18.2003 2.95504 18.1103C3.04506 18.0203 3.16715 17.9697 3.29445 17.9697H26.7059C26.8332 17.9697 26.9552 18.0203 27.0453 18.1103C27.1353 18.2003 27.1859 18.3224 27.1859 18.4497C27.1859 18.577 27.1353 18.6991 27.0453 18.7891C26.9552 18.8792 26.8332 18.9297 26.7059 18.9297Z" fill="#CCD1D6"/>
<path id="Vector_11" d="M14.9998 18.9416C14.0209 18.9416 13.0834 18.6755 12.2128 18.1505C11.4454 17.6876 10.7698 17.0444 10.2049 16.2392C9.15187 14.7392 8.57227 12.782 8.57227 10.7312C8.57227 8.68041 9.15187 6.72411 10.2049 5.22321C10.7698 4.41771 11.4454 3.77451 12.2128 3.31161C13.0834 2.78661 14.0209 2.52051 14.9998 2.52051C15.9787 2.52051 16.9162 2.78661 17.7868 3.31161C18.5542 3.77451 19.2298 4.41771 19.7947 5.22321C20.8477 6.72321 21.4273 8.68041 21.4273 10.7312C21.4273 12.782 20.8477 14.738 19.7947 16.2392C19.2298 17.0444 18.5542 17.6876 17.7868 18.1505C16.9162 18.6755 15.9787 18.9416 14.9998 18.9416ZM14.9998 3.48051C14.1982 3.48051 13.4272 3.70041 12.7087 4.13361C12.0565 4.52721 11.4787 5.07921 10.9906 5.77431C10.0501 7.11531 9.53227 8.87571 9.53227 10.7312C9.53227 12.5867 10.0498 14.3468 10.9906 15.6878C11.4784 16.3832 12.0565 16.9352 12.7087 17.3285C13.4272 17.762 14.1982 17.9816 14.9998 17.9816C15.8014 17.9816 16.5724 17.762 17.2909 17.3285C17.9431 16.9352 18.5209 16.3832 19.009 15.6878C19.9495 14.3468 20.4673 12.5864 20.4673 10.7312C20.4673 8.87601 19.9498 7.11531 19.009 5.77431C18.5212 5.07921 17.9431 4.52721 17.2909 4.13361C16.5724 3.70041 15.8014 3.48051 14.9998 3.48051Z" fill="#CCD1D6"/>
<path id="Vector_12" d="M14.9998 17.1803C13.7203 17.1803 12.5296 16.4867 11.6461 15.2273C10.7992 14.0195 10.333 12.4226 10.333 10.7303C10.333 9.03797 10.7998 7.43957 11.6461 6.23327C12.5296 4.97327 13.7203 4.28027 14.9998 4.28027C16.2793 4.28027 17.47 4.97387 18.3535 6.23327C19.1998 7.43957 19.6666 9.03767 19.6666 10.7303C19.6666 12.4229 19.1998 14.0195 18.3535 15.2273C17.47 16.4867 16.2793 17.1803 14.9998 17.1803ZM14.9998 5.24027C14.0425 5.24027 13.1305 5.78867 12.4321 6.78437C11.6974 7.83197 11.2921 9.23327 11.2921 10.7303C11.2921 12.2273 11.6965 13.6283 12.4321 14.6759C13.1305 15.6719 14.0425 16.2203 14.9998 16.2203C15.9571 16.2203 16.8691 15.6719 17.5675 14.6759C18.3022 13.6283 18.7075 12.227 18.7075 10.7303C18.7075 9.23357 18.3031 7.83197 17.5675 6.78437C16.8691 5.78957 15.9571 5.24027 14.9998 5.24027Z" fill="#CCD1D6"/>
<path id="Vector_13" d="M12.777 9.5115C12.682 9.51151 12.5892 9.48336 12.5102 9.4306C12.4312 9.37784 12.3697 9.30284 12.3334 9.2151C12.2971 9.12736 12.2876 9.03081 12.3061 8.93768C12.3247 8.84455 12.3705 8.75901 12.4377 8.6919L13.9014 7.2297C13.9925 7.14617 14.1123 7.10101 14.2359 7.10362C14.3594 7.10624 14.4773 7.15642 14.5648 7.24373C14.6523 7.33104 14.7027 7.44873 14.7056 7.57231C14.7085 7.69588 14.6636 7.8158 14.5803 7.9071L13.1163 9.3708C13.0263 9.46083 12.9042 9.51144 12.777 9.5115Z" fill="#CCD1D6"/>
<path id="Vector_14" d="M14.4515 9.9137C14.3566 9.91366 14.2638 9.88548 14.1849 9.83274C14.106 9.77999 14.0445 9.70504 14.0082 9.61736C13.9719 9.52968 13.9624 9.4332 13.9809 9.34012C13.9994 9.24704 14.0451 9.16153 14.1122 9.0944L14.303 8.9033C14.393 8.81327 14.5151 8.7627 14.6424 8.7627C14.7697 8.7627 14.8918 8.81327 14.9819 8.9033C15.0719 8.99333 15.1225 9.11543 15.1225 9.24275C15.1225 9.37007 15.0719 9.49217 14.9819 9.5822L14.7902 9.773C14.7458 9.81761 14.693 9.85301 14.6349 9.87716C14.5767 9.9013 14.5144 9.91372 14.4515 9.9137Z" fill="#CCD1D6"/>
<path id="Vector_15" d="M3.29445 19.5768C3.16715 19.5768 3.04506 19.5263 2.95504 19.4363C2.86502 19.3462 2.81445 19.2241 2.81445 19.0968V15.5073C2.81445 15.38 2.86502 15.2579 2.95504 15.1679C3.04506 15.0779 3.16715 15.0273 3.29445 15.0273H6.88365C7.01096 15.0273 7.13305 15.0779 7.22306 15.1679C7.31308 15.2579 7.36365 15.38 7.36365 15.5073V18.45C7.36365 18.5773 7.31308 18.6994 7.22306 18.7895C7.13305 18.8795 7.01096 18.93 6.88365 18.93C6.75635 18.93 6.63426 18.8795 6.54424 18.7895C6.45422 18.6994 6.40365 18.5773 6.40365 18.45V15.9873H3.77445V19.0968C3.77445 19.2241 3.72388 19.3462 3.63386 19.4363C3.54385 19.5263 3.42176 19.5768 3.29445 19.5768Z" fill="#CCD1D6"/>
<path id="Vector_16" d="M26.7059 19.5768C26.5786 19.5768 26.4565 19.5263 26.3665 19.4363C26.2765 19.3462 26.2259 19.2241 26.2259 19.0968V15.9873H23.5967V18.45C23.5967 18.5773 23.5461 18.6994 23.4561 18.7895C23.3661 18.8795 23.244 18.93 23.1167 18.93C22.9894 18.93 22.8673 18.8795 22.7773 18.7895C22.6873 18.6994 22.6367 18.5773 22.6367 18.45V15.5073C22.6367 15.38 22.6873 15.2579 22.7773 15.1679C22.8673 15.0779 22.9894 15.0273 23.1167 15.0273H26.7059C26.8332 15.0273 26.9553 15.0779 27.0453 15.1679C27.1353 15.2579 27.1859 15.38 27.1859 15.5073V19.0968C27.1859 19.2241 27.1353 19.3462 27.0453 19.4363C26.9553 19.5263 26.8332 19.5768 26.7059 19.5768Z" fill="#CCD1D6"/>
</g>
</svg>
