<svg width="30" height="30" viewBox="0 0 30 30" fill="none" xmlns="http://www.w3.org/2000/svg">
<g id="fi_10351191">
<path id="Vector" d="M15.0003 17.0902H7.58645C7.45914 17.0902 7.33705 17.0397 7.24703 16.9497C7.15702 16.8596 7.10645 16.7375 7.10645 16.6102V14.2075C7.10645 14.0802 7.15702 13.9581 7.24703 13.8681C7.33705 13.7781 7.45914 13.7275 7.58645 13.7275C7.71375 13.7275 7.83584 13.7781 7.92586 13.8681C8.01587 13.9581 8.06645 14.0802 8.06645 14.2075V16.1302H15.0003C15.1276 16.1302 15.2497 16.1808 15.3398 16.2708C15.4298 16.3608 15.4803 16.4829 15.4803 16.6102C15.4803 16.7375 15.4298 16.8596 15.3398 16.9497C15.2497 17.0397 15.1276 17.0902 15.0003 17.0902Z" fill="#CCD1D6"/>
<path id="Vector_2" d="M4.70143 16.6966C4.65929 16.6966 4.61734 16.691 4.57663 16.6801C4.07594 16.5455 3.6229 16.2735 3.26875 15.8949C2.91459 15.5162 2.67345 15.046 2.5726 14.5375C2.47175 14.0289 2.51521 13.5023 2.69807 13.0172C2.88093 12.532 3.19589 12.1077 3.60733 11.7923C4.01877 11.4768 4.51027 11.2827 5.02625 11.2321C5.54222 11.1814 6.06209 11.2761 6.52704 11.5055C6.992 11.7349 7.38349 12.0898 7.65725 12.5301C7.93101 12.9703 8.07611 13.4785 8.07613 13.9969C8.07613 14.0818 8.07193 14.1676 8.06413 14.2522C8.0506 14.3775 7.98833 14.4925 7.89076 14.5723C7.79319 14.652 7.66815 14.6903 7.54265 14.6786C7.41715 14.667 7.30126 14.6065 7.22 14.5102C7.13873 14.4138 7.09863 14.2894 7.10833 14.1637C7.11343 14.1082 7.11613 14.0521 7.11613 13.9969C7.11604 13.7545 7.06749 13.5146 6.97333 13.2913C6.87917 13.0679 6.74131 12.8656 6.56785 12.6963C6.39439 12.527 6.18882 12.3941 5.96325 12.3054C5.73768 12.2167 5.49665 12.174 5.25433 12.1798C4.28203 12.2026 3.48613 13.0126 3.48013 13.9858C3.47748 14.3877 3.60809 14.7791 3.85154 15.0989C4.09498 15.4187 4.43754 15.6487 4.82563 15.7531C4.93825 15.7831 5.0361 15.8531 5.10091 15.95C5.16573 16.0468 5.19309 16.164 5.17788 16.2795C5.16267 16.3951 5.10594 16.5012 5.01827 16.578C4.9306 16.6548 4.81798 16.697 4.70143 16.6969V16.6966Z" fill="#CCD1D6"/>
<path id="Vector_3" d="M15.0004 14.6884C14.8731 14.6884 14.751 14.6379 14.661 14.5478C14.5709 14.4578 14.5204 14.3357 14.5204 14.2084V9.63043C14.5198 9.13086 14.3211 8.6519 13.9678 8.29865C13.6146 7.94539 13.1356 7.74669 12.6361 7.74613H8.50836C8.00879 7.74669 7.52983 7.94539 7.17658 8.29865C6.82332 8.6519 6.62462 9.13086 6.62406 9.63043V11.8609C6.62406 11.9882 6.57349 12.1103 6.48347 12.2003C6.39346 12.2904 6.27137 12.3409 6.14406 12.3409C6.01676 12.3409 5.89467 12.2904 5.80465 12.2003C5.71463 12.1103 5.66406 11.9882 5.66406 11.8609V9.63043C5.66494 8.87635 5.96488 8.15339 6.4981 7.62017C7.03132 7.08695 7.75428 6.78701 8.50836 6.78613H12.6361C13.3901 6.78701 14.1131 7.08695 14.6463 7.62017C15.1795 8.15339 15.4795 8.87635 15.4804 9.63043V14.2084C15.4804 14.3357 15.4298 14.4578 15.3398 14.5478C15.2498 14.6379 15.1277 14.6884 15.0004 14.6884Z" fill="#CCD1D6"/>
<path id="Vector_4" d="M24.3399 21.0124H5.6607C5.27879 21.0124 4.91252 20.8607 4.64247 20.5907C4.37242 20.3206 4.2207 19.9543 4.2207 19.5724V16.2163C4.2207 16.089 4.27127 15.9669 4.36129 15.8769C4.45131 15.7869 4.5734 15.7363 4.7007 15.7363C4.82801 15.7363 4.9501 15.7869 5.04011 15.8769C5.13013 15.9669 5.1807 16.089 5.1807 16.2163V19.573C5.1807 19.7003 5.23127 19.8224 5.32129 19.9124C5.41131 20.0025 5.5334 20.053 5.6607 20.053H24.3399C24.4672 20.053 24.5893 20.0025 24.6793 19.9124C24.7693 19.8224 24.8199 19.7003 24.8199 19.573V16.2163C24.8199 16.089 24.8705 15.9669 24.9605 15.8769C25.0505 15.7869 25.1726 15.7363 25.2999 15.7363C25.4272 15.7363 25.5493 15.7869 25.6393 15.8769C25.7293 15.9669 25.7799 16.089 25.7799 16.2163V19.573C25.7797 19.9548 25.628 20.321 25.3579 20.5909C25.0879 20.8608 24.7217 21.0124 24.3399 21.0124Z" fill="#CCD1D6"/>
<path id="Vector_5" d="M22.4134 17.0902H14.9995C14.8722 17.0902 14.7501 17.0397 14.6601 16.9497C14.5701 16.8596 14.5195 16.7375 14.5195 16.6102C14.5195 16.4829 14.5701 16.3608 14.6601 16.2708C14.7501 16.1808 14.8722 16.1302 14.9995 16.1302H21.9334V14.2075C21.9334 14.0802 21.984 13.9581 22.074 13.8681C22.164 13.7781 22.2861 13.7275 22.4134 13.7275C22.5407 13.7275 22.6628 13.7781 22.7528 13.8681C22.8429 13.9581 22.8934 14.0802 22.8934 14.2075V16.6102C22.8934 16.7375 22.8429 16.8596 22.7528 16.9497C22.6628 17.0397 22.5407 17.0902 22.4134 17.0902Z" fill="#CCD1D6"/>
<path id="Vector_6" d="M25.2985 16.6972C25.182 16.6973 25.0694 16.6551 24.9817 16.5783C24.894 16.5015 24.8373 16.3954 24.8221 16.2798C24.8069 16.1643 24.8342 16.0471 24.899 15.9503C24.9639 15.8534 25.0617 15.7834 25.1743 15.7534C25.5624 15.649 25.905 15.4189 26.1484 15.0992C26.3919 14.7794 26.5225 14.388 26.5198 13.9861C26.5138 13.0129 25.7179 12.2029 24.7456 12.1801C24.5033 12.1743 24.2622 12.217 24.0366 12.3057C23.811 12.3945 23.6055 12.5274 23.432 12.6967C23.2585 12.8661 23.1207 13.0684 23.0265 13.2917C22.9324 13.5151 22.8839 13.7551 22.8838 13.9975C22.8838 14.0527 22.8865 14.1088 22.8916 14.1643C22.9013 14.29 22.8612 14.4144 22.78 14.5107C22.6987 14.6071 22.5828 14.6676 22.4573 14.6792C22.3318 14.6908 22.2068 14.6526 22.1092 14.5728C22.0116 14.4931 21.9494 14.3781 21.9358 14.2528C21.928 14.1682 21.9238 14.0824 21.9238 13.9975C21.9239 13.4791 22.069 12.9711 22.3427 12.5309C22.6164 12.0906 23.0078 11.7358 23.4727 11.5064C23.9376 11.2771 24.4574 11.1824 24.9733 11.233C25.4892 11.2837 25.9806 11.4777 26.392 11.7931C26.8034 12.1085 27.1184 12.5327 27.3012 13.0177C27.4841 13.5028 27.5276 14.0293 27.4268 14.5378C27.326 15.0463 27.085 15.5165 26.7309 15.8951C26.3769 16.2737 25.9239 16.5458 25.4233 16.6804C25.3826 16.6914 25.3407 16.697 25.2985 16.6972Z" fill="#CCD1D6"/>
<path id="Vector_7" d="M14.9995 17.0905C14.8722 17.0905 14.7501 17.0399 14.6601 16.9499C14.5701 16.8599 14.5195 16.7378 14.5195 16.6105V9.62976C14.5204 8.87559 14.8204 8.15256 15.3537 7.61928C15.8869 7.08601 16.61 6.78603 17.3641 6.78516H21.4912C22.2454 6.78603 22.9684 7.08601 23.5017 7.61928C24.035 8.15256 24.335 8.87559 24.3358 9.62976V11.86C24.3358 11.9873 24.2853 12.1094 24.1952 12.1994C24.1052 12.2894 23.9831 12.34 23.8558 12.34C23.7285 12.34 23.6064 12.2894 23.5164 12.1994C23.4264 12.1094 23.3758 11.9873 23.3758 11.86V9.62976C23.3753 9.1301 23.1765 8.65107 22.8232 8.29776C22.4699 7.94445 21.9909 7.74571 21.4912 7.74516H17.3641C16.8645 7.74571 16.3854 7.94445 16.0321 8.29776C15.6788 8.65107 15.4801 9.1301 15.4795 9.62976V16.6108C15.4795 16.738 15.4288 16.86 15.3388 16.95C15.2488 17.0399 15.1268 17.0905 14.9995 17.0905Z" fill="#CCD1D6"/>
<path id="Vector_8" d="M8.46533 23.2148H6.67043C6.54313 23.2148 6.42104 23.1642 6.33102 23.0742C6.241 22.9842 6.19043 22.8621 6.19043 22.7348V20.5328C6.19043 20.4055 6.241 20.2834 6.33102 20.1934C6.42104 20.1034 6.54313 20.0528 6.67043 20.0528C6.79773 20.0528 6.91982 20.1034 7.00984 20.1934C7.09986 20.2834 7.15043 20.4055 7.15043 20.5328V22.2548H8.07233L8.43923 20.4377C8.46445 20.3129 8.53822 20.2032 8.6443 20.1328C8.75038 20.0624 8.88008 20.037 9.00488 20.0623C9.12968 20.0875 9.23934 20.1612 9.30975 20.2673C9.38016 20.3734 9.40555 20.5031 9.38033 20.6279L8.93573 22.8299C8.91378 22.9385 8.85495 23.0361 8.76921 23.1063C8.68347 23.1764 8.57611 23.2148 8.46533 23.2148Z" fill="#CCD1D6"/>
<path id="Vector_9" d="M23.3298 23.2148H21.5349C21.4241 23.2148 21.3167 23.1764 21.231 23.1063C21.1452 23.0361 21.0864 22.9385 21.0645 22.8299L20.6199 20.6279C20.6074 20.5661 20.6072 20.5025 20.6193 20.4406C20.6314 20.3787 20.6556 20.3198 20.6904 20.2673C20.7253 20.2148 20.7702 20.1696 20.8225 20.1345C20.8748 20.0993 20.9335 20.0747 20.9953 20.0623C21.1201 20.037 21.2498 20.0624 21.3559 20.1328C21.462 20.2032 21.5357 20.3129 21.561 20.4377L21.9279 22.2548H22.8498V20.5328C22.8498 20.4055 22.9003 20.2834 22.9904 20.1934C23.0804 20.1034 23.2025 20.0528 23.3298 20.0528C23.4571 20.0528 23.5792 20.1034 23.6692 20.1934C23.7592 20.2834 23.8098 20.4055 23.8098 20.5328V22.7348C23.8098 22.8621 23.7592 22.9842 23.6692 23.0742C23.5792 23.1642 23.4571 23.2148 23.3298 23.2148Z" fill="#CCD1D6"/>
<path id="Vector_10" d="M15.0002 17.0906H7.59621C7.46891 17.0906 7.34682 17.04 7.2568 16.95C7.16678 16.86 7.11621 16.7379 7.11621 16.6106V15.8333C7.11685 15.2356 7.35455 14.6626 7.77715 14.24C8.19976 13.8174 8.77275 13.5797 9.37041 13.5791H13.226C13.8236 13.5798 14.3966 13.8175 14.8192 14.2401C15.2418 14.6627 15.4795 15.2357 15.4802 15.8333V16.6106C15.4802 16.6736 15.4678 16.7361 15.4437 16.7943C15.4195 16.8525 15.3842 16.9054 15.3396 16.95C15.295 16.9946 15.2421 17.0299 15.1839 17.0541C15.1257 17.0782 15.0632 17.0906 15.0002 17.0906ZM8.07621 16.1306H14.5202V15.8333C14.5198 15.4902 14.3833 15.1612 14.1407 14.9186C13.8981 14.676 13.5691 14.5395 13.226 14.5391H9.37041C9.02729 14.5395 8.69834 14.676 8.45571 14.9186C8.21309 15.1612 8.07661 15.4902 8.07621 15.8333V16.1306Z" fill="#CCD1D6"/>
<path id="Vector_11" d="M22.4096 17.0906H15.0044C14.8771 17.0906 14.755 17.04 14.665 16.95C14.575 16.86 14.5244 16.7379 14.5244 16.6106V15.8333C14.5251 15.2357 14.7629 14.6627 15.1854 14.2401C15.608 13.8175 16.181 13.5798 16.7786 13.5791H20.6345C21.2323 13.5796 21.8055 13.8172 22.2283 14.2398C22.6511 14.6624 22.8889 15.2355 22.8896 15.8333V16.6106C22.8896 16.6736 22.8772 16.7361 22.8531 16.7943C22.829 16.8525 22.7936 16.9054 22.749 16.95C22.7045 16.9946 22.6515 17.0299 22.5933 17.0541C22.5351 17.0782 22.4726 17.0906 22.4096 17.0906ZM15.4853 16.1306H21.9296V15.8333C21.9292 15.4902 21.7927 15.1612 21.5501 14.9186C21.3075 14.676 20.9785 14.5395 20.6354 14.5391H16.7786C16.4355 14.5395 16.1065 14.676 15.8639 14.9186C15.6213 15.1612 15.4848 15.4902 15.4844 15.8333L15.4853 16.1306Z" fill="#CCD1D6"/>
<path id="Vector_12" d="M9.31489 10.1768H8.84719C8.71988 10.1768 8.59779 10.1262 8.50778 10.0362C8.41776 9.94619 8.36719 9.8241 8.36719 9.6968C8.36719 9.56949 8.41776 9.4474 8.50778 9.35739C8.59779 9.26737 8.71988 9.2168 8.84719 9.2168H9.31489C9.44219 9.2168 9.56428 9.26737 9.6543 9.35739C9.74432 9.4474 9.79489 9.56949 9.79489 9.6968C9.79489 9.8241 9.74432 9.94619 9.6543 10.0362C9.56428 10.1262 9.44219 10.1768 9.31489 10.1768Z" fill="#CCD1D6"/>
<path id="Vector_13" d="M12.2973 10.1768H11.8296C11.7023 10.1768 11.5802 10.1262 11.4902 10.0362C11.4002 9.94619 11.3496 9.8241 11.3496 9.6968C11.3496 9.56949 11.4002 9.4474 11.4902 9.35739C11.5802 9.26737 11.7023 9.2168 11.8296 9.2168H12.2973C12.4246 9.2168 12.5467 9.26737 12.6367 9.35739C12.7267 9.4474 12.7773 9.56949 12.7773 9.6968C12.7773 9.8241 12.7267 9.94619 12.6367 10.0362C12.5467 10.1262 12.4246 10.1768 12.2973 10.1768Z" fill="#CCD1D6"/>
<path id="Vector_14" d="M9.31489 12.1075H8.84719C8.71988 12.1075 8.59779 12.0569 8.50778 11.9669C8.41776 11.8769 8.36719 11.7548 8.36719 11.6275C8.36719 11.5002 8.41776 11.3781 8.50778 11.288C8.59779 11.198 8.71988 11.1475 8.84719 11.1475H9.31489C9.44219 11.1475 9.56428 11.198 9.6543 11.288C9.74432 11.3781 9.79489 11.5002 9.79489 11.6275C9.79489 11.7548 9.74432 11.8769 9.6543 11.9669C9.56428 12.0569 9.44219 12.1075 9.31489 12.1075Z" fill="#CCD1D6"/>
<path id="Vector_15" d="M12.2973 12.1075H11.8296C11.7023 12.1075 11.5802 12.0569 11.4902 11.9669C11.4002 11.8769 11.3496 11.7548 11.3496 11.6275C11.3496 11.5002 11.4002 11.3781 11.4902 11.288C11.5802 11.198 11.7023 11.1475 11.8296 11.1475H12.2973C12.4246 11.1475 12.5467 11.198 12.6367 11.288C12.7267 11.3781 12.7773 11.5002 12.7773 11.6275C12.7773 11.7548 12.7267 11.8769 12.6367 11.9669C12.5467 12.0569 12.4246 12.1075 12.2973 12.1075Z" fill="#CCD1D6"/>
<path id="Vector_16" d="M9.31489 10.1768H8.84719C8.71988 10.1768 8.59779 10.1262 8.50778 10.0362C8.41776 9.94619 8.36719 9.8241 8.36719 9.6968C8.36719 9.56949 8.41776 9.4474 8.50778 9.35739C8.59779 9.26737 8.71988 9.2168 8.84719 9.2168H9.31489C9.44219 9.2168 9.56428 9.26737 9.6543 9.35739C9.74432 9.4474 9.79489 9.56949 9.79489 9.6968C9.79489 9.8241 9.74432 9.94619 9.6543 10.0362C9.56428 10.1262 9.44219 10.1768 9.31489 10.1768Z" fill="#CCD1D6"/>
<path id="Vector_17" d="M12.2973 10.1768H11.8296C11.7023 10.1768 11.5802 10.1262 11.4902 10.0362C11.4002 9.94619 11.3496 9.8241 11.3496 9.6968C11.3496 9.56949 11.4002 9.4474 11.4902 9.35739C11.5802 9.26737 11.7023 9.2168 11.8296 9.2168H12.2973C12.4246 9.2168 12.5467 9.26737 12.6367 9.35739C12.7267 9.4474 12.7773 9.56949 12.7773 9.6968C12.7773 9.8241 12.7267 9.94619 12.6367 10.0362C12.5467 10.1262 12.4246 10.1768 12.2973 10.1768Z" fill="#CCD1D6"/>
<path id="Vector_18" d="M9.31489 12.1075H8.84719C8.71988 12.1075 8.59779 12.0569 8.50778 11.9669C8.41776 11.8769 8.36719 11.7548 8.36719 11.6275C8.36719 11.5002 8.41776 11.3781 8.50778 11.288C8.59779 11.198 8.71988 11.1475 8.84719 11.1475H9.31489C9.44219 11.1475 9.56428 11.198 9.6543 11.288C9.74432 11.3781 9.79489 11.5002 9.79489 11.6275C9.79489 11.7548 9.74432 11.8769 9.6543 11.9669C9.56428 12.0569 9.44219 12.1075 9.31489 12.1075Z" fill="#CCD1D6"/>
<path id="Vector_19" d="M12.2973 12.1075H11.8296C11.7023 12.1075 11.5802 12.0569 11.4902 11.9669C11.4002 11.8769 11.3496 11.7548 11.3496 11.6275C11.3496 11.5002 11.4002 11.3781 11.4902 11.288C11.5802 11.198 11.7023 11.1475 11.8296 11.1475H12.2973C12.4246 11.1475 12.5467 11.198 12.6367 11.288C12.7267 11.3781 12.7773 11.5002 12.7773 11.6275C12.7773 11.7548 12.7267 11.8769 12.6367 11.9669C12.5467 12.0569 12.4246 12.1075 12.2973 12.1075Z" fill="#CCD1D6"/>
<path id="Vector_20" d="M18.1704 10.1768H17.7027C17.5754 10.1768 17.4533 10.1262 17.3632 10.0362C17.2732 9.94619 17.2227 9.8241 17.2227 9.6968C17.2227 9.56949 17.2732 9.4474 17.3632 9.35739C17.4533 9.26737 17.5754 9.2168 17.7027 9.2168H18.1704C18.2977 9.2168 18.4198 9.26737 18.5098 9.35739C18.5998 9.4474 18.6504 9.56949 18.6504 9.6968C18.6504 9.8241 18.5998 9.94619 18.5098 10.0362C18.4198 10.1262 18.2977 10.1768 18.1704 10.1768Z" fill="#CCD1D6"/>
<path id="Vector_21" d="M21.1528 10.1768H20.6851C20.5578 10.1768 20.4357 10.1262 20.3457 10.0362C20.2556 9.94619 20.2051 9.8241 20.2051 9.6968C20.2051 9.56949 20.2556 9.4474 20.3457 9.35739C20.4357 9.26737 20.5578 9.2168 20.6851 9.2168H21.1528C21.2801 9.2168 21.4022 9.26737 21.4922 9.35739C21.5822 9.4474 21.6328 9.56949 21.6328 9.6968C21.6328 9.8241 21.5822 9.94619 21.4922 10.0362C21.4022 10.1262 21.2801 10.1768 21.1528 10.1768Z" fill="#CCD1D6"/>
<path id="Vector_22" d="M18.1704 12.1075H17.7027C17.5754 12.1075 17.4533 12.0569 17.3632 11.9669C17.2732 11.8769 17.2227 11.7548 17.2227 11.6275C17.2227 11.5002 17.2732 11.3781 17.3632 11.288C17.4533 11.198 17.5754 11.1475 17.7027 11.1475H18.1704C18.2977 11.1475 18.4198 11.198 18.5098 11.288C18.5998 11.3781 18.6504 11.5002 18.6504 11.6275C18.6504 11.7548 18.5998 11.8769 18.5098 11.9669C18.4198 12.0569 18.2977 12.1075 18.1704 12.1075Z" fill="#CCD1D6"/>
<path id="Vector_23" d="M21.1528 12.1075H20.6851C20.5578 12.1075 20.4357 12.0569 20.3457 11.9669C20.2556 11.8769 20.2051 11.7548 20.2051 11.6275C20.2051 11.5002 20.2556 11.3781 20.3457 11.288C20.4357 11.198 20.5578 11.1475 20.6851 11.1475H21.1528C21.2801 11.1475 21.4022 11.198 21.4922 11.288C21.5822 11.3781 21.6328 11.5002 21.6328 11.6275C21.6328 11.7548 21.5822 11.8769 21.4922 11.9669C21.4022 12.0569 21.2801 12.1075 21.1528 12.1075Z" fill="#CCD1D6"/>
</g>
</svg>
