<svg width="30" height="30" viewBox="0 0 30 30" fill="none" xmlns="http://www.w3.org/2000/svg">
<g id="fi_9675682">
<path id="Vector" d="M14.9999 27.48C11.9078 27.4761 8.92793 26.3211 6.64094 24.2401C4.35396 22.1591 2.92373 19.3011 2.62896 16.2231C2.33419 13.1451 3.19601 10.0676 5.04647 7.59032C6.89693 5.11306 9.60345 3.41352 12.6386 2.82289C15.6738 2.23226 18.8201 2.79287 21.4645 4.39545C24.1089 5.99804 26.0618 8.52779 26.9428 11.4917C27.8237 14.4557 27.5696 17.6414 26.2299 20.4282C24.8901 23.215 22.5608 25.4031 19.6958 26.5662C18.2044 27.1718 16.6096 27.4821 14.9999 27.48ZM14.9999 3.48537C12.05 3.48537 9.0998 4.60827 6.854 6.85407C2.3624 11.3457 2.3624 18.6543 6.854 23.1459C11.3456 27.6375 18.6542 27.6375 23.1458 23.1459C27.6374 18.6543 27.6374 11.3457 23.1458 6.85407C20.9 4.60827 17.9498 3.48537 14.9999 3.48537ZM5.5112 18.0222C5.39467 18.0222 5.2821 17.9799 5.19449 17.9031C5.10688 17.8263 5.0502 17.7202 5.03503 17.6047C5.01987 17.4891 5.04724 17.372 5.11206 17.2752C5.17688 17.1783 5.27471 17.1084 5.3873 17.0784L11.936 15.324C11.8875 14.8672 11.9418 14.4053 12.095 13.9723C12.2481 13.5392 12.4961 13.1458 12.8209 12.821C13.1458 12.4962 13.5391 12.2482 13.9722 12.095C14.4053 11.9419 14.8671 11.8876 15.3239 11.9361L17.0786 5.38737C17.0938 5.32532 17.1213 5.26693 17.1594 5.21564C17.1975 5.16434 17.2455 5.12117 17.3005 5.08865C17.3555 5.05613 17.4164 5.03492 17.4797 5.02626C17.543 5.0176 17.6074 5.02167 17.6691 5.03823C17.7308 5.05479 17.7886 5.0835 17.8391 5.12268C17.8896 5.16186 17.9317 5.21073 17.9631 5.26641C17.9944 5.3221 18.0143 5.38348 18.0216 5.44695C18.0289 5.51043 18.0235 5.57473 18.0056 5.63607L16.1369 12.6114C16.1039 12.7343 16.0235 12.8391 15.9133 12.9027C15.8031 12.9663 15.6721 12.9836 15.5492 12.9507C15.1895 12.8543 14.8107 12.8544 14.451 12.9508C14.0912 13.0472 13.7632 13.2366 13.4999 13.4999C13.2365 13.7633 13.0471 14.0913 12.9507 14.451C12.8543 14.8108 12.8543 15.1895 12.9506 15.5493C12.9835 15.6722 12.9662 15.8032 12.9026 15.9134C12.839 16.0236 12.7342 16.104 12.6113 16.137L5.636 18.0057C5.59532 18.0167 5.55335 18.0223 5.5112 18.0222Z" fill="#1A73E9"/>
<path id="Vector_2" d="M5.5115 18.0224C5.39498 18.0225 5.28241 17.9802 5.19479 17.9033C5.10718 17.8265 5.0505 17.7204 5.03533 17.6049C5.02017 17.4894 5.04755 17.3723 5.11236 17.2754C5.17718 17.1786 5.27501 17.1087 5.3876 17.0786L12.3632 15.2102C12.486 15.1778 12.6166 15.1954 12.7265 15.2591C12.8364 15.3228 12.9165 15.4275 12.9494 15.5501C12.9822 15.6728 12.9651 15.8035 12.9018 15.9136C12.8385 16.0237 12.7342 16.1042 12.6116 16.1375L5.6363 18.0059C5.59563 18.017 5.55365 18.0225 5.5115 18.0224Z" fill="#1A73E9"/>
<path id="Vector_3" d="M15.6732 12.9667C15.5996 12.9667 15.527 12.9498 15.461 12.9172C15.395 12.8846 15.3373 12.8373 15.2925 12.7789C15.2477 12.7205 15.2169 12.6526 15.2026 12.5804C15.1882 12.5082 15.1907 12.4336 15.2097 12.3625L17.0784 5.38694C17.1114 5.26397 17.1919 5.15914 17.3021 5.09551C17.4124 5.03188 17.5434 5.01466 17.6664 5.04764C17.7894 5.08062 17.8942 5.16109 17.9578 5.27137C18.0215 5.38164 18.0387 5.51267 18.0057 5.63564L16.1367 12.6109C16.1094 12.713 16.0491 12.8032 15.9653 12.8675C15.8815 12.9318 15.7789 12.9667 15.6732 12.9667Z" fill="#1A73E9"/>
<path id="Vector_4" d="M16.4396 13.3137C16.3528 13.3136 16.2676 13.29 16.1932 13.2454C16.1187 13.2008 16.0578 13.1368 16.0168 13.0603C15.9758 12.9837 15.9564 12.8975 15.9605 12.8108C15.9646 12.7241 15.9922 12.6402 16.0403 12.5679L20.0378 6.5541C20.0727 6.5016 20.1176 6.45649 20.1699 6.42135C20.2223 6.38621 20.281 6.36172 20.3428 6.34928C20.4046 6.33684 20.4683 6.3367 20.5301 6.34886C20.592 6.36102 20.6508 6.38524 20.7033 6.42015C20.7558 6.45505 20.8009 6.49995 20.8361 6.55229C20.8712 6.60463 20.8957 6.66338 20.9081 6.72518C20.9206 6.78698 20.9207 6.85063 20.9086 6.91249C20.8964 6.97434 20.8722 7.0332 20.8373 7.0857L16.8398 13.0992C16.796 13.1652 16.7365 13.2193 16.6666 13.2568C16.5968 13.2942 16.5188 13.3137 16.4396 13.3137Z" fill="#1A73E9"/>
<path id="Vector_5" d="M9.56164 23.6605C9.47484 23.6604 9.38969 23.6368 9.31524 23.5922C9.24079 23.5476 9.17983 23.4836 9.13886 23.4071C9.09789 23.3305 9.07844 23.2443 9.08258 23.1576C9.08671 23.0709 9.11428 22.987 9.16234 22.9147L13.1598 16.9012C13.231 16.7968 13.3404 16.7246 13.4644 16.7003C13.5884 16.6761 13.717 16.7017 13.8222 16.7716C13.9275 16.8416 14.0009 16.9502 14.0266 17.0739C14.0522 17.1976 14.0281 17.3265 13.9593 17.4325L9.96184 23.4463C9.91799 23.5122 9.85849 23.5663 9.78866 23.6037C9.71883 23.6411 9.64084 23.6606 9.56164 23.6605Z" fill="#1A73E9"/>
<path id="Vector_6" d="M14.9952 18.0802C14.4885 18.0796 13.9898 17.9541 13.5431 17.7148C13.0965 17.4755 12.7158 17.1297 12.4347 16.7082C12.1536 16.2866 11.9808 15.8022 11.9316 15.2979C11.8824 14.7935 11.9583 14.2849 12.1526 13.8169C12.3469 13.3489 12.6536 12.9361 13.0455 12.6149C13.4375 12.2938 13.9026 12.0743 14.3996 11.9758C14.8966 11.8773 15.4103 11.9029 15.8951 12.0503C16.3799 12.1977 16.8209 12.4624 17.1789 12.8209C17.6103 13.252 17.904 13.8014 18.0229 14.3996C18.1417 14.9978 18.0803 15.6178 17.8464 16.181C17.6125 16.7443 17.2168 17.2254 16.7092 17.5635C16.2016 17.9016 15.6051 18.0814 14.9952 18.0802ZM15.0036 12.8791C14.548 12.8788 14.1045 13.0251 13.7385 13.2964C13.3725 13.5677 13.1036 13.9496 12.9714 14.3856C12.8393 14.8216 12.851 15.2886 13.0048 15.7174C13.1587 16.1462 13.4464 16.5142 13.8255 16.7668C14.0169 16.8945 14.2281 16.9897 14.4504 17.0488C14.9015 17.1698 15.38 17.1386 15.8115 16.96C16.2431 16.7814 16.6036 16.4653 16.8372 16.0609C17.0708 15.6564 17.1644 15.1862 17.1034 14.7231C17.0424 14.26 16.8303 13.83 16.5 13.4998C16.4006 13.4003 16.2916 13.3108 16.1745 13.2328C15.8278 13.0023 15.4208 12.8793 15.0045 12.8791H15.0036Z" fill="#1A73E9"/>
<path id="Vector_7" d="M14.9979 16.5717C14.6343 16.5711 14.2822 16.4444 14.0015 16.2133C13.7208 15.9822 13.5289 15.6609 13.4585 15.3042C13.3881 14.9475 13.4435 14.5775 13.6152 14.257C13.787 13.9366 14.0646 13.6856 14.4006 13.5468C14.7366 13.408 15.1104 13.39 15.4583 13.4958C15.8061 13.6016 16.1065 13.8247 16.3083 14.1272C16.5101 14.4296 16.6009 14.7926 16.5651 15.1545C16.5293 15.5163 16.3692 15.8545 16.1121 16.1115C15.966 16.2581 15.7923 16.3742 15.6011 16.4532C15.4098 16.5322 15.2048 16.5725 14.9979 16.5717ZM15.0015 14.3874C14.8802 14.3871 14.7616 14.4227 14.6606 14.4899C14.5597 14.5571 14.481 14.6527 14.4345 14.7647C14.388 14.8767 14.3758 14.9999 14.3994 15.1189C14.4231 15.2378 14.4815 15.347 14.5674 15.4326C14.6429 15.5089 14.7375 15.5637 14.8413 15.5913C14.9715 15.6264 15.1097 15.6175 15.2344 15.566C15.359 15.5145 15.4632 15.4232 15.5307 15.3064C15.5982 15.1896 15.6252 15.0538 15.6076 14.9201C15.5899 14.7863 15.5286 14.6621 15.4332 14.5668C15.3576 14.4905 15.263 14.4357 15.1593 14.4081C15.1074 14.3944 15.0539 14.3874 15.0003 14.3874H15.0015Z" fill="#1A73E9"/>
<path id="Vector_8" d="M17.5125 14.8071C17.396 14.8072 17.2834 14.7648 17.1958 14.688C17.1082 14.6112 17.0515 14.5051 17.0363 14.3896C17.0211 14.2741 17.0485 14.1569 17.1133 14.0601C17.1782 13.9633 17.276 13.8933 17.3886 13.8633L23.8887 12.1218C23.2365 10.1162 21.927 8.38901 20.172 7.21951C19.3285 6.65671 18.3982 6.2365 17.4183 5.97571C17.3562 5.9606 17.2977 5.93324 17.2463 5.89522C17.1949 5.8572 17.1516 5.8093 17.1189 5.75432C17.0863 5.69934 17.065 5.6384 17.0562 5.57507C17.0475 5.51173 17.0514 5.44729 17.0679 5.38552C17.0844 5.32374 17.1131 5.26589 17.1522 5.21534C17.1914 5.1648 17.2402 5.12259 17.2959 5.09118C17.3516 5.05978 17.413 5.03982 17.4765 5.03248C17.54 5.02513 17.6044 5.03055 17.6658 5.04841C18.747 5.33598 19.7735 5.79947 20.7042 6.42031C22.7911 7.81049 24.301 9.91256 24.9519 12.3342C24.9848 12.4571 24.9675 12.5881 24.9039 12.6983C24.8403 12.8085 24.7355 12.8889 24.6126 12.9219L17.637 14.7903C17.5964 14.8013 17.5545 14.807 17.5125 14.8071Z" fill="#1A73E9"/>
<path id="Vector_9" d="M12.4579 24.968C12.4161 24.968 12.3744 24.9624 12.334 24.9515C11.2528 24.664 10.2263 24.2005 9.29562 23.5796C7.20865 22.1894 5.69882 20.0874 5.04792 17.6657C5.03033 17.6044 5.02513 17.5402 5.03262 17.4769C5.04012 17.4136 5.06016 17.3524 5.09158 17.2969C5.123 17.2414 5.16516 17.1927 5.2156 17.1537C5.26605 17.1146 5.32376 17.0861 5.38538 17.0696C5.44699 17.0531 5.51127 17.0491 5.57445 17.0578C5.63764 17.0664 5.69846 17.0876 5.75338 17.12C5.80829 17.1524 5.85619 17.1955 5.89428 17.2466C5.93237 17.2978 5.95989 17.356 5.97522 17.4179C6.56624 19.6137 7.93551 21.5196 9.82782 22.7804C10.5375 23.2539 11.3093 23.6269 12.1213 23.8886L13.8628 17.3882C13.8982 17.2681 13.9792 17.1666 14.0884 17.1053C14.1976 17.044 14.3265 17.0279 14.4475 17.0603C14.5684 17.0927 14.672 17.1711 14.7359 17.2788C14.7999 17.3865 14.8192 17.5149 14.7898 17.6366L12.9214 24.6122C12.8941 24.7143 12.8338 24.8045 12.75 24.8688C12.6662 24.9331 12.5636 24.968 12.4579 24.968Z" fill="#1A73E9"/>
</g>
</svg>
