<svg width="16" height="26" viewBox="0 0 16 26" fill="none" xmlns="http://www.w3.org/2000/svg">
<g id="Group">
<path id="Vector" d="M12.8564 25.4805H3.14538C2.46526 25.4797 1.81323 25.2092 1.33231 24.7283C0.851399 24.2474 0.580872 23.5953 0.580078 22.9152V3.08521C0.581031 2.4052 0.851628 1.75332 1.33253 1.27253C1.81342 0.791746 2.46537 0.521301 3.14538 0.520508H12.8564C13.5365 0.521302 14.1885 0.791829 14.6694 1.27274C15.1504 1.75366 15.4209 2.40569 15.4217 3.08581V22.9158C15.4207 23.5958 15.1501 24.2477 14.6692 24.7285C14.1883 25.2093 13.5364 25.4797 12.8564 25.4805ZM3.14538 1.48051C2.71975 1.4809 2.31166 1.65016 2.0107 1.95113C1.70973 2.25209 1.54048 2.66018 1.54008 3.08581V22.9158C1.54063 23.3413 1.70996 23.7493 2.01091 24.0501C2.31186 24.3509 2.71985 24.5201 3.14538 24.5205H12.8564C13.282 24.5201 13.6901 24.3509 13.9911 24.0499C14.292 23.7489 14.4613 23.3408 14.4617 22.9152V3.08521C14.4611 2.65968 14.2918 2.25175 13.9908 1.95092C13.6899 1.65008 13.2819 1.4809 12.8564 1.48051H3.14538Z" fill="#CCD1D6"/>
<path id="Vector_2" d="M14.9417 4.86332H1.06008C0.932775 4.86332 0.810684 4.81275 0.720667 4.72273C0.63065 4.63271 0.580078 4.51062 0.580078 4.38332C0.580078 4.25602 0.63065 4.13393 0.720667 4.04391C0.810684 3.95389 0.932775 3.90332 1.06008 3.90332H14.9417C15.069 3.90332 15.1911 3.95389 15.2811 4.04391C15.3711 4.13393 15.4217 4.25602 15.4217 4.38332C15.4217 4.51062 15.3711 4.63271 15.2811 4.72273C15.1911 4.81275 15.069 4.86332 14.9417 4.86332Z" fill="#CCD1D6"/>
<path id="Vector_3" d="M14.9417 22.0977H1.06008C0.932775 22.0977 0.810684 22.0471 0.720667 21.9571C0.63065 21.8671 0.580078 21.745 0.580078 21.6177C0.580078 21.4904 0.63065 21.3683 0.720667 21.2783C0.810684 21.1883 0.932775 21.1377 1.06008 21.1377H14.9417C15.069 21.1377 15.1911 21.1883 15.2811 21.2783C15.3711 21.3683 15.4217 21.4904 15.4217 21.6177C15.4217 21.745 15.3711 21.8671 15.2811 21.9571C15.1911 22.0471 15.069 22.0977 14.9417 22.0977Z" fill="#CCD1D6"/>
<path id="Vector_4" d="M9.50051 23.7891H6.50051C6.3732 23.7891 6.25111 23.7385 6.1611 23.6485C6.07108 23.5585 6.02051 23.4364 6.02051 23.3091C6.02051 23.1818 6.07108 23.0597 6.1611 22.9697C6.25111 22.8797 6.3732 22.8291 6.50051 22.8291H9.50051C9.62781 22.8291 9.7499 22.8797 9.83992 22.9697C9.92994 23.0597 9.98051 23.1818 9.98051 23.3091C9.98051 23.4364 9.92994 23.5585 9.83992 23.6485C9.7499 23.7385 9.62781 23.7891 9.50051 23.7891Z" fill="#CCD1D6"/>
<path id="Vector_5" d="M9.50051 3.17191H6.50051C6.3732 3.17191 6.25111 3.12134 6.1611 3.03133C6.07108 2.94131 6.02051 2.81922 6.02051 2.69191C6.02051 2.56461 6.07108 2.44252 6.1611 2.3525C6.25111 2.26248 6.3732 2.21191 6.50051 2.21191H9.50051C9.62781 2.21191 9.7499 2.26248 9.83992 2.3525C9.92994 2.44252 9.98051 2.56461 9.98051 2.69191C9.98051 2.81922 9.92994 2.94131 9.83992 3.03133C9.7499 3.12134 9.62781 3.17191 9.50051 3.17191Z" fill="#CCD1D6"/>
</g>
</svg>
