<svg width="30" height="31" viewBox="0 0 30 31" fill="none" xmlns="http://www.w3.org/2000/svg">
<path d="M19.8564 27.9805H10.1454C9.46526 27.9797 8.81323 27.7092 8.33231 27.2283C7.8514 26.7474 7.58087 26.0953 7.58008 25.4152V5.58521C7.58103 4.9052 7.85163 4.25332 8.33253 3.77253C8.81342 3.29175 9.46537 3.0213 10.1454 3.02051H19.8564C20.5365 3.0213 21.1885 3.29183 21.6694 3.77274C22.1504 4.25366 22.4209 4.90569 22.4217 5.58581V25.4158C22.4207 26.0958 22.1501 26.7477 21.6692 27.2285C21.1883 27.7093 20.5364 27.9797 19.8564 27.9805ZM10.1454 3.98051C9.71975 3.9809 9.31166 4.15016 9.0107 4.45113C8.70973 4.75209 8.54048 5.16018 8.54008 5.58581V25.4158C8.54063 25.8413 8.70996 26.2493 9.01091 26.5501C9.31186 26.8509 9.71985 27.0201 10.1454 27.0205H19.8564C20.282 27.0201 20.6901 26.8509 20.9911 26.5499C21.292 26.2489 21.4613 25.8408 21.4617 25.4152V5.58521C21.4611 5.15968 21.2918 4.75175 20.9908 4.45092C20.6899 4.15008 20.2819 3.9809 19.8564 3.98051H10.1454Z" fill="#1A73E9"/>
<path d="M21.9417 7.36332H8.06008C7.93277 7.36332 7.81068 7.31275 7.72067 7.22273C7.63065 7.13271 7.58008 7.01062 7.58008 6.88332C7.58008 6.75602 7.63065 6.63393 7.72067 6.54391C7.81068 6.45389 7.93277 6.40332 8.06008 6.40332H21.9417C22.069 6.40332 22.1911 6.45389 22.2811 6.54391C22.3711 6.63393 22.4217 6.75602 22.4217 6.88332C22.4217 7.01062 22.3711 7.13271 22.2811 7.22273C22.1911 7.31275 22.069 7.36332 21.9417 7.36332Z" fill="#1A73E9"/>
<path d="M21.9417 24.5977H8.06008C7.93277 24.5977 7.81068 24.5471 7.72067 24.4571C7.63065 24.3671 7.58008 24.245 7.58008 24.1177C7.58008 23.9904 7.63065 23.8683 7.72067 23.7783C7.81068 23.6883 7.93277 23.6377 8.06008 23.6377H21.9417C22.069 23.6377 22.1911 23.6883 22.2811 23.7783C22.3711 23.8683 22.4217 23.9904 22.4217 24.1177C22.4217 24.245 22.3711 24.3671 22.2811 24.4571C22.1911 24.5471 22.069 24.5977 21.9417 24.5977Z" fill="#1A73E9"/>
<path d="M16.5005 26.2891H13.5005C13.3732 26.2891 13.2511 26.2385 13.1611 26.1485C13.0711 26.0585 13.0205 25.9364 13.0205 25.8091C13.0205 25.6818 13.0711 25.5597 13.1611 25.4697C13.2511 25.3797 13.3732 25.3291 13.5005 25.3291H16.5005C16.6278 25.3291 16.7499 25.3797 16.8399 25.4697C16.9299 25.5597 16.9805 25.6818 16.9805 25.8091C16.9805 25.9364 16.9299 26.0585 16.8399 26.1485C16.7499 26.2385 16.6278 26.2891 16.5005 26.2891Z" fill="#1A73E9"/>
<path d="M16.5005 5.67191H13.5005C13.3732 5.67191 13.2511 5.62134 13.1611 5.53133C13.0711 5.44131 13.0205 5.31922 13.0205 5.19191C13.0205 5.06461 13.0711 4.94252 13.1611 4.8525C13.2511 4.76248 13.3732 4.71191 13.5005 4.71191H16.5005C16.6278 4.71191 16.7499 4.76248 16.8399 4.8525C16.9299 4.94252 16.9805 5.06461 16.9805 5.19191C16.9805 5.31922 16.9299 5.44131 16.8399 5.53133C16.7499 5.62134 16.6278 5.67191 16.5005 5.67191Z" fill="#1A73E9"/>
</svg>
