<svg width="86" height="15" viewBox="0 0 86 15" fill="none" xmlns="http://www.w3.org/2000/svg">
<path d="M7.00033 10.8659L10.6053 13.0417L9.64866 8.94087L12.8337 6.18171L8.63949 5.82587L7.00033 1.95837L5.36116 5.82587L1.16699 6.18171L4.35199 8.94087L3.39533 13.0417L7.00033 10.8659Z" fill="#FD8F27"/>
<path d="M25.0003 10.8659L28.6053 13.0417L27.6487 8.94087L30.8337 6.18171L26.6395 5.82587L25.0003 1.95837L23.3612 5.82587L19.167 6.18171L22.352 8.94087L21.3953 13.0417L25.0003 10.8659Z" fill="#FD8F27"/>
<path d="M43.0003 10.8659L46.6053 13.0417L45.6487 8.94087L48.8337 6.18171L44.6395 5.82587L43.0003 1.95837L41.3612 5.82587L37.167 6.18171L40.352 8.94087L39.3953 13.0417L43.0003 10.8659Z" fill="#FD8F27"/>
<path d="M61.0003 10.8659L64.6053 13.0417L63.6487 8.94087L66.8337 6.18171L62.6395 5.82587L61.0003 1.95837L59.3612 5.82587L55.167 6.18171L58.352 8.94087L57.3953 13.0417L61.0003 10.8659Z" fill="#FD8F27"/>
<path d="M84.8337 6.18171L80.6395 5.82004L79.0003 1.95837L77.3612 5.82587L73.167 6.18171L76.352 8.94087L75.3953 13.0417L79.0003 10.8659L82.6053 13.0417L81.6545 8.94087L84.8337 6.18171ZM79.0003 9.77504L76.807 11.0992L77.3903 8.60254L75.4537 6.92254L78.0087 6.70087L79.0003 4.35004L79.9978 6.70671L82.5528 6.92837L80.6162 8.60837L81.1995 11.105L79.0003 9.77504Z" fill="#FFB780"/>
</svg>
