<svg width="30" height="30" viewBox="0 0 30 30" fill="none" xmlns="http://www.w3.org/2000/svg">
<g id="fi_11009649">
<path id="Vector" d="M15 25.3504C13.4106 25.3504 11.8704 24.7993 10.6417 23.791C9.41304 22.7827 8.57201 21.3796 8.26192 19.8207C7.95182 18.2618 8.19183 16.6437 8.94107 15.2419C9.69031 13.8402 10.9024 12.7416 12.3708 12.1333C13.8393 11.5251 15.4732 11.4448 16.9942 11.9062C18.5151 12.3676 19.8291 13.3421 20.7121 14.6636C21.5951 15.9852 21.9926 17.572 21.8368 19.1538C21.681 20.7356 20.9815 22.2144 19.8576 23.3383C19.2212 23.9782 18.4642 24.4855 17.6304 24.8309C16.7966 25.1763 15.9025 25.3528 15 25.3504ZM15 12.5704C11.7414 12.5704 9.09004 15.2215 9.09004 18.4804C9.09004 21.7393 11.7411 24.3904 15 24.3904C18.2589 24.3904 20.91 21.7393 20.91 18.4804C20.91 15.2215 18.2586 12.5704 15 12.5704Z" fill="#1A73E9"/>
<path id="Vector_2" d="M15.0001 27.4805C12.9179 27.4805 10.9001 26.7585 9.29052 25.4376C7.68094 24.1167 6.57917 22.2785 6.17295 20.2363C5.76673 18.1941 6.08119 16.0742 7.06275 14.2379C8.04431 12.4015 9.63224 10.9623 11.556 10.1655C13.4797 9.36871 15.6202 9.26358 17.6127 9.86806C19.6053 10.4725 21.3266 11.7492 22.4834 13.4805C23.6401 15.2119 24.1608 17.2907 23.9566 19.3629C23.7525 21.4351 22.8361 23.3724 21.3637 24.8447C20.53 25.683 19.5383 26.3476 18.446 26.8C17.3537 27.2525 16.1824 27.4837 15.0001 27.4805ZM15.0001 10.4405C10.567 10.4405 6.96014 14.0468 6.96014 18.4805C6.96014 22.9142 10.567 26.5205 15.0001 26.5205C19.4332 26.5205 23.0401 22.9139 23.0401 18.4805C23.0401 14.0471 19.4332 10.4405 15.0001 10.4405Z" fill="#1A73E9"/>
<path id="Vector_3" d="M17.5559 10.8304C17.4286 10.8304 17.3065 10.7798 17.2165 10.6898C17.1264 10.5998 17.0759 10.4777 17.0759 10.3504V8.49516H12.9239V10.3504C12.9239 10.4777 12.8733 10.5998 12.7833 10.6898C12.6933 10.7798 12.5712 10.8304 12.4439 10.8304C12.3166 10.8304 12.1945 10.7798 12.1045 10.6898C12.0144 10.5998 11.9639 10.4777 11.9639 10.3504V8.01516C11.9639 7.88785 12.0144 7.76576 12.1045 7.67575C12.1945 7.58573 12.3166 7.53516 12.4439 7.53516H17.5559C17.6832 7.53516 17.8053 7.58573 17.8953 7.67575C17.9853 7.76576 18.0359 7.88785 18.0359 8.01516V10.3504C18.0359 10.4777 17.9853 10.5998 17.8953 10.6898C17.8053 10.7798 17.6832 10.8304 17.5559 10.8304Z" fill="#1A73E9"/>
<path id="Vector_4" d="M16.4743 8.49447C16.385 8.49438 16.2975 8.46939 16.2217 8.42231C16.1458 8.37522 16.0845 8.3079 16.0448 8.22792C16.0051 8.14794 15.9885 8.05847 15.9969 7.96957C16.0052 7.88066 16.0382 7.79585 16.0921 7.72467L17.4691 5.90727H12.5311L13.9081 7.72467C13.9835 7.82621 14.0158 7.95341 13.9979 8.07862C13.9801 8.20383 13.9135 8.31693 13.8127 8.39333C13.7119 8.46974 13.585 8.50327 13.4597 8.48665C13.3343 8.47003 13.2205 8.40459 13.1431 8.30457L11.1823 5.71707C11.1284 5.64584 11.0954 5.56097 11.0871 5.47202C11.0787 5.38306 11.0954 5.29354 11.1352 5.21354C11.175 5.13354 11.2363 5.06623 11.3122 5.01919C11.3882 4.97215 11.4758 4.94724 11.5651 4.94727H18.4351C18.5245 4.94724 18.612 4.97215 18.688 5.01919C18.764 5.06623 18.8253 5.13354 18.8651 5.21354C18.9049 5.29354 18.9215 5.38306 18.9132 5.47202C18.9049 5.56097 18.8719 5.64584 18.8179 5.71707L16.8571 8.30457C16.8123 8.36363 16.7544 8.41152 16.688 8.44446C16.6216 8.47741 16.5485 8.49453 16.4743 8.49447Z" fill="#1A73E9"/>
<path id="Vector_5" d="M18.4354 5.90713H11.5654C11.4793 5.90721 11.3947 5.88412 11.3206 5.84028C11.2465 5.79645 11.1855 5.73348 11.1441 5.65799C11.1027 5.58249 11.0824 5.49724 11.0852 5.41118C11.0881 5.32512 11.114 5.24141 11.1604 5.16883L12.709 2.74153C12.7524 2.6735 12.8122 2.61749 12.8829 2.57869C12.9536 2.53989 13.033 2.51954 13.1137 2.51953H16.8871C16.9678 2.51954 17.0471 2.53989 17.1179 2.57869C17.1886 2.61749 17.2484 2.6735 17.2918 2.74153L18.8404 5.16883C18.8867 5.24139 18.9127 5.32507 18.9155 5.4111C18.9184 5.49714 18.8981 5.58237 18.8567 5.65785C18.8153 5.73334 18.7544 5.79631 18.6804 5.84017C18.6063 5.88403 18.5218 5.90715 18.4357 5.90713H18.4354ZM12.4408 4.94713H17.56L16.624 3.47953H13.3768L12.4408 4.94713Z" fill="#1A73E9"/>
<path id="Vector_6" d="M14.9998 5.90758C14.9266 5.90757 14.8545 5.89086 14.7888 5.85873C14.7232 5.8266 14.6657 5.7799 14.6209 5.72218L12.7342 3.29458C12.6944 3.24492 12.6649 3.18786 12.6474 3.12672C12.6299 3.06557 12.6248 3.00155 12.6322 2.93839C12.6397 2.87522 12.6596 2.81417 12.6909 2.75878C12.7221 2.70338 12.7641 2.65475 12.8143 2.61571C12.8645 2.57667 12.922 2.548 12.9833 2.53136C13.0447 2.51472 13.1088 2.51045 13.1719 2.5188C13.2349 2.52714 13.2957 2.54793 13.3506 2.57996C13.4056 2.61199 13.4536 2.65463 13.492 2.70538L14.9998 4.64548L16.5076 2.70538C16.5459 2.65463 16.5939 2.61199 16.6489 2.57996C16.7038 2.54793 16.7646 2.52714 16.8276 2.5188C16.8907 2.51045 16.9548 2.51472 17.0162 2.53136C17.0775 2.548 17.135 2.57667 17.1852 2.61571C17.2354 2.65475 17.2774 2.70338 17.3086 2.75878C17.3399 2.81417 17.3598 2.87522 17.3673 2.93839C17.3747 3.00155 17.3696 3.06557 17.3521 3.12672C17.3346 3.18786 17.3051 3.24492 17.2654 3.29458L15.3787 5.72218C15.3338 5.7799 15.2763 5.8266 15.2107 5.85873C15.145 5.89086 15.0729 5.90757 14.9998 5.90758Z" fill="#1A73E9"/>
<path id="Vector_7" d="M14.9995 8.49447C14.8722 8.49447 14.7501 8.44389 14.6601 8.35388C14.5701 8.26386 14.5195 8.14177 14.5195 8.01447V5.42727C14.5195 5.29996 14.5701 5.17787 14.6601 5.08785C14.7501 4.99784 14.8722 4.94727 14.9995 4.94727C15.1268 4.94727 15.2489 4.99784 15.3389 5.08785C15.429 5.17787 15.4795 5.29996 15.4795 5.42727V8.01447C15.4795 8.14177 15.429 8.26386 15.3389 8.35388C15.2489 8.44389 15.1268 8.49447 14.9995 8.49447Z" fill="#1A73E9"/>
</g>
</svg>
