<svg width="41" height="40" viewBox="0 0 41 40" fill="none" xmlns="http://www.w3.org/2000/svg">
<rect x="0.333008" width="40" height="40" rx="16" fill="#1A73E9"/>
<path d="M29.2132 16.7364L28.4677 21.0134C28.3757 21.4859 27.9993 21.7731 27.5652 21.7785H16.6962L16.4804 22.9949H26.8393C27.3848 23.0364 27.7547 23.4228 27.7614 23.917C27.7217 24.4613 27.3354 24.8323 26.8393 24.8391H15.3817C14.7621 24.7834 14.3926 24.2894 14.4596 23.7404L14.9501 21.0722L14.2046 13.5777L12.0857 12.9107C11.5679 12.7051 11.3566 12.2367 11.4775 11.7532C11.6786 11.2492 12.1604 11.019 12.635 11.145L15.3425 12.0082C15.7072 12.1449 15.917 12.4435 15.9703 12.793L16.1272 14.284L28.4088 15.6574C28.9731 15.7796 29.2794 16.2266 29.2132 16.7364ZM18.1891 26.7752C18.1891 27.5526 17.5589 28.1829 16.7814 28.1829C16.004 28.1829 15.3738 27.5526 15.3738 26.7752C15.3738 25.9978 16.004 25.3675 16.7814 25.3675C17.5589 25.3675 18.1891 25.9978 18.1891 26.7752ZM26.5928 26.7752C26.5928 27.5526 25.9626 28.1829 25.1851 28.1829C24.4077 28.1829 23.7775 27.5526 23.7775 26.7752C23.7775 25.9978 24.4077 25.3675 25.1851 25.3675C25.9626 25.3675 26.5928 25.9978 26.5928 26.7752Z" fill="white"/>
</svg>
