<svg width="30" height="30" viewBox="0 0 30 30" fill="none" xmlns="http://www.w3.org/2000/svg">
<g id="fi_9843341">
<path id="Vector" d="M26.9995 20.7295H2.99953C2.87223 20.7295 2.75014 20.679 2.66012 20.5889C2.5701 20.4989 2.51953 20.3768 2.51953 20.2495C2.51953 20.1222 2.5701 20.0001 2.66012 19.9101C2.75014 19.8201 2.87223 19.7695 2.99953 19.7695H26.1919L20.9995 10.2295H8.71393C8.58663 10.2295 8.46454 10.179 8.37452 10.0889C8.2845 9.99893 8.23393 9.87684 8.23393 9.74953C8.23393 9.62223 8.2845 9.50014 8.37452 9.41012C8.46454 9.3201 8.58663 9.26953 8.71393 9.26953H21.2854C21.3717 9.26955 21.4564 9.29282 21.5306 9.3369C21.6048 9.38099 21.6657 9.44425 21.7069 9.52003L27.421 20.02C27.4608 20.0931 27.4809 20.1753 27.4794 20.2585C27.4778 20.3418 27.4546 20.4231 27.4121 20.4947C27.3696 20.5662 27.3092 20.6255 27.2369 20.6667C27.1646 20.7079 27.0828 20.7295 26.9995 20.7295Z" fill="#1A73E9"/>
<path id="Vector_2" d="M14.4299 20.7297H2.99991C2.9168 20.7294 2.83519 20.7075 2.76307 20.6663C2.69094 20.625 2.63076 20.5657 2.58843 20.4942C2.5461 20.4227 2.52306 20.3414 2.52156 20.2583C2.52007 20.1752 2.54017 20.0931 2.57991 20.0202L8.29401 9.52016C8.33526 9.44433 8.39619 9.38103 8.4704 9.33692C8.5446 9.29281 8.62933 9.26953 8.71566 9.26953C8.80198 9.26953 8.88671 9.29281 8.96091 9.33692C9.03512 9.38103 9.09606 9.44433 9.13731 9.52016L14.8499 20.0202C14.8896 20.0931 14.9097 20.1752 14.9082 20.2583C14.9068 20.3414 14.8837 20.4227 14.8414 20.4942C14.799 20.5657 14.7389 20.625 14.6667 20.6663C14.5946 20.7075 14.513 20.7294 14.4299 20.7297ZM3.80991 19.7697H13.6199L8.71401 10.7538L3.80991 19.7697Z" fill="#1A73E9"/>
<path id="Vector_3" d="M8.71438 20.7295C8.58707 20.7295 8.46498 20.679 8.37496 20.5889C8.28495 20.4989 8.23438 20.3768 8.23438 20.2495V9.74953C8.23438 9.62223 8.28495 9.50014 8.37496 9.41012C8.46498 9.3201 8.58707 9.26953 8.71438 9.26953C8.84168 9.26953 8.96377 9.3201 9.05379 9.41012C9.1438 9.50014 9.19438 9.62223 9.19438 9.74953V20.2495C9.19438 20.3768 9.1438 20.4989 9.05379 20.5889C8.96377 20.679 8.84168 20.7295 8.71438 20.7295Z" fill="#1A73E9"/>
<path id="Vector_4" d="M25.4006 17.7901H12.8306C12.7033 17.7901 12.5812 17.7395 12.4912 17.6495C12.4012 17.5595 12.3506 17.4374 12.3506 17.3101C12.3506 17.1828 12.4012 17.0607 12.4912 16.9707C12.5812 16.8806 12.7033 16.8301 12.8306 16.8301H25.4006C25.5279 16.8301 25.65 16.8806 25.74 16.9707C25.83 17.0607 25.8806 17.1828 25.8806 17.3101C25.8806 17.4374 25.83 17.5595 25.74 17.6495C25.65 17.7395 25.5279 17.7901 25.4006 17.7901Z" fill="#1A73E9"/>
<path id="Vector_5" d="M21.3777 15.8399H17.2422C17.1559 15.8399 17.0711 15.8167 16.9969 15.7726C16.9227 15.7285 16.8617 15.6652 16.8204 15.5894L14.8299 11.9312C14.7901 11.8581 14.77 11.7759 14.7716 11.6927C14.7731 11.6095 14.7963 11.5281 14.8388 11.4565C14.8813 11.385 14.9417 11.3257 15.014 11.2845C15.0864 11.2433 15.1682 11.2217 15.2514 11.2217H19.3875C19.4735 11.222 19.5579 11.2454 19.6318 11.2894C19.7057 11.3335 19.7664 11.3966 19.8075 11.4722L21.798 15.1295C21.838 15.2025 21.8582 15.2847 21.8568 15.3679C21.8555 15.4512 21.8324 15.5326 21.79 15.6043C21.7476 15.676 21.6873 15.7353 21.615 15.7766C21.5428 15.818 21.461 15.8397 21.3777 15.8399ZM17.5272 14.8799H20.5701L19.1022 12.1826H16.0593L17.5272 14.8799Z" fill="#1A73E9"/>
<path id="Vector_6" d="M20.3834 14.0098H16.2476C16.1203 14.0098 15.9982 13.9592 15.9082 13.8692C15.8181 13.7792 15.7676 13.6571 15.7676 13.5298C15.7676 13.4025 15.8181 13.2804 15.9082 13.1904C15.9982 13.1004 16.1203 13.0498 16.2476 13.0498H20.3834C20.5107 13.0498 20.6328 13.1004 20.7228 13.1904C20.8128 13.2804 20.8634 13.4025 20.8634 13.5298C20.8634 13.6571 20.8128 13.7792 20.7228 13.8692C20.6328 13.9592 20.5107 14.0098 20.3834 14.0098Z" fill="#1A73E9"/>
<path id="Vector_7" d="M19.3102 15.8402C19.2238 15.8403 19.139 15.817 19.0648 15.7728C18.9906 15.7287 18.9296 15.6653 18.8884 15.5894L16.8973 11.9312C16.8364 11.8194 16.8225 11.688 16.8585 11.5659C16.8945 11.4438 16.9776 11.341 17.0894 11.2801C17.2013 11.2192 17.3327 11.2053 17.4548 11.2413C17.5769 11.2773 17.6797 11.3604 17.7406 11.4722L19.7314 15.1298C19.7712 15.2028 19.7913 15.2849 19.7899 15.3681C19.7884 15.4512 19.7654 15.5325 19.7231 15.6041C19.6807 15.6756 19.6205 15.735 19.5484 15.7763C19.4762 15.8176 19.3945 15.8394 19.3114 15.8396L19.3102 15.8402Z" fill="#1A73E9"/>
</g>
</svg>
