<svg width="15" height="15" viewBox="0 0 15 15" fill="none" xmlns="http://www.w3.org/2000/svg">
<g id="ep:arrow-up-bold">
<path id="Vector" d="M13.4657 10.0373C13.2899 10.2131 13.0515 10.3118 12.8029 10.3118C12.5543 10.3118 12.3159 10.2131 12.1401 10.0373L7.4995 5.39671L2.85887 10.0373C2.68206 10.2081 2.44524 10.3026 2.19943 10.3005C1.95362 10.2983 1.71849 10.1997 1.54467 10.0259C1.37085 9.8521 1.27225 9.61696 1.27011 9.37115C1.26798 9.12534 1.36247 8.88853 1.53325 8.71171L6.83668 3.40828C7.01249 3.23252 7.25091 3.13379 7.4995 3.13379C7.74809 3.13379 7.9865 3.23252 8.16231 3.40828L13.4657 8.71171C13.6415 8.88752 13.7402 9.12594 13.7402 9.37453C13.7402 9.62312 13.6415 9.86153 13.4657 10.0373Z" fill="#1A73E9"/>
</g>
</svg>
