<svg width="30" height="30" viewBox="0 0 30 30" fill="none" xmlns="http://www.w3.org/2000/svg">
<g id="fi_10351173">
<path id="Vector" d="M25.1113 22.7748H2.99953C2.87223 22.7748 2.75014 22.7242 2.66012 22.6342C2.5701 22.5442 2.51953 22.4221 2.51953 22.2948V22.2414C2.52033 21.5612 2.79088 20.9091 3.27186 20.4281C3.75283 19.9471 4.40494 19.6766 5.08513 19.6758H25.1113C25.2386 19.6758 25.3607 19.7264 25.4507 19.8164C25.5408 19.9064 25.5913 20.0285 25.5913 20.1558V22.2948C25.5913 22.4221 25.5408 22.5442 25.4507 22.6342C25.3607 22.7242 25.2386 22.7748 25.1113 22.7748ZM3.53713 21.8148H24.6313V20.6358H5.08513C4.73374 20.6362 4.39215 20.7517 4.1126 20.9646C3.83305 21.1775 3.63093 21.4761 3.53713 21.8148Z" fill="#CCD1D6"/>
<path id="Vector_2" d="M5.18969 20.6527C5.17439 20.6527 5.15969 20.6527 5.14319 20.6506C5.08043 20.6446 5.01947 20.6263 4.96378 20.5967C4.9081 20.5671 4.8588 20.5268 4.81868 20.4782C4.77856 20.4295 4.74842 20.3735 4.72998 20.3132C4.71153 20.2529 4.70515 20.1896 4.71119 20.1268L4.71299 20.1091C4.71286 20.1081 4.71286 20.1071 4.71299 20.1061C4.74449 19.795 5.08769 16.9861 7.42529 14.2795C8.77529 12.7168 10.5294 11.4874 12.6414 10.6252C15.2349 9.56619 18.3816 9.06069 21.9936 9.12219C22.0854 9.12375 22.1749 9.15164 22.2514 9.20253C22.3278 9.25342 22.3881 9.32518 22.425 9.40929L26.1237 17.8459C26.1531 17.9129 26.1667 17.9857 26.1636 18.0588C26.1605 18.1319 26.1408 18.2033 26.1059 18.2676C26.071 18.3319 26.0218 18.3873 25.9622 18.4297C25.9026 18.4721 25.8341 18.5003 25.7619 18.5122C25.7064 18.5221 24.3333 18.7822 23.9319 20.2783C23.9166 20.3402 23.889 20.3984 23.851 20.4496C23.8129 20.5007 23.765 20.5438 23.7101 20.5762C23.6551 20.6086 23.5943 20.6298 23.5311 20.6385C23.4679 20.6471 23.4037 20.6431 23.342 20.6266C23.2804 20.6102 23.2227 20.5816 23.1723 20.5426C23.1218 20.5035 23.0797 20.4549 23.0483 20.3994C23.0168 20.3439 22.9968 20.2827 22.9893 20.2193C22.9818 20.156 22.987 20.0918 23.0046 20.0305C23.3817 18.6205 24.3822 17.9989 25.0272 17.7385L21.6714 10.078C15.5115 10.0279 10.9644 11.6512 8.15339 14.908C7.25779 15.9405 6.56397 17.1319 6.10799 18.4204C5.75969 19.4104 5.67809 20.1178 5.66969 20.2015L5.66789 20.2186C5.65647 20.3375 5.60115 20.4478 5.51272 20.5281C5.42429 20.6084 5.30912 20.6528 5.18969 20.6527Z" fill="#CCD1D6"/>
<path id="Vector_3" d="M19.6127 17.7713H13.1447C12.2045 17.7713 11.4395 16.9373 11.4395 15.9113C11.4395 15.0338 12.011 14.2682 12.7988 14.0906L19.2668 12.6335C19.5021 12.5814 19.7463 12.5832 19.9809 12.6387C20.2155 12.6942 20.4345 12.8021 20.6216 12.9542C21.0644 13.3082 21.3182 13.8542 21.3182 14.4542V15.9116C21.3182 16.9373 20.5532 17.7713 19.6127 17.7713ZM19.6127 13.556C19.5668 13.556 19.5212 13.561 19.4765 13.571L13.0097 15.0296C12.656 15.1094 12.3995 15.4811 12.3995 15.9137C12.3995 16.4093 12.7337 16.8137 13.1447 16.8137H19.6127C20.0237 16.8137 20.3582 16.4105 20.3582 15.9137V14.4551C20.3582 14.1551 20.2325 13.8734 20.0222 13.7051C19.9071 13.6102 19.763 13.5576 19.6139 13.556H19.6127Z" fill="#CCD1D6"/>
<path id="Vector_4" d="M8.5132 14.3079C8.3859 14.3079 8.26381 14.2573 8.17379 14.1673C8.08377 14.0773 8.0332 13.9552 8.0332 13.8279V10.2144C8.0332 10.0871 8.08377 9.96498 8.17379 9.87496C8.26381 9.78495 8.3859 9.73438 8.5132 9.73438H10.8232C10.9505 9.73438 11.0726 9.78495 11.1626 9.87496C11.2526 9.96498 11.3032 10.0871 11.3032 10.2144V12.0645C11.3032 12.1918 11.2526 12.3139 11.1626 12.4039C11.0726 12.4939 10.9505 12.5445 10.8232 12.5445C10.6959 12.5445 10.5738 12.4939 10.4838 12.4039C10.3938 12.3139 10.3432 12.1918 10.3432 12.0645V10.6944H8.9932V13.8279C8.9932 13.9552 8.94263 14.0773 8.85261 14.1673C8.7626 14.2573 8.64051 14.3079 8.5132 14.3079Z" fill="#CCD1D6"/>
<path id="Vector_5" d="M26.9995 15.3648C26.909 15.3649 26.8202 15.3393 26.7436 15.2911C26.6669 15.2429 26.6055 15.174 26.5663 15.0924L25.8814 13.6632C25.2453 12.3347 24.9678 10.8628 25.0765 9.39389C25.0957 9.13601 25.0255 8.8794 24.8776 8.66722C24.7298 8.45504 24.5134 8.30025 24.2649 8.22888C24.0164 8.15751 23.7508 8.17392 23.5129 8.27535C23.2751 8.37677 23.0794 8.55703 22.9588 8.78579L22.411 9.82559C22.3506 9.93621 22.2491 10.0186 22.1284 10.055C22.0078 10.0914 21.8776 10.0789 21.7661 10.0202C21.6546 9.96146 21.5706 9.86122 21.5324 9.74112C21.4942 9.62102 21.5047 9.49069 21.5617 9.37829L22.1095 8.33849C22.333 7.91463 22.6955 7.58064 23.1363 7.3927C23.577 7.20476 24.069 7.17433 24.5296 7.30653C24.9901 7.43874 25.3911 7.7255 25.6651 8.11861C25.939 8.51171 26.0692 8.98716 26.0338 9.46499C25.9376 10.7668 26.1837 12.071 26.7475 13.2483L27.4324 14.6772C27.4675 14.7504 27.4835 14.8313 27.4788 14.9123C27.4742 14.9933 27.4491 15.0718 27.4058 15.1405C27.3626 15.2092 27.3026 15.2658 27.2316 15.305C27.1605 15.3443 27.0807 15.3648 26.9995 15.3648Z" fill="#CCD1D6"/>
</g>
</svg>
